<svg xmlns="http://www.w3.org/2000/svg" viewBox="89 397 849 230"><path fill="black" fill-rule="evenodd" d="M 869 596 L 869 621 L 873 625 L 934 625 L 937 622 L 937 620 L 938 619 L 938 598 L 937 597 L 937 596 L 936 595 L 936 594 L 934 592 L 933 592 L 932 591 L 875 591 L 874 592 L 873 592 Z M 663 597 L 663 620 L 664 621 L 664 622 L 667 625 L 788 625 L 791 622 L 791 621 L 792 620 L 792 596 L 790 594 L 790 593 L 789 593 L 786 591 L 669 591 L 668 592 L 667 592 L 664 595 L 664 596 Z M 257 523 L 175 523 L 174 524 L 173 524 L 170 527 L 170 529 L 169 530 L 169 550 L 170 551 L 170 552 L 173 555 L 174 555 L 175 556 L 225 556 L 226 557 L 226 559 L 225 560 L 221 569 L 216 575 L 216 576 L 210 582 L 209 582 L 203 587 L 202 587 L 197 590 L 195 590 L 194 591 L 191 591 L 190 592 L 188 592 L 184 596 L 184 597 L 183 598 L 183 620 L 184 621 L 184 623 L 187 626 L 192 627 L 193 626 L 197 626 L 198 625 L 201 625 L 202 624 L 207 623 L 210 621 L 212 621 L 213 620 L 218 618 L 220 616 L 221 616 L 225 613 L 226 613 L 231 608 L 232 608 L 241 599 L 241 598 L 244 595 L 244 594 L 250 586 L 250 585 L 255 576 L 255 574 L 257 571 L 257 569 L 258 568 L 258 566 L 259 565 L 259 561 L 260 560 L 260 556 L 261 555 L 261 549 L 262 548 L 262 530 L 261 529 L 261 527 Z M 663 525 L 663 547 L 664 548 L 664 549 L 667 552 L 668 552 L 669 553 L 776 553 L 777 552 L 778 552 L 779 551 L 780 551 L 780 550 L 782 548 L 782 524 L 781 523 L 781 522 L 779 520 L 778 520 L 777 519 L 668 519 L 665 521 L 665 522 Z M 827 446 L 826 447 L 825 447 L 822 450 L 822 451 L 821 452 L 821 620 L 822 621 L 822 622 L 825 625 L 828 625 L 829 626 L 845 626 L 846 625 L 849 625 L 850 624 L 851 624 L 853 621 L 853 451 L 852 450 L 852 449 L 848 446 Z M 663 452 L 663 474 L 664 475 L 664 476 L 665 477 L 665 478 L 668 480 L 787 480 L 789 478 L 790 478 L 790 477 L 792 474 L 792 452 L 791 451 L 791 450 L 788 447 L 787 447 L 786 446 L 669 446 L 668 447 L 667 447 L 664 450 L 664 451 Z M 485 447 L 482 451 L 481 462 L 482 463 L 482 475 L 487 480 L 561 480 L 572 483 L 581 488 L 590 497 L 597 509 L 601 523 L 602 541 L 598 560 L 593 570 L 581 583 L 570 589 L 562 591 L 488 591 L 482 596 L 481 601 L 482 621 L 486 625 L 565 625 L 584 620 L 599 612 L 616 596 L 624 584 L 630 570 L 635 545 L 635 527 L 634 526 L 634 518 L 632 508 L 626 491 L 616 475 L 604 463 L 594 456 L 586 452 L 569 447 L 562 447 L 561 446 L 488 446 Z M 385 446 L 377 446 L 373 450 L 373 475 L 377 480 L 379 481 L 382 481 L 386 483 L 388 483 L 392 485 L 397 489 L 398 489 L 406 497 L 406 498 L 410 503 L 415 513 L 415 516 L 416 517 L 416 519 L 417 520 L 417 524 L 418 525 L 418 547 L 417 548 L 417 552 L 416 553 L 415 559 L 410 569 L 408 571 L 406 575 L 398 583 L 397 583 L 395 585 L 388 589 L 386 589 L 385 590 L 377 592 L 373 597 L 373 622 L 375 625 L 379 626 L 380 627 L 382 626 L 387 626 L 391 624 L 394 624 L 399 621 L 401 621 L 407 618 L 409 616 L 415 613 L 419 609 L 420 609 L 432 597 L 432 596 L 438 588 L 445 574 L 446 569 L 448 566 L 449 558 L 450 557 L 450 552 L 451 551 L 451 540 L 452 539 L 452 533 L 451 532 L 451 522 L 450 521 L 450 516 L 449 515 L 448 507 L 447 506 L 446 501 L 444 498 L 444 496 L 438 484 L 436 482 L 434 478 L 431 475 L 431 474 L 420 463 L 419 463 L 412 457 L 409 456 L 407 454 L 401 451 L 399 451 L 396 449 L 393 449 L 389 447 L 386 447 Z M 346 446 L 345 447 L 342 447 L 341 448 L 333 450 L 330 452 L 328 452 L 324 455 L 316 459 L 313 462 L 312 462 L 299 475 L 299 476 L 296 479 L 296 480 L 292 485 L 286 497 L 286 499 L 284 502 L 284 504 L 282 508 L 282 511 L 281 512 L 281 516 L 280 517 L 280 523 L 279 524 L 279 550 L 280 551 L 280 556 L 281 557 L 282 565 L 283 566 L 284 571 L 286 574 L 286 576 L 291 586 L 293 588 L 294 591 L 301 599 L 301 600 L 309 608 L 310 608 L 314 612 L 315 612 L 320 616 L 332 622 L 334 622 L 340 625 L 343 625 L 344 626 L 353 626 L 355 625 L 357 622 L 357 596 L 353 592 L 351 591 L 348 591 L 347 590 L 345 590 L 344 589 L 340 588 L 338 586 L 334 584 L 331 581 L 330 581 L 325 576 L 325 575 L 319 567 L 316 561 L 316 559 L 314 555 L 313 546 L 312 545 L 312 528 L 313 527 L 313 522 L 314 521 L 315 514 L 321 502 L 327 495 L 327 494 L 335 487 L 345 482 L 353 480 L 357 475 L 357 450 L 355 448 L 355 447 L 353 446 Z M 184 449 L 184 451 L 183 452 L 183 474 L 184 475 L 184 476 L 185 477 L 185 478 L 187 480 L 189 480 L 190 481 L 193 481 L 194 482 L 196 482 L 197 483 L 198 483 L 199 484 L 200 484 L 201 485 L 202 485 L 203 486 L 204 486 L 206 488 L 207 488 L 216 497 L 216 498 L 220 502 L 220 503 L 223 506 L 224 506 L 225 507 L 227 507 L 228 508 L 245 508 L 246 507 L 249 507 L 250 506 L 251 506 L 254 503 L 254 495 L 253 494 L 253 493 L 252 492 L 252 491 L 251 490 L 251 489 L 250 488 L 250 487 L 249 486 L 249 485 L 247 483 L 247 482 L 245 480 L 245 479 L 243 477 L 243 476 L 228 461 L 227 461 L 225 459 L 224 459 L 222 457 L 221 457 L 219 455 L 218 455 L 217 454 L 216 454 L 215 453 L 214 453 L 213 452 L 212 452 L 211 451 L 209 451 L 208 450 L 206 450 L 205 449 L 203 449 L 202 448 L 200 448 L 199 447 L 195 447 L 194 446 L 188 446 L 187 447 L 186 447 Z M 157 446 L 156 447 L 152 447 L 151 448 L 143 450 L 131 456 L 129 458 L 125 460 L 111 473 L 111 474 L 107 478 L 107 479 L 101 487 L 97 495 L 97 497 L 95 500 L 95 502 L 94 503 L 94 505 L 92 509 L 92 512 L 91 513 L 91 517 L 90 518 L 90 524 L 89 525 L 89 549 L 90 550 L 90 556 L 91 557 L 92 564 L 93 565 L 95 573 L 97 576 L 97 578 L 100 584 L 102 586 L 103 589 L 105 591 L 107 595 L 113 601 L 113 602 L 124 612 L 125 612 L 130 616 L 133 617 L 135 619 L 139 620 L 144 623 L 146 623 L 150 625 L 162 627 L 166 625 L 168 621 L 168 598 L 165 593 L 150 588 L 148 586 L 144 584 L 141 581 L 140 581 L 136 577 L 136 576 L 132 572 L 131 569 L 129 567 L 127 563 L 127 561 L 125 558 L 124 551 L 123 550 L 123 546 L 122 545 L 122 529 L 123 528 L 123 522 L 124 521 L 124 518 L 125 517 L 126 512 L 129 506 L 131 504 L 132 501 L 143 489 L 144 489 L 146 487 L 153 483 L 155 483 L 156 482 L 164 480 L 167 477 L 167 475 L 168 474 L 168 452 L 165 447 L 163 446 Z M 374 397 L 372 399 L 372 413 L 371 414 L 371 420 L 372 421 L 372 424 L 374 426 L 377 426 L 378 427 L 386 427 L 387 426 L 392 426 L 393 427 L 394 426 L 398 426 L 399 425 L 400 425 L 400 424 L 401 423 L 401 401 L 400 400 L 400 399 L 398 397 Z M 331 397 L 329 399 L 329 423 L 330 424 L 330 425 L 331 425 L 332 426 L 334 426 L 335 427 L 340 427 L 341 426 L 348 426 L 349 427 L 353 427 L 354 426 L 356 426 L 358 424 L 358 400 L 357 399 L 357 398 L 356 398 L 355 397 Z "/></svg>