<svg xmlns="http://www.w3.org/2000/svg" viewBox="0 0 1024 1024" width="1024" height="1024"><path fill="white" fill-rule="evenodd" d="M 650 590 L 650 609 L 651 610 L 651 611 L 654 614 L 766 614 L 770 610 L 770 589 L 769 588 L 769 587 L 766 585 L 654 585 L 651 588 L 651 589 Z M 842 590 L 842 607 L 843 608 L 843 610 L 846 613 L 847 613 L 848 614 L 900 614 L 901 613 L 903 613 L 904 612 L 905 612 L 906 611 L 906 609 L 907 608 L 907 589 L 906 588 L 906 587 L 904 585 L 903 585 L 902 584 L 848 584 L 847 585 L 846 585 L 845 586 L 844 586 L 844 587 L 843 588 L 843 589 Z M 275 525 L 274 525 L 273 524 L 196 524 L 193 526 L 193 527 L 192 528 L 192 549 L 195 552 L 196 552 L 197 553 L 244 553 L 245 554 L 244 555 L 244 557 L 243 558 L 241 563 L 239 565 L 239 566 L 237 568 L 237 569 L 228 578 L 227 578 L 225 580 L 224 580 L 221 582 L 219 582 L 216 584 L 214 584 L 213 585 L 210 585 L 209 586 L 208 586 L 205 589 L 205 611 L 207 614 L 208 614 L 209 615 L 215 615 L 216 614 L 220 614 L 221 613 L 223 613 L 224 612 L 226 612 L 227 611 L 229 611 L 230 610 L 231 610 L 232 609 L 233 609 L 234 608 L 235 608 L 236 607 L 241 605 L 243 603 L 244 603 L 247 600 L 248 600 L 254 594 L 255 594 L 259 590 L 259 589 L 262 586 L 262 585 L 266 580 L 266 579 L 267 578 L 267 577 L 268 576 L 268 575 L 272 568 L 272 566 L 273 565 L 273 563 L 274 562 L 274 559 L 275 558 L 275 555 L 276 554 L 276 549 L 277 548 L 277 528 Z M 650 525 L 650 545 L 651 546 L 651 547 L 654 550 L 756 550 L 757 549 L 758 549 L 760 547 L 760 544 L 761 543 L 761 526 L 760 525 L 760 524 L 759 523 L 759 522 L 758 522 L 757 521 L 756 521 L 755 520 L 657 520 L 656 521 L 654 521 L 653 522 L 652 522 L 651 523 L 651 524 Z M 205 460 L 205 482 L 206 483 L 206 484 L 207 485 L 208 485 L 209 486 L 211 486 L 212 487 L 214 487 L 215 488 L 217 488 L 218 489 L 219 489 L 220 490 L 221 490 L 222 491 L 223 491 L 224 492 L 225 492 L 227 494 L 228 494 L 238 504 L 238 505 L 242 509 L 243 509 L 244 510 L 266 510 L 270 506 L 270 500 L 269 499 L 269 498 L 268 497 L 268 496 L 267 495 L 267 494 L 266 493 L 266 492 L 264 490 L 264 489 L 262 487 L 262 486 L 258 482 L 258 481 L 251 474 L 250 474 L 247 471 L 246 471 L 243 468 L 242 468 L 240 466 L 239 466 L 238 465 L 237 465 L 236 464 L 235 464 L 234 463 L 233 463 L 232 462 L 231 462 L 230 461 L 229 461 L 228 460 L 226 460 L 225 459 L 222 459 L 221 458 L 219 458 L 218 457 L 208 457 Z M 178 457 L 177 458 L 173 458 L 172 459 L 167 460 L 153 467 L 150 470 L 149 470 L 146 473 L 145 473 L 133 485 L 133 486 L 130 489 L 129 492 L 127 494 L 123 502 L 123 504 L 120 510 L 119 517 L 118 518 L 118 523 L 117 524 L 117 550 L 118 551 L 118 555 L 120 559 L 120 562 L 121 563 L 121 565 L 123 568 L 123 570 L 126 576 L 128 578 L 131 584 L 135 588 L 135 589 L 143 597 L 144 597 L 149 602 L 150 602 L 152 604 L 166 611 L 168 611 L 169 612 L 171 612 L 175 614 L 179 614 L 180 615 L 185 615 L 187 614 L 190 610 L 190 590 L 189 588 L 185 585 L 183 585 L 182 584 L 180 584 L 179 583 L 177 583 L 176 582 L 174 582 L 170 580 L 168 578 L 167 578 L 158 569 L 158 568 L 155 565 L 150 555 L 150 553 L 148 549 L 148 542 L 147 541 L 147 530 L 148 529 L 148 523 L 149 522 L 149 520 L 150 519 L 151 514 L 153 510 L 157 505 L 157 504 L 167 494 L 168 494 L 170 492 L 178 488 L 180 488 L 181 487 L 186 486 L 190 482 L 190 461 L 189 459 L 186 457 Z M 805 456 L 804 457 L 801 457 L 798 460 L 798 463 L 797 464 L 797 605 L 798 606 L 798 610 L 801 613 L 803 613 L 804 614 L 821 614 L 822 613 L 824 613 L 825 612 L 826 612 L 827 611 L 827 609 L 828 608 L 828 462 L 827 461 L 827 460 L 824 457 L 822 457 L 821 456 Z M 650 461 L 650 481 L 651 482 L 651 483 L 654 486 L 766 486 L 770 482 L 770 461 L 769 460 L 769 459 L 767 457 L 765 457 L 764 456 L 656 456 L 655 457 L 653 457 L 651 459 L 651 460 Z M 483 458 L 481 461 L 481 481 L 486 486 L 556 486 L 563 488 L 572 493 L 579 499 L 588 513 L 592 528 L 592 542 L 591 543 L 590 552 L 585 564 L 580 571 L 569 580 L 562 583 L 553 584 L 552 585 L 485 585 L 481 590 L 481 610 L 485 614 L 558 614 L 577 609 L 585 605 L 595 598 L 605 588 L 614 575 L 620 559 L 621 550 L 622 549 L 622 543 L 623 542 L 623 530 L 622 529 L 622 521 L 621 520 L 620 512 L 614 496 L 606 484 L 592 470 L 579 462 L 567 458 L 555 457 L 554 456 L 487 456 Z M 387 456 L 383 458 L 381 462 L 381 481 L 384 485 L 386 486 L 388 486 L 389 487 L 392 487 L 402 492 L 411 500 L 411 501 L 417 508 L 419 512 L 419 514 L 421 517 L 421 519 L 422 520 L 422 523 L 423 524 L 423 532 L 424 533 L 424 539 L 423 540 L 423 548 L 422 549 L 422 552 L 421 553 L 421 555 L 420 556 L 420 558 L 418 562 L 413 568 L 413 569 L 405 577 L 404 577 L 402 579 L 394 583 L 392 583 L 391 584 L 389 584 L 388 585 L 386 585 L 384 586 L 381 590 L 381 610 L 383 613 L 387 615 L 389 615 L 390 614 L 395 614 L 396 613 L 399 613 L 400 612 L 405 611 L 419 604 L 428 596 L 429 596 L 439 585 L 439 584 L 443 579 L 449 567 L 449 565 L 451 561 L 451 558 L 452 557 L 452 554 L 453 553 L 453 547 L 454 546 L 454 527 L 453 526 L 453 520 L 452 519 L 452 515 L 451 514 L 451 511 L 450 510 L 449 505 L 442 491 L 436 484 L 436 483 L 425 472 L 424 472 L 421 469 L 415 466 L 413 464 L 407 461 L 405 461 L 402 459 L 399 459 L 398 458 L 395 458 L 394 457 L 390 457 L 389 456 Z M 359 456 L 358 457 L 354 457 L 353 458 L 346 459 L 343 461 L 341 461 L 333 465 L 331 467 L 327 469 L 324 472 L 323 472 L 310 485 L 310 486 L 307 489 L 306 492 L 304 494 L 299 504 L 299 506 L 298 507 L 298 509 L 296 513 L 296 516 L 295 517 L 295 521 L 294 522 L 294 549 L 295 550 L 295 554 L 296 555 L 297 562 L 300 568 L 300 570 L 304 578 L 306 580 L 308 584 L 311 587 L 311 588 L 321 598 L 322 598 L 329 604 L 343 611 L 345 611 L 349 613 L 352 613 L 353 614 L 357 614 L 358 615 L 360 614 L 363 614 L 366 611 L 366 608 L 367 607 L 366 605 L 366 588 L 362 585 L 360 585 L 359 584 L 357 584 L 356 583 L 354 583 L 353 582 L 351 582 L 347 580 L 345 578 L 344 578 L 334 568 L 334 567 L 332 565 L 332 564 L 329 560 L 329 558 L 327 555 L 327 553 L 325 549 L 325 543 L 324 542 L 324 527 L 325 526 L 325 522 L 326 521 L 327 516 L 331 508 L 336 502 L 336 501 L 346 492 L 354 488 L 356 488 L 357 487 L 362 486 L 364 485 L 366 482 L 366 460 L 363 457 L 360 457 Z M 382 409 L 380 411 L 380 432 L 382 434 L 405 434 L 407 432 L 407 411 L 405 409 Z M 342 409 L 340 411 L 340 432 L 342 434 L 365 434 L 367 432 L 367 411 L 365 409 Z "/></svg>