<svg width="296" height="110" viewBox="0 0 296 110" fill="none" xmlns="http://www.w3.org/2000/svg">
<path d="M282.56 84V0H296V84H282.56Z" fill="white"/>
<path d="M247.52 85.44C241.68 85.44 236.48 84.12 231.92 81.48C227.44 78.76 223.88 75.04 221.24 70.32C218.68 65.6 217.4 60.16 217.4 54C217.4 47.84 218.72 42.4 221.36 37.68C224 32.96 227.6 29.28 232.16 26.64C236.8 23.92 242.08 22.56 248 22.56C253.36 22.56 258.2 23.96 262.52 26.76C266.84 29.48 270.24 33.44 272.72 38.64C275.28 43.84 276.56 50.04 276.56 57.24H229.4L231.2 55.56C231.2 59.24 232 62.44 233.6 65.16C235.2 67.8 237.32 69.84 239.96 71.28C242.6 72.72 245.52 73.44 248.72 73.44C252.4 73.44 255.44 72.64 257.84 71.04C260.24 69.36 262.12 67.2 263.48 64.56L275.36 69.6C273.68 72.8 271.52 75.6 268.88 78C266.32 80.4 263.24 82.24 259.64 83.52C256.12 84.8 252.08 85.44 247.52 85.44ZM232.04 48.6L230.12 46.92H263.96L262.16 48.6C262.16 45.32 261.44 42.64 260 40.56C258.56 38.4 256.72 36.8 254.48 35.76C252.32 34.64 250.04 34.08 247.64 34.08C245.24 34.08 242.84 34.64 240.44 35.76C238.04 36.8 236.04 38.4 234.44 40.56C232.84 42.64 232.04 45.32 232.04 48.6Z" fill="white"/>
<path d="M198.68 84L198.08 72.84V0H211.4V84H198.68ZM179.12 85.44C173.68 85.44 168.92 84.16 164.84 81.6C160.84 78.96 157.68 75.28 155.36 70.56C153.12 65.84 152 60.32 152 54C152 47.6 153.12 42.08 155.36 37.44C157.68 32.72 160.84 29.08 164.84 26.52C168.92 23.88 173.68 22.56 179.12 22.56C184.16 22.56 188.48 23.88 192.08 26.52C195.76 29.08 198.56 32.72 200.48 37.44C202.4 42.08 203.36 47.6 203.36 54C203.36 60.32 202.4 65.84 200.48 70.56C198.56 75.28 195.76 78.96 192.08 81.6C188.48 84.16 184.16 85.44 179.12 85.44ZM182.48 73.2C185.52 73.2 188.2 72.4 190.52 70.8C192.92 69.12 194.76 66.84 196.04 63.96C197.4 61.08 198.08 57.76 198.08 54C198.08 50.24 197.4 46.92 196.04 44.04C194.76 41.16 192.92 38.92 190.52 37.32C188.2 35.72 185.48 34.92 182.36 34.92C179.16 34.92 176.32 35.72 173.84 37.32C171.36 38.92 169.4 41.16 167.96 44.04C166.6 46.92 165.88 50.24 165.8 54C165.88 57.76 166.6 61.08 167.96 63.96C169.4 66.84 171.36 69.12 173.84 70.8C176.4 72.4 179.28 73.2 182.48 73.2Z" fill="white"/>
<path d="M93.4183 55.9797C95.8284 55.9799 97.7824 57.9088 97.7824 60.2885C97.7824 62.6682 95.8285 64.5971 93.4183 64.5973C91.008 64.5973 89.0531 62.6683 89.0531 60.2885C89.0532 57.9087 91.008 55.9797 93.4183 55.9797Z" fill="#7F5CFF"/>
<path d="M118.442 55.9797C120.852 55.9797 122.807 57.9087 122.807 60.2885C122.807 62.6683 120.852 64.5973 118.442 64.5973C116.032 64.5971 114.078 62.6682 114.078 60.2885C114.078 57.9088 116.032 55.9799 118.442 55.9797Z" fill="#7F5CFF"/>
<path fill-rule="evenodd" clip-rule="evenodd" d="M135.865 8C139.876 8.00019 143.128 11.2106 143.128 15.1712C143.128 18.2874 141.115 20.9386 138.303 21.928V39.8034C141.937 42.9675 146.606 57.366 145.935 66.8542C145.263 76.3424 127.342 88.6264 106.778 87.9751C86.2122 87.3237 66.9101 77.9217 66.1216 67.6398C65.1363 54.7896 70.3784 42.0779 73.2504 39.8034C73.9399 39.2525 73.2752 27.6658 73.2515 21.8325C70.5728 20.7764 68.679 18.1929 68.679 15.1712C68.6792 11.2105 71.9319 8 75.9435 8C79.9547 8.00038 83.2067 11.2108 83.2069 15.1712C83.2069 18.2416 81.2516 20.8597 78.5042 21.8824V33.1335C84.1912 27.4998 93.4488 21.5233 105.526 21.5232C117.604 21.5233 124.599 23.4993 133.265 33.6272V21.8683C130.538 20.8355 128.601 18.2273 128.601 15.1712C128.601 11.2106 131.853 8.00006 135.865 8ZM125.842 44.6645C116.578 49.1713 95.499 48.7247 85.9206 45.2917C84.009 46.1344 80.4799 60.0689 81.0487 65.3872C83.375 67.9298 91.7449 71.3359 106.993 71.43C122.242 71.524 128.525 67.4362 130.819 65.3872C131.772 56.4792 127.007 45.2931 125.842 44.6645Z" fill="#7F5CFF"/>
<path d="M29.16 109.56C24.92 109.56 21.08 109.2 17.64 108.48C14.28 107.76 11.44 106.92 9.12 105.96C6.8 105 5 104.08 3.72 103.2L8.88 92.4C10 92.96 11.48 93.64 13.32 94.44C15.24 95.32 17.48 96.08 20.04 96.72C22.6 97.36 25.48 97.68 28.68 97.68C32.12 97.68 35.2 96.96 37.92 95.52C40.64 94.16 42.76 92.04 44.28 89.16C45.8 86.28 46.56 82.6 46.56 78.12V24H60V77.76C60 84.56 58.72 90.32 56.16 95.04C53.6 99.84 50 103.44 45.36 105.84C40.72 108.32 35.32 109.56 29.16 109.56ZM27.12 82.8C21.68 82.8 16.92 81.56 12.84 79.08C8.84 76.6 5.68 73.16 3.36 68.76C1.12 64.28 0 59.12 0 53.28C0 47.04 1.12 41.64 3.36 37.08C5.68 32.52 8.84 28.96 12.84 26.4C16.92 23.84 21.68 22.56 27.12 22.56C32 22.56 36.24 23.84 39.84 26.4C43.52 28.96 46.36 32.56 48.36 37.2C50.36 41.76 51.36 47.16 51.36 53.4C51.36 59.32 50.36 64.48 48.36 68.88C46.36 73.28 43.52 76.72 39.84 79.2C36.24 81.6 32 82.8 27.12 82.8ZM30.84 71.4C33.88 71.4 36.52 70.6 38.76 69C41.08 67.4 42.88 65.24 44.16 62.52C45.44 59.72 46.08 56.52 46.08 52.92C46.08 49.24 45.44 46.04 44.16 43.32C42.88 40.52 41.08 38.36 38.76 36.84C36.44 35.24 33.76 34.44 30.72 34.44C27.52 34.44 24.68 35.24 22.2 36.84C19.8 38.36 17.88 40.52 16.44 43.32C15.08 46.04 14.4 49.24 14.4 52.92C14.4 56.52 15.08 59.72 16.44 62.52C17.88 65.24 19.84 67.4 22.32 69C24.8 70.6 27.64 71.4 30.84 71.4Z" fill="white"/>
</svg>
