<?xml version="1.0" encoding="UTF-8"?>
<svg version="1.1" xmlns="http://www.w3.org/2000/svg" width="512" height="512">
<path d="M0 0 C1.22673935 -0.00571014 2.4534787 -0.01142029 3.71739197 -0.01730347 C5.07392873 -0.01854872 6.43046561 -0.01967383 7.78700256 -0.02069092 C9.21788663 -0.02532101 10.64876947 -0.03034592 12.07965088 -0.03573608 C15.96392292 -0.04884108 19.84817768 -0.05530097 23.73246837 -0.05974674 C26.15941204 -0.06267968 28.58635101 -0.06678484 31.01329231 -0.07125092 C38.60746009 -0.08491895 46.20161711 -0.0945898 53.79579633 -0.09845281 C62.56120261 -0.10293626 71.32645316 -0.12050034 80.09181207 -0.1494534 C86.86898809 -0.17106235 93.64612026 -0.18115661 100.42333037 -0.18249393 C104.47058417 -0.18354224 108.51769145 -0.18945593 112.56490898 -0.20731354 C116.37099309 -0.22378138 120.1768203 -0.22595612 123.98292732 -0.21717453 C125.37892469 -0.21640354 126.7749358 -0.22075508 128.17089844 -0.23063278 C130.07816445 -0.24333608 131.98553351 -0.23568964 133.89282227 -0.22705078 C134.95967223 -0.22851734 136.0265222 -0.2299839 137.12570095 -0.2314949 C145.03586509 0.78857273 150.36066609 8.18936477 155.27552795 13.88653564 C158.88118938 18.02468879 162.61323763 22.02888221 166.38490295 26.01544189 C172.00992162 31.9857035 177.56637276 38.00356232 183.00990295 44.14044189 C183.76271545 43.92387939 184.51552795 43.70731689 185.29115295 43.48419189 C199.20514837 39.83683387 211.53870814 39.81548971 225.00990295 45.14044189 C225.72275452 45.39438721 226.43560608 45.64833252 227.1700592 45.90997314 C238.25265924 50.52961957 247.64304164 62.58696158 256.05921936 71.00445557 C257.66371306 72.60671182 259.27613233 74.20072377 260.8888092 75.79473877 C261.92184736 76.8248505 262.95441801 77.85543134 263.98646545 78.88653564 C264.90508362 79.80104492 265.82370178 80.7155542 266.77015686 81.65777588 C270.80979503 86.1355479 271.6552568 89.73678921 271.6153717 95.67169189 C270.67852045 101.03894292 268.29467526 105.70534557 265.76820374 110.50616455 C262.95053305 116.12284584 262.34188772 120.05060726 264.00990295 126.14044189 C265.92359939 131.64774991 268.12024748 137.03599329 270.36512756 142.41485596 C271.13974056 144.28319642 271.89013238 146.16002286 272.6388092 148.03887939 C273.0932843 149.13893311 273.5477594 150.23898682 274.01600647 151.37237549 C276.70750188 161.5763893 274.17486825 170.77314416 271.40834045 180.70294189 C271.01902802 182.14072292 270.63100963 183.57885485 270.24417114 185.01730347 C269.41042801 188.10752809 268.56828271 191.19528737 267.71934509 194.28137207 C266.36113627 199.21947267 265.0218656 204.16258474 263.68592834 209.10675049 C262.27099923 214.34049495 260.85513246 219.57397067 259.43319702 224.80581665 C255.96673657 237.5642989 252.55167064 250.33578166 249.1700592 263.11700439 C248.92989075 264.02466301 248.68972229 264.93232162 248.442276 265.86748505 C247.00741244 271.29151099 245.57404078 276.71593041 244.1410141 282.14044189 C241.10089787 293.6458872 238.05382478 305.14947163 234.99624252 316.65028763 C233.59894129 321.91003339 232.21204696 327.17243676 230.83009624 332.43623543 C229.85187474 336.15666065 228.86756179 339.87545855 227.8821125 343.59397507 C227.41560328 345.35957004 226.95159522 347.1258282 226.4903698 348.89281082 C217.20864773 384.43147896 201.10790497 403.43824075 171.18177795 423.63262939 C165.68569345 427.34511866 160.25576849 431.14953985 154.82240295 434.95294189 C143.85862625 442.6077019 132.75276343 450.03816046 121.60414124 457.42022705 C118.78847227 459.28727049 115.98037238 461.16528867 113.17445374 463.04693604 C110.83631476 464.61197534 108.49074915 466.16570445 106.14515686 467.71954346 C104.52472629 468.79785422 102.90783733 469.88148943 101.2926178 470.96759033 C98.24652301 473.01423968 95.19129706 475.04671281 92.13490295 477.07794189 C91.17124817 477.72964355 90.20759338 478.38134521 89.21473694 479.05279541 C82.15954482 483.71536247 75.23719528 487.56442428 66.57240295 487.57794189 C65.33683655 487.6069458 65.33683655 487.6069458 64.0763092 487.63653564 C55.98388351 486.32731518 48.90611746 482.15552397 42.13490295 477.73028564 C41.32464661 477.20949936 40.51439026 476.68871307 39.67958069 476.15214539 C30.3668207 470.13698342 21.1826409 463.92856906 12.00990295 457.70294189 C10.3303887 456.56661808 8.65070133 455.43055009 6.97084045 454.29473877 C-3.66931962 447.09552629 -14.27888298 439.8518834 -24.87580872 432.58921814 C-27.671851 430.67328284 -30.46911827 428.75913925 -33.26646423 426.84510803 C-36.513855 424.61914753 -39.75266161 422.38084668 -42.99009705 420.14044189 C-43.72067322 419.63593506 -44.45124939 419.13142822 -45.20396423 418.6116333 C-64.31060174 405.389316 -80.22241111 391.42269099 -87.74009705 368.52716064 C-87.99123764 367.76597931 -88.24237823 367.00479797 -88.50112915 366.22055054 C-92.26514702 354.49689298 -95.2011573 342.52779995 -98.26423645 330.60673141 C-99.18596565 327.02622675 -100.11539454 323.44772413 -101.04478455 319.86920166 C-101.32823258 318.77776021 -101.32823258 318.77776021 -101.61740685 317.66426945 C-102.0022864 316.18238672 -102.38720161 314.70051325 -102.77215195 313.21864891 C-103.35564566 310.97155381 -103.9383937 308.72426636 -104.52101135 306.47694397 C-108.10968251 292.64117814 -111.76610198 278.82380588 -115.44334412 265.01135254 C-116.31479941 261.73770285 -117.18445906 258.46357956 -118.05344582 255.18927383 C-121.54808328 242.02214182 -125.06072925 228.86016142 -128.61390686 215.70869446 C-130.01939456 210.50560817 -131.41832292 205.30076455 -132.81569099 200.09549236 C-133.95567306 195.85140086 -135.10438162 191.60980229 -136.2598505 187.36990261 C-136.79913733 185.38481519 -137.33380161 183.39855179 -137.86642456 181.41166687 C-138.51399668 178.99599275 -139.1687375 176.58222376 -139.83215332 174.17085266 C-141.80986391 166.72949514 -143.39953548 159.95227942 -140.6346283 152.47637939 C-140.34402527 151.67087646 -140.05342224 150.86537354 -139.75401306 150.03546143 C-139.44004578 149.20385498 -139.12607849 148.37224854 -138.80259705 147.51544189 C-138.48669617 146.64387451 -138.17079529 145.77230713 -137.84532166 144.87432861 C-136.64094531 141.55840712 -135.40815446 138.25360665 -134.16783142 134.95098877 C-133.45722431 133.05787266 -132.75463538 131.16175233 -132.05259705 129.26544189 C-131.65169861 128.21614502 -131.25080017 127.16684814 -130.8377533 126.08575439 C-128.80135235 119.00996493 -130.8403637 114.58767359 -133.92759705 108.26544189 C-140.32210264 95.16719727 -140.32210264 95.16719727 -137.97447205 88.07012939 C-135.44333371 84.33321256 -132.49817386 81.36989622 -129.24009705 78.26544189 C-127.9687176 77.02645016 -126.69916464 75.78558126 -125.4315033 74.54278564 C-124.82967224 73.95352295 -124.22784119 73.36426025 -123.60777283 72.75714111 C-121.70454999 70.85506722 -119.92135796 68.87675791 -118.17759705 66.82794189 C-106.37078754 53.01397478 -93.63269252 43.10502034 -74.99009705 41.14044189 C-68.70435331 40.85698107 -63.10505037 41.92232724 -57.0486908 43.54669189 C-53.82235683 44.17300449 -52.07137749 44.24198696 -48.99009705 43.14044189 C-46.69802431 41.36968129 -46.69802431 41.36968129 -44.61509705 39.07794189 C-43.82747986 38.25423096 -43.03986267 37.43052002 -42.2283783 36.58184814 C-39.81537652 33.9498654 -37.45870247 31.28064213 -35.1346283 28.57012939 C-32.15561866 25.19500372 -29.07074019 21.92268625 -25.99009705 18.64044189 C-21.65124945 14.01556653 -17.35067259 9.37585613 -13.22447205 4.55841064 C-9.22849707 -0.03190239 -5.92007947 0.0165126 0 0 Z " fill="#F65A10" transform="translate(188.99009704589844,16.85955810546875)"/>
<path d="M0 0 C0.77996338 -0.00999023 1.55992676 -0.01998047 2.36352539 -0.03027344 C7.239871 0.04193052 11.28085633 0.89142159 15.85253906 2.56176758 C20.42179017 4.23080054 25.09888239 5.57899495 29.75 7 C30.73097656 7.30357422 31.71195313 7.60714844 32.72265625 7.91992188 C44.61041569 11.55273252 54.04704969 13.2311105 66.40234375 10.90625 C68.16601412 10.58723125 69.92968604 10.2682211 71.69335938 9.94921875 C74.44297956 9.44411134 77.19215206 8.93663962 79.94116211 8.42822266 C82.61470354 7.9359485 85.28967771 7.45210484 87.96484375 6.96875 C88.77654526 6.81563354 89.58824677 6.66251709 90.42454529 6.50476074 C95.44816577 5.5994011 100.14239232 5.13379121 105.25 5.4375 C107.75390625 7.30859375 107.75390625 7.30859375 109.8125 9.875 C110.49441406 10.69871094 111.17632812 11.52242187 111.87890625 12.37109375 C112.66136719 13.38300781 113.44382812 14.39492187 114.25 15.4375 C115.36938075 16.87792359 116.48920931 18.31799925 117.609375 19.7578125 C118.21080322 20.53278076 118.81223145 21.30774902 119.43188477 22.10620117 C121.13349682 24.28811248 122.85042339 26.45669046 124.57421875 28.62109375 C158.94461912 71.96340263 158.94461912 71.96340263 158.7734375 88.7734375 C157.89234046 94.94111679 154.52001724 98.14024182 150.25 102.4375 C148.58113959 104.28969241 146.91461543 106.14399157 145.25 108 C143.26137471 110.15651454 141.25650581 112.29762585 139.25 114.4375 C138.35982178 115.38737793 138.35982178 115.38737793 137.45166016 116.35644531 C132.02366819 122.14277119 126.57837507 127.91275157 121.13134766 133.68115234 C120.43444824 134.41930176 119.73754883 135.15745117 119.01953125 135.91796875 C117.98542114 137.01274536 117.98542114 137.01274536 116.93041992 138.12963867 C115.57139673 139.57292485 114.21601948 141.01965371 112.86450195 142.4699707 C109.97606773 145.56882785 107.08292733 148.63152792 104.0234375 151.5625 C98.17814839 157.3486496 98.17814839 157.3486496 96.375 165.125 C96.88416915 170.26033455 98.70326409 174.03233519 101.25 178.4375 C105.83355619 187.10909278 107.04411339 196.52310796 104.5546875 206.1171875 C100.24259913 216.58940211 91.36368524 225.92772483 82.25 232.4375 C75.54768365 234.67160545 71.00123487 234.0522775 64.71191406 230.97998047 C61.92121719 229.54289947 59.1545834 228.06398435 56.39355469 226.57080078 C54.27640658 225.4514612 52.13827448 224.40140076 49.9765625 223.37109375 C38.36261545 217.82963978 29.53065275 210.84824207 20.125 202.08984375 C17.10461254 199.30337217 14.01592061 196.61701604 10.87109375 193.97265625 C7.84419992 191.10622427 6.31956812 189.35927762 6 185.125 C8.88979404 176.60010758 20.57134727 171.44648558 27.8125 166.6875 C29.93274741 165.28193723 32.05253764 163.87568458 34.171875 162.46875 C35.20248047 161.78554687 36.23308594 161.10234375 37.29492188 160.3984375 C41.39520742 157.67756064 45.48841971 154.94746942 49.5625 152.1875 C50.20711182 151.75856445 50.85172363 151.32962891 51.51586914 150.88769531 C54.67605418 148.73508671 57.37340679 146.81536778 59.25 143.4375 C59.60868159 141.30777179 59.60868159 141.30777179 59.4375 139.1875 C59.375625 137.95 59.31375 136.7125 59.25 135.4375 C58.59 135.4375 57.93 135.4375 57.25 135.4375 C56.55777344 134.03564453 56.55777344 134.03564453 55.8515625 132.60546875 C51.52556896 123.88263747 47.07691425 115.23539103 42.48876953 106.6472168 C42.08126465 105.88062744 41.67375977 105.11403809 41.25390625 104.32421875 C40.70972046 103.30654419 40.70972046 103.30654419 40.15454102 102.26831055 C38.14805841 98.20714642 37.86973649 94.92460943 38.25 90.4375 C42.16469845 82.44499066 48.89002572 78.73945008 57 75.875 C58.21558594 75.47023438 59.43117188 75.06546875 60.68359375 74.6484375 C63.88824607 73.56032992 66.95742131 72.34112064 70.0625 71 C75.61018815 68.63723295 81.24960124 66.64646681 86.94555664 64.67919922 C92.30993756 62.81138025 97.53602527 60.71266885 102.734375 58.41796875 C105.23655528 57.4427401 107.60611862 56.87973196 110.25 56.4375 C110.25 55.7775 110.25 55.1175 110.25 54.4375 C75.39558248 50.65976571 75.39558248 50.65976571 41.26611328 56.77050781 C39.29257263 57.42341567 37.31178828 58.00023638 35.30859375 58.5546875 C28.49485804 60.18160946 28.49485804 60.18160946 23.25 64.4375 C21.90243616 72.46310849 24.00787132 80.95472066 25.5625 88.8125 C25.77583984 89.94171875 25.98917969 91.0709375 26.20898438 92.234375 C27.51013087 99.02364091 28.99328042 105.75617414 30.56958008 112.48632812 C36.2907493 137.30064228 36.2907493 137.30064228 34.25 144.4375 C24.15515135 153.06597155 7.43054049 153.47965495 -5.23828125 152.67382812 C-9.72547522 152.25162714 -14.13686566 151.53117599 -18.5625 150.6875 C-19.39241455 150.53087891 -20.2223291 150.37425781 -21.07739258 150.21289062 C-26.0999187 149.13696628 -29.82742093 147.81838958 -33.75 144.4375 C-36.80246227 135.69400639 -31.59874844 120.65856875 -29.34375 111.9140625 C-27.61231061 105.09284875 -26.25596311 98.21373145 -24.96020508 91.29980469 C-24.56011812 89.17484927 -24.14841628 87.05234407 -23.73632812 84.9296875 C-21.59410809 75.22606535 -21.59410809 75.22606535 -21.75 65.4375 C-26.53203035 59.3377934 -34.27991263 58.01650944 -41.5 56.125 C-42.16205444 55.94874084 -42.82410889 55.77248169 -43.50622559 55.59088135 C-57.0302548 52.05802572 -69.80003165 51.4920893 -83.75 52.4375 C-84.95495117 52.51387695 -86.15990234 52.59025391 -87.40136719 52.66894531 C-94.86064118 53.15689886 -102.306972 53.74529656 -109.75 54.4375 C-109.75 55.0975 -109.75 55.7575 -109.75 56.4375 C-108.87601563 56.67533203 -108.87601563 56.67533203 -107.984375 56.91796875 C-103.27272659 58.2588624 -98.76406284 59.7941279 -94.265625 61.73828125 C-87.5201648 64.58282125 -80.65919323 67.02380804 -73.75 69.4375 C-43.09876364 80.1453555 -43.09876364 80.1453555 -38.55859375 87.3203125 C-36.57235513 92.52099528 -37.07582526 98.50316448 -39.25 103.5625 C-39.745 104.51125 -40.24 105.46 -40.75 106.4375 C-41.41 106.4375 -42.07 106.4375 -42.75 106.4375 C-42.9665625 107.20707031 -43.183125 107.97664063 -43.40625 108.76953125 C-45.24832142 113.79774365 -47.73816086 118.40313186 -50.25 123.125 C-50.99830078 124.5490918 -50.99830078 124.5490918 -51.76171875 126.00195312 C-53.65199123 129.58232177 -55.50249586 133.06624379 -57.75 136.4375 C-58.30909461 140.52048226 -58.30909461 140.52048226 -57.75 144.4375 C-53.40652189 149.88082879 -47.20894443 153.29956475 -41.4375 157.0625 C-39.2767348 158.48605529 -37.11658014 159.91053773 -34.95703125 161.3359375 C-33.37269287 162.37959473 -33.37269287 162.37959473 -31.75634766 163.44433594 C-27.04658003 166.56684226 -22.39422052 169.76976524 -17.7487793 172.98681641 C-14.98367515 174.90144446 -12.20948993 176.78755204 -9.3828125 178.609375 C-6.75 180.4375 -6.75 180.4375 -5.75 182.4375 C-5.29829328 185.72850611 -5.05434866 188.27465846 -6.80859375 191.20703125 C-10.01244666 195.05339125 -13.74500404 198.32724725 -17.55859375 201.5546875 C-19.10136326 202.88020426 -20.61200998 204.24357256 -22.09765625 205.6328125 C-22.91105469 206.39335937 -23.72445312 207.15390625 -24.5625 207.9375 C-25.29082031 208.6284375 -26.01914063 209.319375 -26.76953125 210.03125 C-34.90270348 216.59748079 -44.1107845 221.39892218 -53.47558594 225.94702148 C-55.38864416 226.881666 -57.28754636 227.84178503 -59.1875 228.80273438 C-72.01713975 235.15292866 -72.01713975 235.15292866 -78.75 233.4375 C-81.96484375 231.734375 -81.96484375 231.734375 -84.75 229.4375 C-86.14412109 228.30054688 -86.14412109 228.30054688 -87.56640625 227.140625 C-92.94573632 222.33519217 -97.58590606 217.96500089 -100.75 211.4375 C-101.33394531 210.30054688 -101.33394531 210.30054688 -101.9296875 209.140625 C-105.34178813 201.75166226 -106.23207763 194.31813494 -103.84375 186.453125 C-102.89754496 184.06057796 -101.89208877 181.74207199 -100.75 179.4375 C-100.09 179.4375 -99.43 179.4375 -98.75 179.4375 C-98.62625 178.715625 -98.5025 177.99375 -98.375 177.25 C-97.75 174.4375 -97.75 174.4375 -96.6875 172.125 C-95.42659176 168.51039637 -95.17608796 165.19401517 -95.75 161.4375 C-98.25585995 156.31682966 -102.41577885 152.66886034 -106.453125 148.73046875 C-108.5087653 146.67832444 -110.42390779 144.57980145 -112.3125 142.375 C-114.68731602 139.6052954 -117.15017817 136.99740134 -119.75 134.4375 C-122.28814799 131.93810236 -124.69128303 129.39968208 -127 126.6875 C-130.08564319 123.09230106 -133.38219764 119.76438319 -136.75 116.4375 C-141.30055945 111.93675395 -145.6135287 107.32509524 -149.75 102.4375 C-150.30558594 101.82132812 -150.86117187 101.20515625 -151.43359375 100.5703125 C-156.53511928 94.86932714 -157.95337054 90.783925 -158.11328125 83.1328125 C-157.31360463 77.19972789 -154.15365352 72.23095579 -150.87109375 67.33984375 C-150.31870529 66.51222786 -150.31870529 66.51222786 -149.75515747 65.66789246 C-148.57208422 63.89937689 -147.38038935 62.13690629 -146.1875 60.375 C-145.3649769 59.15295054 -144.54263068 57.93078201 -143.72045898 56.70849609 C-141.40800945 53.27724718 -139.08135347 49.85593332 -136.75 46.4375 C-136.20762695 45.64134277 -135.66525391 44.84518555 -135.10644531 44.02490234 C-129.91508202 36.45094946 -124.28962244 29.35806503 -118.29296875 22.4140625 C-116.07960199 19.82330141 -113.95492443 17.19803646 -111.875 14.5 C-111.05902344 13.45199219 -111.05902344 13.45199219 -110.2265625 12.3828125 C-109.27480088 11.12890434 -108.35025474 9.85362965 -107.4609375 8.5546875 C-105.38125052 5.66996041 -104.23411162 4.52641846 -100.6875 3.875 C-97.45226267 4.33717676 -94.51281634 4.97839486 -91.36328125 5.8046875 C-84.62067547 7.51245968 -77.83741007 8.85782042 -71 10.125 C-69.83339844 10.34994141 -68.66679687 10.57488281 -67.46484375 10.80664062 C-58.52842781 12.47146556 -51.38666515 13.18807677 -42.5 10.6875 C-41.85305176 10.50703125 -41.20610352 10.3265625 -40.53955078 10.140625 C-33.53481714 8.15551967 -26.58106929 5.91137646 -19.78515625 3.296875 C-13.11592257 0.90839787 -7.0311205 0.05205701 0 0 Z " fill="#F7F6F6" transform="translate(255.75,90.5625)"/>
<path d="M0 0 C1.22673935 -0.00571014 2.4534787 -0.01142029 3.71739197 -0.01730347 C5.07392873 -0.01854872 6.43046561 -0.01967383 7.78700256 -0.02069092 C9.21788663 -0.02532101 10.64876947 -0.03034592 12.07965088 -0.03573608 C15.96392292 -0.04884108 19.84817768 -0.05530097 23.73246837 -0.05974674 C26.15941204 -0.06267968 28.58635101 -0.06678484 31.01329231 -0.07125092 C38.60746009 -0.08491895 46.20161711 -0.0945898 53.79579633 -0.09845281 C62.56120261 -0.10293626 71.32645316 -0.12050034 80.09181207 -0.1494534 C86.86898809 -0.17106235 93.64612026 -0.18115661 100.42333037 -0.18249393 C104.47058417 -0.18354224 108.51769145 -0.18945593 112.56490898 -0.20731354 C116.37099309 -0.22378138 120.1768203 -0.22595612 123.98292732 -0.21717453 C125.37892469 -0.21640354 126.7749358 -0.22075508 128.17089844 -0.23063278 C130.07816445 -0.24333608 131.98553351 -0.23568964 133.89282227 -0.22705078 C134.95967223 -0.22851734 136.0265222 -0.2299839 137.12570095 -0.2314949 C145.03586509 0.78857273 150.36066609 8.18936477 155.27552795 13.88653564 C158.88118938 18.02468879 162.61323763 22.02888221 166.38490295 26.01544189 C172.00992162 31.9857035 177.56637276 38.00356232 183.00990295 44.14044189 C183.76271545 43.92387939 184.51552795 43.70731689 185.29115295 43.48419189 C196.22592237 40.61779603 209.17860062 38.94054915 220.00990295 43.14044189 C220.33990295 44.13044189 220.66990295 45.12044189 221.00990295 46.14044189 C219.84072327 46.69216064 218.67154358 47.24387939 217.4669342 47.81231689 C213.20196841 49.94714472 209.4869954 52.51194492 205.69740295 55.39044189 C204.3837493 56.3711095 203.06994619 57.35157694 201.7559967 58.33184814 C201.1190387 58.81025146 200.48208069 59.28865479 199.82582092 59.78155518 C197.32184794 61.65532684 194.79244367 63.49303076 192.25990295 65.32794189 C189.50902254 67.3222274 186.76345544 69.3222898 184.0294342 71.33966064 C183.05361389 72.05766846 182.07779358 72.77567627 181.07240295 73.51544189 C180.19712952 74.16255127 179.32185608 74.80966064 178.4200592 75.47637939 C174.03282618 78.50549004 170.49041409 79.53982127 165.18177795 80.32403564 C164.5197789 80.4242099 163.85777985 80.52438416 163.17572021 80.62759399 C161.03795021 80.95026033 158.8989794 81.26406559 156.75990295 81.57794189 C153.84916591 82.0142428 150.93920312 82.45554707 148.0294342 82.89825439 C147.32267044 83.00533218 146.61590668 83.11240997 145.88772583 83.22273254 C139.57376524 84.18788463 133.31911366 85.35204058 127.0684967 86.65997314 C120.16069633 87.74510654 114.50214193 86.74187655 107.88490295 84.89044189 C107.05104065 84.66372803 106.21717834 84.43701416 105.35804749 84.20343018 C89.69664024 79.90581698 89.69664024 79.90581698 82.96888733 77.37164307 C77.45738577 75.3587 72.61577718 74.62677382 66.75990295 74.70294189 C65.92853821 74.71051514 65.09717346 74.71808838 64.24061584 74.72589111 C56.95903449 74.91890198 50.81462107 76.56610793 44.00990295 79.14044189 C41.72449236 79.93212346 39.43313581 80.70385365 37.13905334 81.47003174 C35.60310753 81.98353728 34.06952546 82.50419397 32.53895569 83.0335083 C21.79207906 86.6976285 12.49473332 88.02736905 1.22084045 85.89825439 C0.51392059 85.76982147 -0.19299927 85.64138855 -0.92134094 85.50906372 C-2.40256288 85.23836124 -3.88316451 84.96424383 -5.36314392 84.68682861 C-7.61488455 84.26548166 -9.8686121 83.85645652 -12.12290955 83.44903564 C-13.57095953 83.18283276 -15.01888098 82.91592953 -16.46665955 82.64825439 C-17.4653154 82.46687424 -17.4653154 82.46687424 -18.48414612 82.28182983 C-22.45335766 81.53121126 -26.17345939 80.44979934 -29.99009705 79.14044189 C-32.7007098 78.91380203 -35.26157996 79.0463551 -37.99009705 79.14044189 C-38.08290955 78.21231689 -38.08290955 78.21231689 -38.17759705 77.26544189 C-38.57978455 76.21356689 -38.57978455 76.21356689 -38.99009705 75.14044189 C-40.63576708 74.42350929 -42.3069456 73.76431964 -43.99009705 73.14044189 C-45.56604514 72.36523326 -47.13104085 71.56743464 -48.68540955 70.74981689 C-49.56060242 70.29002441 -50.43579529 69.83023193 -51.33750916 69.35650635 C-52.25411316 68.87270508 -53.17071716 68.38890381 -54.11509705 67.89044189 C-55.06070496 67.39826172 -56.00631287 66.90608154 -56.98057556 66.39898682 C-61.74953174 63.90624475 -66.36320389 61.30654301 -70.92759705 58.45294189 C-78.40585138 54.34583713 -87.14376433 55.24768772 -95.24009705 57.07794189 C-101.30100675 59.13180498 -105.580688 63.6653608 -109.99009705 68.14044189 C-109.99009705 64.57877941 -109.27284285 63.86601554 -107.11509705 61.14044189 C-105.30972728 58.83794132 -103.61607787 56.57941314 -101.99009705 54.14044189 C-102.5091864 54.65953125 -103.02827576 55.17862061 -103.56309509 55.71343994 C-115.5643158 67.71466064 -115.5643158 67.71466064 -117.90464783 70.05474854 C-119.12210593 71.27234916 -120.33933956 72.49017446 -121.55601501 73.70855713 C-123.35490344 75.50984407 -125.15835694 77.30572081 -126.97447205 79.08966064 C-127.5571283 79.66329346 -128.13978455 80.23692627 -128.74009705 80.82794189 C-129.3330658 81.40930908 -129.92603455 81.99067627 -130.53697205 82.58966064 C-132.70520175 84.90360471 -132.98124764 86.03796834 -133.2596283 89.26153564 C-132.94001996 93.8611165 -131.62573007 97.08324811 -129.67759705 101.20294189 C-129.36886658 101.88421143 -129.06013611 102.56548096 -128.74205017 103.26739502 C-127.3212249 106.38124577 -125.84287657 109.4150146 -124.22447205 112.43341064 C-122.80187 115.55323096 -123.06441178 117.02293497 -124.20103455 120.20684814 C-124.46142517 120.84493408 -124.7218158 121.48302002 -124.99009705 122.14044189 C-125.25048767 122.78884033 -125.5108783 123.43723877 -125.77915955 124.10528564 C-126.4218852 125.69533302 -127.06517862 127.28515093 -127.70884705 128.87481689 C-129.42715864 133.25441595 -131.07258656 137.6556563 -132.67759705 142.07794189 C-132.98721375 142.89996094 -133.29683044 143.72197998 -133.61582947 144.56890869 C-138.62059051 158.54334894 -135.91600532 169.15150002 -132.05259705 183.01544189 C-131.32690209 185.67045871 -130.60651997 188.3267617 -129.89254761 190.98495483 C-129.44959397 192.62872835 -128.99923627 194.27053011 -128.54040527 195.90994263 C-127.49194983 199.74911497 -126.70507393 203.11805945 -126.99009705 207.14044189 C-126.33009705 207.14044189 -125.67009705 207.14044189 -124.99009705 207.14044189 C-124.48373097 208.88861048 -123.98525086 210.63906452 -123.49009705 212.39044189 C-123.21165955 213.36497314 -122.93322205 214.33950439 -122.64634705 215.34356689 C-121.99009705 218.14044189 -121.99009705 218.14044189 -121.99009705 222.14044189 C-121.33009705 222.14044189 -120.67009705 222.14044189 -119.99009705 222.14044189 C-119.67782166 223.40525391 -119.36554626 224.67006592 -119.04380798 225.97320557 C-117.86962459 230.72478114 -116.69056021 235.47513486 -115.51011658 240.22515869 C-115.0026266 242.27008265 -114.49641102 244.31532335 -113.99156189 246.36090088 C-111.53521326 256.31032886 -109.07329801 266.20942282 -105.95542908 275.97613525 C-104.13532714 281.94233183 -102.65487373 288.00078303 -101.12849426 294.04754639 C-100.14454768 297.94370581 -99.14966178 301.83706524 -98.15415955 305.73028564 C-97.86577461 306.85873398 -97.86577461 306.85873398 -97.57156372 308.00997925 C-96.25281663 313.15504071 -94.88214526 318.28194069 -93.42759705 323.39044189 C-91.06281574 331.70897013 -88.90252892 340.08008999 -86.74009705 348.45294189 C-86.56106842 349.14432251 -86.38203979 349.83570313 -86.19758606 350.54803467 C-85.68405686 352.53284113 -85.17261802 354.51817316 -84.66197205 356.50372314 C-84.36387634 357.6617041 -84.06578064 358.81968506 -83.75865173 360.01275635 C-83.09502354 362.7134364 -82.50823831 365.40868601 -81.99009705 368.14044189 C-81.33009705 368.14044189 -80.67009705 368.14044189 -79.99009705 368.14044189 C-79.21085876 369.78593018 -79.21085876 369.78593018 -78.4158783 371.46466064 C-77.71199571 372.91935132 -77.00753803 374.37376382 -76.30259705 375.82794189 C-75.96292908 376.54917236 -75.62326111 377.27040283 -75.27330017 378.01348877 C-73.063888 382.53555667 -70.74577328 385.69621198 -66.99009705 389.14044189 C-66.0654085 390.3217061 -65.1482835 391.50894382 -64.24009705 392.70294189 C-58.32741004 399.48923791 -50.38628962 404.13422359 -42.99009705 409.14044189 C-41.10673252 410.42609193 -39.22393987 411.71258003 -37.34165955 412.99981689 C-33.62610189 415.53905647 -29.90566107 418.07086882 -26.1815033 420.59747314 C-20.23185437 424.6442114 -14.34515549 428.778587 -8.46153259 432.92047119 C-2.97582355 436.77430506 2.55156602 440.55456206 8.13490295 444.26544189 C8.99946106 444.84020264 9.86401917 445.41496338 10.754776 446.00714111 C13.25598747 447.66744102 15.75858237 449.32563083 18.26191711 450.98272705 C20.16608022 452.24388023 22.06920597 453.50659034 23.9723053 454.76934814 C27.53821006 457.13449012 31.10780265 459.4939874 34.67951965 461.8503418 C36.09672658 462.78622554 37.51296326 463.72358035 38.92817688 464.66247559 C40.93827845 465.99539273 42.9521433 467.32243946 44.9669342 468.64825439 C45.85502022 469.23969238 45.85502022 469.23969238 46.76104736 469.84307861 C52.92400373 473.88105876 58.82421072 477.71246418 66.38490295 477.70294189 C67.91244202 477.73581299 67.91244202 477.73581299 69.47084045 477.76934814 C78.18857091 476.22017088 85.63440994 470.61507147 92.82240295 465.70294189 C94.68164886 464.44754235 96.54102745 463.19233929 98.40052795 461.93731689 C99.33703186 461.30245361 100.27353577 460.66759033 101.23841858 460.01348877 C104.66510612 457.69763722 108.10959963 455.4094041 111.55604553 453.12310791 C120.33140469 447.29869421 129.06927054 441.41869087 137.79063416 435.51382446 C138.99832922 434.69633763 140.20642383 433.87944068 141.41496277 433.0632019 C148.25573859 428.44120527 155.01110149 423.72486358 161.66908264 418.84210205 C164.33708288 416.90259833 167.05782696 415.06428145 169.82240295 413.26544189 C190.12655287 399.82615411 210.25050931 385.31692174 216.00990295 360.14044189 C216.66990295 360.14044189 217.32990295 360.14044189 218.00990295 360.14044189 C218.12543518 359.02854492 218.24096741 357.91664795 218.36000061 356.77105713 C218.9893774 351.76125361 220.17058866 346.94008997 221.40834045 342.05059814 C221.64396698 341.10663681 221.87959351 340.16267548 222.12236023 339.19010925 C222.61938467 337.20366353 223.11872229 335.21779531 223.62025452 333.23248291 C224.38135574 330.21699599 225.13367042 327.19941624 225.88490295 324.18145752 C226.37135898 322.24187311 226.85832153 320.30241566 227.34584045 318.36309814 C227.56783112 317.47219986 227.78982178 316.58130157 228.01853943 315.66340637 C229.25134682 310.80431251 230.67009261 306.07034354 232.29258728 301.32814026 C233.47630222 297.71799854 234.39337829 294.047378 235.31459045 290.36309814 C235.52044769 289.55287704 235.72630493 288.74265594 235.93840027 287.90788269 C236.59039262 285.34035661 237.23802727 282.77176143 237.88490295 280.20294189 C240.53141888 269.71680387 243.22144715 259.25247466 246.14575195 248.83999634 C248.29666652 241.16519596 250.30862246 233.45563596 252.31788635 225.74276733 C258.08669302 203.6136272 258.08669302 203.6136272 261.25990295 192.70294189 C263.37462751 185.40957504 265.42132288 178.10111339 267.38490295 170.76544189 C267.64819397 169.80710449 267.91148499 168.84876709 268.18275452 167.86138916 C270.55217074 158.89954268 270.25909322 152.71702006 266.88490295 144.14044189 C266.5708551 143.31463623 266.25680725 142.48883057 265.9332428 141.63800049 C263.44544291 135.13366209 260.84116997 128.67467411 258.17396545 122.24200439 C255.60563293 115.39886337 255.60563293 115.39886337 256.7066803 111.97149658 C257.27056458 110.90270264 257.27056458 110.90270264 257.84584045 109.81231689 C258.25060608 109.01180908 258.6553717 108.21130127 259.07240295 107.38653564 C259.9392744 105.73793192 260.80645595 104.08949121 261.67396545 102.44122314 C264.39082538 97.06768689 266.12450749 92.23424159 266.00990295 86.14044189 C264.37868663 81.57303618 260.67149221 79.00593231 257.0528717 75.96075439 C255.17074979 74.28375858 253.60330993 72.58745425 252.00990295 70.64044189 C249.26529735 67.29755714 246.16829993 64.60836058 242.86927795 61.82403564 C241.00990295 60.14044189 241.00990295 60.14044189 238.69740295 57.14044189 C235.18302264 52.62543941 229.85995186 50.01139904 225.00990295 47.14044189 C226.49490295 46.64544189 226.49490295 46.64544189 228.00990295 46.14044189 C237.49259147 51.05874614 245.13325787 59.83459022 252.54725647 67.34161377 C254.5910276 69.40928433 256.64812877 71.46298672 258.70716858 73.51544189 C260.0185138 74.83235574 261.32908963 76.15003627 262.6388092 77.46856689 C263.55588402 78.3842746 263.55588402 78.3842746 264.4914856 79.31848145 C265.05645248 79.89298035 265.62141937 80.46747925 266.20350647 81.05938721 C266.94649742 81.80928925 266.94649742 81.80928925 267.70449829 82.57434082 C271.09165284 86.63792855 271.65006846 90.50881509 271.6153717 95.67169189 C270.67852045 101.03894292 268.29467526 105.70534557 265.76820374 110.50616455 C262.95053305 116.12284584 262.34188772 120.05060726 264.00990295 126.14044189 C265.92359939 131.64774991 268.12024748 137.03599329 270.36512756 142.41485596 C271.13974056 144.28319642 271.89013238 146.16002286 272.6388092 148.03887939 C273.0932843 149.13893311 273.5477594 150.23898682 274.01600647 151.37237549 C276.70750188 161.5763893 274.17486825 170.77314416 271.40834045 180.70294189 C271.01902802 182.14072292 270.63100963 183.57885485 270.24417114 185.01730347 C269.41042801 188.10752809 268.56828271 191.19528737 267.71934509 194.28137207 C266.36113627 199.21947267 265.0218656 204.16258474 263.68592834 209.10675049 C262.27099923 214.34049495 260.85513246 219.57397067 259.43319702 224.80581665 C255.96673657 237.5642989 252.55167064 250.33578166 249.1700592 263.11700439 C248.92989075 264.02466301 248.68972229 264.93232162 248.442276 265.86748505 C247.00741244 271.29151099 245.57404078 276.71593041 244.1410141 282.14044189 C241.10089787 293.6458872 238.05382478 305.14947163 234.99624252 316.65028763 C233.59894129 321.91003339 232.21204696 327.17243676 230.83009624 332.43623543 C229.85187474 336.15666065 228.86756179 339.87545855 227.8821125 343.59397507 C227.41560328 345.35957004 226.95159522 347.1258282 226.4903698 348.89281082 C217.20864773 384.43147896 201.10790497 403.43824075 171.18177795 423.63262939 C165.68569345 427.34511866 160.25576849 431.14953985 154.82240295 434.95294189 C143.85862625 442.6077019 132.75276343 450.03816046 121.60414124 457.42022705 C118.78847227 459.28727049 115.98037238 461.16528867 113.17445374 463.04693604 C110.83631476 464.61197534 108.49074915 466.16570445 106.14515686 467.71954346 C104.52472629 468.79785422 102.90783733 469.88148943 101.2926178 470.96759033 C98.24652301 473.01423968 95.19129706 475.04671281 92.13490295 477.07794189 C91.17124817 477.72964355 90.20759338 478.38134521 89.21473694 479.05279541 C82.15954482 483.71536247 75.23719528 487.56442428 66.57240295 487.57794189 C65.33683655 487.6069458 65.33683655 487.6069458 64.0763092 487.63653564 C55.98388351 486.32731518 48.90611746 482.15552397 42.13490295 477.73028564 C41.32464661 477.20949936 40.51439026 476.68871307 39.67958069 476.15214539 C30.3668207 470.13698342 21.1826409 463.92856906 12.00990295 457.70294189 C10.3303887 456.56661808 8.65070133 455.43055009 6.97084045 454.29473877 C-3.66931962 447.09552629 -14.27888298 439.8518834 -24.87580872 432.58921814 C-27.671851 430.67328284 -30.46911827 428.75913925 -33.26646423 426.84510803 C-36.513855 424.61914753 -39.75266161 422.38084668 -42.99009705 420.14044189 C-43.72067322 419.63593506 -44.45124939 419.13142822 -45.20396423 418.6116333 C-64.31060174 405.389316 -80.22241111 391.42269099 -87.74009705 368.52716064 C-87.99123764 367.76597931 -88.24237823 367.00479797 -88.50112915 366.22055054 C-92.26514702 354.49689298 -95.2011573 342.52779995 -98.26423645 330.60673141 C-99.18596565 327.02622675 -100.11539454 323.44772413 -101.04478455 319.86920166 C-101.32823258 318.77776021 -101.32823258 318.77776021 -101.61740685 317.66426945 C-102.0022864 316.18238672 -102.38720161 314.70051325 -102.77215195 313.21864891 C-103.35564566 310.97155381 -103.9383937 308.72426636 -104.52101135 306.47694397 C-108.10968251 292.64117814 -111.76610198 278.82380588 -115.44334412 265.01135254 C-116.31479941 261.73770285 -117.18445906 258.46357956 -118.05344582 255.18927383 C-121.54808328 242.02214182 -125.06072925 228.86016142 -128.61390686 215.70869446 C-130.01939456 210.50560817 -131.41832292 205.30076455 -132.81569099 200.09549236 C-133.95567306 195.85140086 -135.10438162 191.60980229 -136.2598505 187.36990261 C-136.79913733 185.38481519 -137.33380161 183.39855179 -137.86642456 181.41166687 C-138.51399668 178.99599275 -139.1687375 176.58222376 -139.83215332 174.17085266 C-141.80986391 166.72949514 -143.39953548 159.95227942 -140.6346283 152.47637939 C-140.34402527 151.67087646 -140.05342224 150.86537354 -139.75401306 150.03546143 C-139.44004578 149.20385498 -139.12607849 148.37224854 -138.80259705 147.51544189 C-138.48669617 146.64387451 -138.17079529 145.77230713 -137.84532166 144.87432861 C-136.64094531 141.55840712 -135.40815446 138.25360665 -134.16783142 134.95098877 C-133.45722431 133.05787266 -132.75463538 131.16175233 -132.05259705 129.26544189 C-131.65169861 128.21614502 -131.25080017 127.16684814 -130.8377533 126.08575439 C-128.80135235 119.00996493 -130.8403637 114.58767359 -133.92759705 108.26544189 C-140.32210264 95.16719727 -140.32210264 95.16719727 -137.97447205 88.07012939 C-135.44333371 84.33321256 -132.49817386 81.36989622 -129.24009705 78.26544189 C-127.9687176 77.02645016 -126.69916464 75.78558126 -125.4315033 74.54278564 C-124.82967224 73.95352295 -124.22784119 73.36426025 -123.60777283 72.75714111 C-121.70454999 70.85506722 -119.92135796 68.87675791 -118.17759705 66.82794189 C-106.37078754 53.01397478 -93.63269252 43.10502034 -74.99009705 41.14044189 C-68.70435331 40.85698107 -63.10505037 41.92232724 -57.0486908 43.54669189 C-53.82235683 44.17300449 -52.07137749 44.24198696 -48.99009705 43.14044189 C-46.69802431 41.36968129 -46.69802431 41.36968129 -44.61509705 39.07794189 C-43.82747986 38.25423096 -43.03986267 37.43052002 -42.2283783 36.58184814 C-39.81537652 33.9498654 -37.45870247 31.28064213 -35.1346283 28.57012939 C-32.15561866 25.19500372 -29.07074019 21.92268625 -25.99009705 18.64044189 C-21.65124945 14.01556653 -17.35067259 9.37585613 -13.22447205 4.55841064 C-9.22849707 -0.03190239 -5.92007947 0.0165126 0 0 Z " fill="#F35622" transform="translate(188.99009704589844,16.85955810546875)"/>
<path d="M0 0 C11.08129877 1.51152803 20.49578362 14.18582954 28.03466797 21.77392578 C30.01695629 23.76704897 32.00986415 25.74911202 34.00390625 27.73046875 C35.2740802 29.00196246 36.54363459 30.27407545 37.8125 31.546875 C38.70146973 32.42977203 38.70146973 32.42977203 39.60839844 33.33050537 C43.67070588 37.43953174 46.26595547 40.6724197 46.625 46.625 C46.58039625 53.26203869 43.79152024 58.60197769 40.75830078 64.36572266 C37.9406301 69.98240395 37.33198476 73.91016537 39 80 C40.91369644 85.50730801 43.11034452 90.8955514 45.35522461 96.27441406 C46.1298376 98.14275453 46.88022943 100.01958097 47.62890625 101.8984375 C48.08338135 102.99849121 48.53785645 104.09854492 49.00610352 105.23193359 C51.69759893 115.4359474 49.1649653 124.63270226 46.3984375 134.5625 C46.00912506 136.00028102 45.62110668 137.43841296 45.23426819 138.87686157 C44.40052506 141.9670862 43.55837976 145.05484547 42.70944214 148.14093018 C41.35123331 153.07903078 40.01196265 158.02214284 38.67602539 162.96630859 C37.26109628 168.20005305 35.84522951 173.43352877 34.42329407 178.66537476 C30.95683362 191.42385701 27.54176769 204.19533977 24.16015625 216.9765625 C23.79990356 218.33805042 23.79990356 218.33805042 23.43237305 219.72704315 C21.99750948 225.1510691 20.56413783 230.57548852 19.13111115 236 C16.09099492 247.5054453 13.04392183 259.00902974 9.98633957 270.50984573 C8.58903834 275.7695915 7.20214401 281.03199487 5.82019329 286.29579353 C4.84197178 290.01621876 3.85765883 293.73501665 2.87220955 297.45353317 C2.40570033 299.21912814 1.94169226 300.98538631 1.48046684 302.75236893 C-7.80125522 338.29103707 -23.90199799 357.29779886 -53.828125 377.4921875 C-59.3242095 381.20467676 -64.75413446 385.00909795 -70.1875 388.8125 C-81.15127671 396.46726 -92.25713953 403.89771857 -103.40576172 411.27978516 C-106.22143068 413.14682859 -109.02953058 415.02484677 -111.83544922 416.90649414 C-114.1735882 418.47153345 -116.51915381 420.02526256 -118.86474609 421.57910156 C-120.48517666 422.65741232 -122.10206562 423.74104754 -123.71728516 424.82714844 C-126.76337994 426.87379779 -129.8186059 428.90627091 -132.875 430.9375 C-133.83865479 431.58920166 -134.80230957 432.24090332 -135.79516602 432.91235352 C-142.85035813 437.57492057 -149.77270768 441.42398238 -158.4375 441.4375 C-159.67306641 441.46650391 -159.67306641 441.46650391 -160.93359375 441.49609375 C-169.02601945 440.18687329 -176.1037855 436.01508207 -182.875 431.58984375 C-183.68525635 431.06905746 -184.4955127 430.54827118 -185.33032227 430.01170349 C-194.64308225 423.99654153 -203.82726205 417.78812716 -213 411.5625 C-214.67951425 410.42617619 -216.35920162 409.2901082 -218.0390625 408.15429688 C-228.67922257 400.9550844 -239.28878594 393.7114415 -249.88571167 386.44877625 C-252.68175395 384.53284095 -255.47902122 382.61869735 -258.27636719 380.70466614 C-261.52375796 378.47870564 -264.76256457 376.24040479 -268 374 C-268.73057617 373.49549316 -269.46115234 372.99098633 -270.21386719 372.47119141 C-289.3205047 359.24887411 -305.23231407 345.2822491 -312.75 322.38671875 C-313.00114059 321.62553741 -313.25228119 320.86435608 -313.5110321 320.08010864 C-317.27504997 308.35645108 -320.21106025 296.38735806 -323.2741394 284.46628952 C-324.19586861 280.88578486 -325.12529749 277.30728223 -326.0546875 273.72875977 C-326.33813554 272.63731832 -326.33813554 272.63731832 -326.6273098 271.52382755 C-327.01218936 270.04194483 -327.39710456 268.56007136 -327.7820549 267.07820702 C-328.36554861 264.83111191 -328.94829666 262.58382446 -329.53091431 260.33650208 C-333.11958547 246.50073624 -336.77600493 232.68336398 -340.45324707 218.87091064 C-341.32470236 215.59726096 -342.19436201 212.32313766 -343.06334877 209.04883194 C-346.55798623 195.88169993 -350.0706322 182.71971952 -353.62380981 169.56825256 C-355.02929751 164.36516628 -356.42822588 159.16032265 -357.82559395 153.95505047 C-358.96557601 149.71095897 -360.11428458 145.4693604 -361.26975346 141.22946072 C-361.80904029 139.2443733 -362.34370457 137.25810989 -362.87632751 135.27122498 C-363.52389963 132.85555085 -364.17864045 130.44178186 -364.84205627 128.03041077 C-366.81976687 120.58905324 -368.40943843 113.81183753 -365.64453125 106.3359375 C-365.35392822 105.53043457 -365.0633252 104.72493164 -364.76391602 103.89501953 C-364.44994873 103.06341309 -364.13598145 102.23180664 -363.8125 101.375 C-363.49659912 100.50343262 -363.18069824 99.63186523 -362.85522461 98.73388672 C-361.65084827 95.41796522 -360.41805742 92.11316476 -359.17773438 88.81054688 C-358.46712726 86.91743076 -357.76453833 85.02131043 -357.0625 83.125 C-356.66160156 82.07570313 -356.26070313 81.02640625 -355.84765625 79.9453125 C-353.8112553 72.86952304 -355.85026666 68.4472317 -358.9375 62.125 C-365.3320056 49.02675538 -365.3320056 49.02675538 -362.984375 41.9296875 C-360.45323666 38.19277066 -357.50807681 35.22945433 -354.25 32.125 C-352.97862056 30.88600826 -351.70906759 29.64513936 -350.44140625 28.40234375 C-349.8395752 27.81308105 -349.23774414 27.22381836 -348.61767578 26.61669922 C-346.71445294 24.71462532 -344.93126091 22.73631601 -343.1875 20.6875 C-337.44585891 13.94794144 -331.4051007 7.88421535 -324 3 C-323.34 3.33 -322.68 3.66 -322 4 C-322.57105469 4.49886719 -323.14210938 4.99773437 -323.73046875 5.51171875 C-330.60289915 11.59747985 -337.09548868 17.99962937 -343.54443359 24.52807617 C-346.33903216 27.35407999 -349.14902938 30.16410563 -351.984375 32.94921875 C-352.56703125 33.52285156 -353.1496875 34.09648438 -353.75 34.6875 C-354.34296875 35.26886719 -354.9359375 35.85023437 -355.546875 36.44921875 C-357.7151047 38.76316281 -357.99115059 39.89752644 -358.26953125 43.12109375 C-357.94992291 47.72067461 -356.63563303 50.94280621 -354.6875 55.0625 C-354.37876953 55.74376953 -354.07003906 56.42503906 -353.75195312 57.12695312 C-352.33112786 60.24080387 -350.85277952 63.2745727 -349.234375 66.29296875 C-347.81177295 69.41278907 -348.07431473 70.88249307 -349.2109375 74.06640625 C-349.47132813 74.70449219 -349.73171875 75.34257812 -350 76 C-350.26039063 76.64839844 -350.52078125 77.29679687 -350.7890625 77.96484375 C-351.43178815 79.55489112 -352.07508157 81.14470904 -352.71875 82.734375 C-354.43706159 87.11397405 -356.08248951 91.5152144 -357.6875 95.9375 C-357.9971167 96.75951904 -358.3067334 97.58153809 -358.62573242 98.4284668 C-363.63049347 112.40290705 -360.92590828 123.01105813 -357.0625 136.875 C-356.33680504 139.53001682 -355.61642292 142.1863198 -354.90245056 144.84451294 C-354.45949692 146.48828645 -354.00913922 148.13008821 -353.55030823 149.76950073 C-352.50185278 153.60867308 -351.71497689 156.97761755 -352 161 C-351.34 161 -350.68 161 -350 161 C-349.49363393 162.74816858 -348.99515381 164.49862263 -348.5 166.25 C-348.2215625 167.22453125 -347.943125 168.1990625 -347.65625 169.203125 C-347 172 -347 172 -347 176 C-346.34 176 -345.68 176 -345 176 C-344.68772461 177.26481201 -344.37544922 178.52962402 -344.05371094 179.83276367 C-342.87952754 184.58433924 -341.70046317 189.33469297 -340.52001953 194.0847168 C-340.01252955 196.12964075 -339.50631397 198.17488146 -339.00146484 200.22045898 C-336.54511621 210.16988696 -334.08320096 220.06898093 -330.96533203 229.83569336 C-329.14523009 235.80188993 -327.66477668 241.86034114 -326.13839722 247.90710449 C-325.15445063 251.80326391 -324.15956473 255.69662335 -323.1640625 259.58984375 C-322.87567757 260.71829208 -322.87567757 260.71829208 -322.58146667 261.86953735 C-321.26271959 267.01459882 -319.89204822 272.14149879 -318.4375 277.25 C-316.0727187 285.56852824 -313.91243187 293.9396481 -311.75 302.3125 C-311.57097137 303.00388062 -311.39194275 303.69526123 -311.20748901 304.40759277 C-310.69395982 306.39239923 -310.18252098 308.37773127 -309.671875 310.36328125 C-309.3737793 311.52126221 -309.07568359 312.67924316 -308.76855469 313.87231445 C-308.10492649 316.57299451 -307.51814126 319.26824411 -307 322 C-306.34 322 -305.68 322 -305 322 C-304.22076172 323.64548828 -304.22076172 323.64548828 -303.42578125 325.32421875 C-302.72189866 326.77890943 -302.01744098 328.23332193 -301.3125 329.6875 C-300.97283203 330.40873047 -300.63316406 331.12996094 -300.28320312 331.87304688 C-298.07379096 336.39511477 -295.75567624 339.55577008 -292 343 C-291.07531146 344.18126421 -290.15818645 345.36850193 -289.25 346.5625 C-283.33731299 353.34879601 -275.39619258 357.9937817 -268 363 C-266.11663547 364.28565004 -264.23384282 365.57213814 -262.3515625 366.859375 C-258.63600485 369.39861458 -254.91556403 371.93042693 -251.19140625 374.45703125 C-245.24175733 378.50376951 -239.35505844 382.63814511 -233.47143555 386.7800293 C-227.98572651 390.63386316 -222.45833693 394.41412016 -216.875 398.125 C-216.01044189 398.69976074 -215.14588379 399.27452148 -214.25512695 399.86669922 C-211.75391548 401.52699913 -209.25132059 403.18518894 -206.74798584 404.84228516 C-204.84382273 406.10343833 -202.94069698 407.36614844 -201.03759766 408.62890625 C-197.4716929 410.99404822 -193.9021003 413.35354551 -190.3303833 415.7098999 C-188.91317638 416.64578365 -187.49693969 417.58313846 -186.08172607 418.52203369 C-184.07162451 419.85495084 -182.05775966 421.18199757 -180.04296875 422.5078125 C-179.15488274 423.09925049 -179.15488274 423.09925049 -178.24885559 423.70263672 C-172.08589922 427.74061687 -166.18569224 431.57202228 -158.625 431.5625 C-157.09746094 431.59537109 -157.09746094 431.59537109 -155.5390625 431.62890625 C-146.82133205 430.07972898 -139.37549301 424.47462957 -132.1875 419.5625 C-130.3282541 418.30710045 -128.46887551 417.0518974 -126.609375 415.796875 C-125.67287109 415.16201172 -124.73636719 414.52714844 -123.77148438 413.87304688 C-120.34479683 411.55719532 -116.90030333 409.26896221 -113.45385742 406.98266602 C-104.67849826 401.15825232 -95.94063242 395.27824898 -87.2192688 389.37338257 C-86.01157374 388.55589573 -84.80347912 387.73899878 -83.59494019 386.92276001 C-76.75416437 382.30076337 -69.99880146 377.58442168 -63.34082031 372.70166016 C-60.67282008 370.76215644 -57.952076 368.92383955 -55.1875 367.125 C-34.88335008 353.68571221 -14.75939365 339.17647984 -9 314 C-8.34 314 -7.68 314 -7 314 C-6.88446777 312.88810303 -6.76893555 311.77620605 -6.64990234 310.63061523 C-6.02052555 305.62081171 -4.83931429 300.79964807 -3.6015625 295.91015625 C-3.36593597 294.96619492 -3.13030945 294.02223358 -2.88754272 293.04966736 C-2.39051829 291.06322164 -1.89118066 289.07735341 -1.38964844 287.09204102 C-0.62854722 284.0765541 0.12376746 281.05897435 0.875 278.04101562 C1.36145603 276.10143122 1.84841857 274.16197377 2.3359375 272.22265625 C2.55792816 271.33175797 2.77991882 270.44085968 3.00863647 269.52296448 C4.24144386 264.66387062 5.66018965 259.92990164 7.28268433 255.18769836 C8.46639927 251.57755664 9.38347534 247.9069361 10.3046875 244.22265625 C10.51054474 243.41243515 10.71640198 242.60221405 10.92849731 241.7674408 C11.58048966 239.19991471 12.22812432 236.63131953 12.875 234.0625 C15.52151592 223.57636197 18.21154419 213.11203276 21.135849 202.69955444 C23.28676357 195.02475407 25.29871951 187.31519407 27.3079834 179.60232544 C33.07679006 157.47318531 33.07679006 157.47318531 36.25 146.5625 C38.36472456 139.26913314 40.41141993 131.9606715 42.375 124.625 C42.76993652 123.1874939 42.76993652 123.1874939 43.17285156 121.72094727 C45.54226778 112.75910078 45.24919027 106.57657816 41.875 98 C41.56095215 97.17419434 41.2469043 96.34838867 40.92333984 95.49755859 C38.43553996 88.9932202 35.83126702 82.53423222 33.1640625 76.1015625 C30.59572998 69.25842148 30.59572998 69.25842148 31.69677734 65.83105469 C32.26066162 64.76226074 32.26066162 64.76226074 32.8359375 63.671875 C33.24070312 62.87136719 33.64546875 62.07085937 34.0625 61.24609375 C34.92937144 59.59749002 35.79655299 57.94904931 36.6640625 56.30078125 C39.38092243 50.927245 41.11460453 46.0937997 41 40 C39.36878367 35.43259429 35.66158926 32.86549041 32.04296875 29.8203125 C30.16084684 28.14331668 28.59340697 26.44701236 27 24.5 C24.25539439 21.15711524 21.15839698 18.46791869 17.859375 15.68359375 C16 14 16 14 13.6875 11 C10.67150826 7.1148162 6.39485705 4.91000032 2.23046875 2.41796875 C1.49441406 1.95003906 0.75835937 1.48210937 0 1 C0 0.67 0 0.34 0 0 Z " fill="#020100" transform="translate(414,63)"/>
<path d="M0 0 C0.91676514 0.36351562 1.83353027 0.72703125 2.77807617 1.1015625 C10.33007352 4.14649813 17.54130244 7.65128041 24.75 11.4375 C26.81525313 12.47315776 28.88591285 13.49738096 30.95751953 14.52026367 C33.64043319 15.84865133 36.3123375 17.19826598 38.98339844 18.55029297 C40.55737104 19.34075959 42.14133623 20.11125731 43.7265625 20.87890625 C44.53867187 21.29011719 45.35078125 21.70132812 46.1875 22.125 C46.86683594 22.45886719 47.54617188 22.79273438 48.24609375 23.13671875 C50.37088927 24.9745289 50.43011075 26.72069413 50.75 29.4375 C44.18163052 34.56562899 37.57812054 39.59665785 30.75 44.375 C23.72074778 49.32676518 17.23233949 54.7985454 10.75 60.4375 C6.61876085 64.00991327 2.477687 67.57037192 -1.68554688 71.10546875 C-3.10385642 72.31306813 -4.51338786 73.5309585 -5.921875 74.75 C-6.69015625 75.389375 -7.4584375 76.02875 -8.25 76.6875 C-8.889375 77.22890625 -9.52875 77.7703125 -10.1875 78.328125 C-13.09772691 79.89347432 -14.98832808 79.87321953 -18.25 79.4375 C-20.8203125 77.85546875 -20.8203125 77.85546875 -23.375 75.625 C-24.3340625 74.79871094 -25.293125 73.97242188 -26.28125 73.12109375 C-29.18599831 70.51955706 -32.02734837 67.85130599 -34.875 65.1875 C-46.84724781 54.00759156 -60.5343697 44.21562931 -74.16918945 35.16333008 C-79.1496166 31.79218802 -79.1496166 31.79218802 -80.1875 28.125 C-80.208125 27.238125 -80.22875 26.35125 -80.25 25.4375 C-79.17570402 24.59254811 -78.09010798 23.76195142 -77 22.9375 C-76.39671875 22.4734375 -75.7934375 22.009375 -75.171875 21.53125 C-73.25 20.4375 -73.25 20.4375 -69.25 20.4375 C-69.25 19.7775 -69.25 19.1175 -69.25 18.4375 C-65.94180248 16.82435212 -62.6277091 15.22368232 -59.3125 13.625 C-58.38630859 13.17318359 -57.46011719 12.72136719 -56.50585938 12.25585938 C-50.84189342 9.533181 -45.25589101 7.29162635 -39.25 5.4375 C-39.25 4.7775 -39.25 4.1175 -39.25 3.4375 C-36.30225601 2.24278762 -33.34051819 1.08730421 -30.375 -0.0625 C-29.55257812 -0.39636719 -28.73015625 -0.73023438 -27.8828125 -1.07421875 C-17.68532001 -4.97794634 -9.97044841 -4.09425786 0 0 Z " fill="#F9F8F7" transform="translate(271.25,314.5625)"/>
<path d="M0 0 C0 3 0 3 -2.3125 5.375 C-3.199375 6.24125 -4.08625 7.1075 -5 8 C-5.47179687 8.78761719 -5.94359375 9.57523438 -6.4296875 10.38671875 C-11.41046249 18.67562041 -19.38734145 25.49280534 -26.30200195 32.17749023 C-26.88167725 32.74540283 -27.46135254 33.31331543 -28.05859375 33.8984375 C-28.83674438 34.65133057 -28.83674438 34.65133057 -29.63061523 35.41943359 C-31.14112101 37.16288419 -32.05319576 38.90473894 -33 41 C-33.54846416 37.23910288 -33.741453 35.12893551 -31.6171875 31.89453125 C-28.36777302 28.14574787 -24.86780258 25.09424207 -21 22 C-20.00227945 20.89142161 -19.02577621 19.76363572 -18.0625 18.625 C-12.45190544 12.03756085 -6.15203804 6.07524422 0 0 Z " fill="#EE4C08" transform="translate(88,69)"/>
<path d="M0 0 C0.99 0.33 1.98 0.66 3 1 C2.28714844 1.70125 1.57429688 2.4025 0.83984375 3.125 C-4.00745088 7.91714424 -8.76054055 12.72096831 -13.19140625 17.90625 C-15.41509018 20.48053636 -17.70577054 22.98842249 -20 25.5 C-22.94268697 28.72803844 -25.87181258 31.96428162 -28.75 35.25 C-29.30042969 35.87261719 -29.85085937 36.49523438 -30.41796875 37.13671875 C-31.50485423 38.41682831 -32.54766241 39.73527472 -33.55078125 41.08203125 C-34.95385894 42.92017178 -36.20577578 44.54013252 -38 46 C-41.375 45.9375 -41.375 45.9375 -44 45 C-43.43925781 44.76539063 -42.87851563 44.53078125 -42.30078125 44.2890625 C-35.48186734 40.46861837 -30.15540084 33.29357574 -25.109375 27.39453125 C-22.14455249 24.02890866 -19.06944993 20.77008325 -16 17.5 C-11.66113438 12.87514297 -7.36057447 8.23541298 -3.234375 3.41796875 C-2.20446772 2.23487906 -1.10914612 1.10914612 0 0 Z " fill="#030100" transform="translate(179,18)"/>
<path d="M0 0 C3.64181523 0.57332346 5.28427305 1.93129028 7.8125 4.5625 C8.43769531 5.20316406 9.06289063 5.84382813 9.70703125 6.50390625 C11.60677076 8.57193614 13.45895566 10.66602208 15.30078125 12.78515625 C18.8943568 16.9105445 22.61537509 20.90122232 26.375 24.875 C31.44069354 30.25091478 36.45279689 35.66123841 41.36328125 41.1796875 C42.53881599 42.48708413 43.75678484 43.75678484 45 45 C40.04309295 44.59355129 38.24833423 42.55662661 35.0625 38.875 C34.09484085 37.77638197 33.12603547 36.67877276 32.15625 35.58203125 C31.64578125 34.9988916 31.1353125 34.41575195 30.609375 33.81494141 C27.82296438 30.67262094 24.93816097 27.62293446 22.0625 24.5625 C20.87977963 23.29727561 19.69748767 22.03165062 18.515625 20.765625 C17.93361328 20.14236328 17.35160156 19.51910156 16.75195312 18.87695312 C13.93498111 15.85899314 11.12043899 12.83886796 8.3125 9.8125 C7.81951416 9.28406494 7.32652832 8.75562988 6.81860352 8.21118164 C4.38033796 5.57802579 2.08536763 2.92230447 0 0 Z " fill="#020100" transform="translate(329,18)"/>
<path d="M0 0 C2.06578763 3.09868145 2.74691358 5.34976306 3.625 8.9375 C3.88539062 9.97777344 4.14578125 11.01804688 4.4140625 12.08984375 C5 15 5 15 5 19 C5.66 19 6.32 19 7 19 C7 19.99 7 20.98 7 22 C7.66 22 8.32 22 9 22 C9.50440793 25.58272727 10.00275771 29.16627177 10.5 32.75 C10.71462891 34.27367187 10.71462891 34.27367187 10.93359375 35.828125 C11.06894531 36.8078125 11.20429687 37.7875 11.34375 38.796875 C11.46943359 39.69760742 11.59511719 40.59833984 11.72460938 41.52636719 C12 44 12 44 12 48 C12.66 48 13.32 48 14 48 C15.32 53.61 16.64 59.22 18 65 C17.34 65 16.68 65 16 65 C15.49564306 63.0636296 14.99666126 61.12585854 14.5 59.1875 C14.2215625 58.10855469 13.943125 57.02960938 13.65625 55.91796875 C13 53 13 53 13 50 C12.34 50 11.68 50 11 50 C9.42342041 43.84610889 7.85802777 37.68944978 6.30029297 31.53076172 C5.76932351 29.43701209 5.23581884 27.34390366 4.69970703 25.25146484 C3.92850226 22.23961691 3.16651523 19.22556286 2.40625 16.2109375 C2.16563843 15.27945892 1.92502686 14.34798035 1.67712402 13.38827515 C0.53531466 8.8233873 -0.30235375 4.74832823 0 0 Z " fill="#7C685F" transform="translate(51,174)"/>
<path d="M0 0 C5.57423249 2.54263236 10.95505977 5.25983567 15 10 C15 10.99 15 11.98 15 13 C13 13 13 13 10.75 10.8125 C9.8425 9.884375 8.935 8.95625 8 8 C4.25482487 4.63935992 4.25482487 4.63935992 0 2 C0 1.34 0 0.68 0 0 Z " fill="#DE5930" transform="translate(413,63)"/>
<path d="M0 0 C0.33 0 0.66 0 1 0 C1.80505929 6.11845061 -0.84610249 10.92509219 -4 16 C-4.66 16.33 -5.32 16.66 -6 17 C-4.49829538 11.01448228 -3.05773837 5.38744379 0 0 Z " fill="#E14701" transform="translate(65,134)"/>
<path d="M0 0 C-1.32 1.65 -2.64 3.3 -4 5 C-6.475 4.01 -6.475 4.01 -9 3 C-9 2.34 -9 1.68 -9 1 C-6.04335481 -0.4783226 -3.25770263 -0.06032783 0 0 Z " fill="#FF793D" transform="translate(155,144)"/>
</svg>
