<?xml version="1.0" encoding="UTF-8"?>
<svg version="1.1" xmlns="http://www.w3.org/2000/svg" width="771" height="702">
<path d="M0 0 C254.43 0 508.86 0 771 0 C771 231.66 771 463.32 771 702 C516.57 702 262.14 702 0 702 C0 470.34 0 238.68 0 0 Z " fill="#FDFCFC" transform="translate(0,0)"/>
<path d="M0 0 C1.65101873 1.7233926 3.2873581 3.46094577 4.91015625 5.2109375 C9.38411168 9.33261892 12.1996819 10.69031277 18.29296875 10.8359375 C20.25176399 10.7545928 22.21125001 10.67212195 24.16616821 10.52450562 C27.59368825 10.27099281 31.02587 10.19526154 34.4609375 10.10546875 C35.76772461 10.06856934 37.07451172 10.03166992 38.42089844 9.99365234 C58.01697249 10.02840664 74.48514306 21.87258415 88 35 C95.51382214 42.61797413 100.38362893 51.3121142 104.75 61 C105.04390625 61.64001953 105.3378125 62.28003906 105.640625 62.93945312 C109.37948453 71.51632764 110.347175 80.08747766 110.25 89.375 C110.24311157 90.74591797 110.24311157 90.74591797 110.23608398 92.14453125 C110.13453137 99.7307135 109.57312636 107.22793247 107.18359375 114.4765625 C106.91098577 118.22347212 108.60468132 119.56207642 111 122.375 C123.40906716 137.89664451 129.04479664 158.23214097 127 178 C124.69250304 196.49786561 118.91273983 211.62103677 107 226 C106.03320312 227.26457031 106.03320312 227.26457031 105.046875 228.5546875 C98.56685876 236.29608094 89.98455939 241.62844635 81 246 C80.05769531 246.4640625 79.11539062 246.928125 78.14453125 247.40625 C73.88747956 249.42614763 70.32788853 251.04118161 65.625 251.5 C61.86242122 252.59775085 61.86242122 252.59775085 60.71484375 255.515625 C59.91482756 257.76109418 59.1447213 260.01735552 58.3984375 262.28125 C51.40854072 280.86890847 35.94006147 294.62787832 18.3125 302.9375 C-1.16940437 311.75551954 -23.00228994 312.47214015 -43.3125 305.93359375 C-46.29719582 304.75603798 -49.13694753 303.4473442 -52 302 C-52.99515625 301.50757813 -53.9903125 301.01515625 -55.015625 300.5078125 C-60.93420685 297.33605966 -65.14138408 293.93851406 -69.5625 289 C-72.99019266 285.2358595 -72.99019266 285.2358595 -77.5703125 283.51953125 C-80.2220422 283.77582159 -80.2220422 283.77582159 -82.93359375 284.37890625 C-102.16574106 288.27433481 -121.77470662 281.80891243 -138.12109375 271.94140625 C-142.869064 268.73958642 -146.9541302 265.03919345 -151 261 C-151.76054687 260.25105469 -152.52109375 259.50210937 -153.3046875 258.73046875 C-169.10576998 242.24594844 -175.17629657 223.16631011 -175.1875 200.625 C-175.19974609 199.3359375 -175.21199219 198.046875 -175.22460938 196.71875 C-175.24094318 186.11266806 -175.24094318 186.11266806 -173.92578125 181.3984375 C-172.96525697 177.87246228 -172.75199206 176.38275836 -174 173 C-175.36204995 170.72053625 -176.74923604 168.55710717 -178.25 166.375 C-190.58383356 147.74988716 -195.15318359 125.67174885 -190.8125 103.625 C-189.20201567 97.10028077 -186.88895894 91.05936373 -184 85 C-183.58105469 84.09765625 -183.16210938 83.1953125 -182.73046875 82.265625 C-174.2837945 65.42096051 -158.77663704 50.51810025 -141 44 C-137.89898238 43.23282116 -134.79621133 42.50985216 -131.671875 41.84375 C-128.84906086 40.95233501 -127.74281186 40.35115185 -126 38 C-125.10153278 35.9784874 -125.10153278 35.9784874 -124.375 33.6875 C-116.11322622 12.3987346 -99.38491335 -1.51491507 -79.04296875 -10.73828125 C-53.08468637 -21.5014715 -22.66691569 -15.88681509 0 0 Z " fill="#060605" transform="translate(414,26)"/>
<path d="M0 0 C4.19565808 0.51525626 4.93080978 1.26330181 7.5625 4.4375 C8.6081543 6.77734375 8.6081543 6.77734375 9.38671875 9.375 C9.68835938 10.34252197 9.99 11.31004395 10.30078125 12.30688477 C10.61402344 13.33998779 10.92726562 14.37309082 11.25 15.4375 C14.88972152 26.86591538 19.28279831 37.67457606 24.5625 48.4375 C25.06499268 49.46327148 25.06499268 49.46327148 25.57763672 50.50976562 C47.16368721 93.96122814 84.87656954 129.53191404 129.5625 148.4375 C130.39523437 148.81519531 131.22796875 149.19289063 132.0859375 149.58203125 C139.42025088 152.81775774 146.89245362 155.12282314 154.62036133 157.20654297 C159.36515318 158.54155128 163.06366815 159.76231574 166.5625 163.4375 C167.16173462 167.16607097 167.34309414 169.33536031 165.12109375 172.47265625 C161.42789509 175.30880728 157.51735736 176.18419105 153.0625 177.375 C145.2877399 179.5910245 137.91372514 182.04060686 130.5625 185.4375 C129.44004883 185.93975098 129.44004883 185.93975098 128.29492188 186.45214844 C78.66583002 208.69901162 37.51058407 249.14552553 17.8125 300.3125 C17.06196019 302.35396829 16.31191407 304.39561819 15.5625 306.4375 C14.90141759 308.06477978 14.23501942 309.68991346 13.5625 311.3125 C11.55066418 316.2684858 9.90754127 321.33412578 8.3125 326.43701172 C7.37597213 329.35681979 6.7635315 331.2364685 4.5625 333.4375 C2.3984375 333.6328125 2.3984375 333.6328125 -0.0625 333.5625 C-0.87976563 333.54445313 -1.69703125 333.52640625 -2.5390625 333.5078125 C-3.16554687 333.48460937 -3.79203125 333.46140625 -4.4375 333.4375 C-7.07117253 328.73451334 -8.81725214 324.3429528 -10.1875 319.125 C-21.76437824 276.84226112 -50.21433342 237.15392889 -85.4375 211.4375 C-85.99324707 211.03160645 -86.54899414 210.62571289 -87.12158203 210.20751953 C-93.8835611 205.31515722 -100.82952193 200.92402215 -108.171875 196.9453125 C-110.4375 195.4375 -110.4375 195.4375 -111.4375 192.4375 C-113.84897441 191.00000901 -113.84897441 191.00000901 -116.75 189.8125 C-118.19826172 189.17441406 -118.19826172 189.17441406 -119.67578125 188.5234375 C-121.93780845 187.63398409 -124.06701044 186.94425549 -126.4375 186.4375 C-126.4375 185.7775 -126.4375 185.1175 -126.4375 184.4375 C-128.0153125 184.251875 -128.0153125 184.251875 -129.625 184.0625 C-132.89708771 183.52609218 -135.44286076 182.79869965 -138.4375 181.4375 C-138.4375 180.7775 -138.4375 180.1175 -138.4375 179.4375 C-139.860625 179.4684375 -139.860625 179.4684375 -141.3125 179.5 C-144.4375 179.4375 -144.4375 179.4375 -146.4375 178.4375 C-148.2009375 178.251875 -148.2009375 178.251875 -150 178.0625 C-155.50948131 177.40900313 -161.18791123 176.34624199 -165.5 172.6875 C-166.87206785 169.39453716 -166.87831411 166.96401286 -166.4375 163.4375 C-163.03549453 158.43225057 -157.25566116 157.53133978 -151.75 155.9375 C-144.71684808 153.86027779 -138.08432597 151.53529853 -131.4375 148.4375 C-130.32246094 147.9734375 -129.20742187 147.509375 -128.05859375 147.03125 C-94.60690876 132.30817829 -65.25314705 109.85063608 -43.4375 80.4375 C-42.68855469 79.43332031 -41.93960938 78.42914063 -41.16796875 77.39453125 C-26.32976635 56.72798989 -15.24439814 33.7174368 -8.32470703 9.23583984 C-5.87327835 0.74750815 -5.87327835 0.74750815 0 0 Z " fill="#5988AE" transform="translate(208.4375,346.5625)"/>
<path d="M0 0 C1.31613281 0.06703125 2.63226562 0.1340625 3.98828125 0.203125 C7.94877359 0.78862545 9.56704761 1.29884189 12.6875 3.75 C14.3472507 6.36117158 15.5221988 9.13993562 16.7265625 11.984375 C17.08907608 12.80553802 17.45158966 13.62670105 17.8250885 14.4727478 C18.59921766 16.23056722 19.36649819 17.99141581 20.12753296 19.75494385 C21.7208735 23.44602479 23.34799698 27.12186787 24.97325134 30.79898071 C25.77826204 32.6214362 26.58154445 34.44465612 27.3830719 36.26864624 C30.27846309 42.85529187 33.25359344 49.39175258 36.375 55.875 C36.78508301 56.73037354 37.19516602 57.58574707 37.61767578 58.46704102 C39.87450746 63.13136243 42.19485593 67.76063556 44.55561829 72.37298584 C45.93168091 75.06222712 47.30014326 77.75532025 48.66958618 80.44793701 C49.65355007 82.37114318 50.65167918 84.28646581 51.65112305 86.20166016 C55.42972035 93.54876577 58.11574905 100.61899553 59.6875 108.75 C60.3475 108.75 61.0075 108.75 61.6875 108.75 C61.63142578 106.79707031 61.63142578 106.79707031 61.57421875 104.8046875 C61.57785164 97.89493926 62.42831127 91.08788852 63.22592163 84.23590088 C65.03999539 68.60953701 66.50483835 52.9719249 67.7355957 37.28955078 C67.79296906 36.56574219 67.85034241 35.84193359 67.90945435 35.09619141 C68.06286435 33.15172877 68.21260905 31.20697792 68.36206055 29.26220703 C69.13238471 20.94871605 70.42257223 12.51919284 75.6875 5.75 C78.97737535 3.1214482 81.55856507 1.75 85.8125 1.75 C90.12740692 3.25083719 92.65711819 5.47090534 95.5 9 C98.19085752 15.23145953 96.41013541 22.40269466 95.18359375 28.85546875 C95.0248024 29.72160294 94.86601105 30.58773712 94.70240784 31.4801178 C94.18347035 34.30056383 93.65439971 37.11900075 93.125 39.9375 C92.76312159 41.89215081 92.40179953 43.84690469 92.04101562 45.80175781 C90.93372579 51.78649651 89.81195459 57.7684661 88.6875 63.75 C88.33218492 65.64339022 87.97687873 67.53678211 87.62158203 69.43017578 C85.66011294 79.87328265 83.68194852 90.31314156 81.6875 100.75 C84.77806238 99.41231239 86.47583593 98.10447664 88.46484375 95.3984375 C88.97184814 94.71982666 89.47885254 94.04121582 90.0012207 93.34204102 C90.53706787 92.61041748 91.07291504 91.87879395 91.625 91.125 C92.78176453 89.5778625 93.94067652 88.03232865 95.1015625 86.48828125 C95.69356445 85.70018066 96.28556641 84.91208008 96.89550781 84.10009766 C101.21383127 78.43685765 105.7800968 72.96947804 110.29492188 67.46289062 C112.1449354 65.18734804 113.94542053 62.87415139 115.75 60.5625 C119.85814739 55.40120465 124.35171639 50.6184002 128.85546875 45.8046875 C131.15703319 43.33964887 133.37661889 40.81877381 135.5625 38.25 C136.60357684 37.08280697 137.64517767 35.91608092 138.6875 34.75 C139.533125 33.76 140.37875 32.77 141.25 31.75 C145.96479042 29.00684921 149.83474479 28.63259253 155.25 28.8046875 C160.73270214 30.31243059 162.61487074 33.72452712 165.4296875 38.44140625 C167.4057814 43.63939238 167.09803234 48.38634767 165.625 53.6875 C165.42777344 54.45964844 165.23054687 55.23179687 165.02734375 56.02734375 C163.35217162 59.43141074 161.09207301 61.86135496 158.5534668 64.65942383 C155.7174975 67.83676324 153.18367941 71.2234567 150.625 74.625 C147.14643536 79.22063775 143.65893692 83.80529195 140.0859375 88.328125 C130.52985898 100.42885961 121.01995515 112.58529769 114.6875 126.75 C115.86183594 126.49605469 117.03617188 126.24210937 118.24609375 125.98046875 C126.87560221 124.13006216 135.50333326 122.38018698 144.20336914 120.89526367 C149.67944992 119.95189724 155.11922752 118.86586823 160.5625 117.75 C167.37570516 116.36471229 174.19774042 115.10328884 181.0625 114 C181.84093262 113.87238281 182.61936523 113.74476563 183.42138672 113.61328125 C194.90422176 111.82074046 194.90422176 111.82074046 200.5625 115.25 C201.34367187 115.7140625 202.12484375 116.178125 202.9296875 116.65625 C203.50976562 117.0171875 204.08984375 117.378125 204.6875 117.75 C205.17304996 123.57659955 204.29811956 128.01324434 200.6875 132.75 C197.78275723 134.04970791 195.81656304 134.68367132 192.7734375 135.2109375 C191.61891586 135.45319565 191.61891586 135.45319565 190.44107056 135.7003479 C187.98680792 136.20759672 185.52633987 136.66680207 183.0625 137.125 C181.43035383 137.45389187 179.79883142 137.78589539 178.16796875 138.12109375 C174.32939602 138.90287172 170.48535698 139.65007753 166.63659668 140.37988281 C159.28565567 141.77576514 151.97983788 143.32631521 144.6875 145 C143.76630371 145.21035889 142.84510742 145.42071777 141.89599609 145.63745117 C130.15535582 148.3221143 118.42120056 151.03519341 106.6875 153.75 C117.34333235 155.47239749 127.76618067 156.06824933 138.54690552 156.21359253 C150.96736691 156.38899246 163.36737231 156.65354313 175.75 157.6875 C176.68062256 157.76226563 177.61124512 157.83703125 178.57006836 157.9140625 C188.42697587 158.82087198 196.23915789 161.45940499 203.44140625 168.453125 C205.90265637 171.4307682 206.68232839 173.45521831 206.75 177.3125 C204.93131703 181.93237283 200.31856663 183.59304484 196.12109375 185.68359375 C188.27884561 188.11924078 180.91015024 186.37704036 173.14453125 184.37109375 C172.14946564 184.12333694 171.15440002 183.87558014 170.12918091 183.62031555 C166.91703362 182.81870736 163.70862906 182.00306406 160.5 181.1875 C157.19097004 180.35870527 153.88101692 179.5336714 150.57099915 178.70883179 C148.37708744 178.16186903 146.18347189 177.61371699 143.99015808 177.06436157 C134.88862386 174.78711131 125.76664069 172.60983268 116.625 170.5 C115.38532471 170.21310303 114.14564941 169.92620605 112.8684082 169.63061523 C110.14199869 169.00125991 107.41513094 168.37403613 104.6875 167.75 C107.79247038 171.47299997 110.81282564 175.08959307 114.5625 178.1875 C117.40226916 180.60076391 120.07531164 183.09171419 122.6875 185.75 C125.81773294 188.92269734 129.06185593 191.87761907 132.4375 194.78515625 C135.14324886 197.14798902 137.79320152 199.56899244 140.4375 202 C141.20271973 202.70346558 141.20271973 202.70346558 141.98339844 203.42114258 C143.0301574 204.38404967 144.07670515 205.34718641 145.12304688 206.31054688 C148.13306803 209.08006697 151.14981901 211.84225673 154.16674805 214.60424805 C156.78491254 217.00211669 159.39791292 219.40531046 162.00390625 221.81640625 C162.54724609 222.31785156 163.09058594 222.81929687 163.65039062 223.3359375 C164.691002 224.29650185 165.73014614 225.25865896 166.76757812 226.22265625 C169.0007025 228.2811742 171.15163577 230.05942385 173.6875 231.75 C174.96760314 234.67184977 175.58310589 237.56323232 175.6875 240.75 C173.8125 243.8125 173.8125 243.8125 171.6875 245.75 C167.59422789 245.19842433 165.21431777 243.98370264 161.9375 241.5 C160.9784375 240.77683594 160.019375 240.05367187 159.03125 239.30859375 C158.50144531 238.90237793 157.97164062 238.49616211 157.42578125 238.07763672 C155.53380605 236.63261409 153.62700897 235.20859703 151.71875 233.78515625 C143.2345154 227.41953047 135.09628495 220.77377179 127.13671875 213.765625 C123.17343023 210.2794296 119.10118273 206.94322943 114.99609375 203.625 C113.03152394 202.0294103 111.10552442 200.40072028 109.1875 198.75 C106.78215742 196.58949394 106.78215742 196.58949394 103.6875 195.75 C104.59628906 197.11318359 104.59628906 197.11318359 105.5234375 198.50390625 C116.2265625 214.55859375 116.2265625 214.55859375 117.46069336 216.40991211 C118.28166957 217.64129474 119.10279702 218.87257656 119.92407227 220.10375977 C122.07404089 223.32723578 124.22099726 226.55266084 126.36328125 229.78125 C126.80478516 230.44576172 127.24628906 231.11027344 127.70117188 231.79492188 C128.53548465 233.05078216 129.3688956 234.30724229 130.20117188 235.56445312 C132.21232215 238.58962874 134.27299275 241.55294879 136.4296875 244.4765625 C138.99309201 248.19305555 139.45626509 250.27945838 139.6875 254.75 C139.749375 255.50925781 139.81125 256.26851562 139.875 257.05078125 C140.18958893 263.05746355 140.18958893 263.05746355 137.875 266.25 C134.09770899 268.84014241 130.01438064 269.79211829 125.4765625 269.6875 C119.56114003 267.6991227 116.51286044 261.2906863 113.29785156 256.25341797 C111.56242734 253.55556474 109.7681891 250.90414379 107.9609375 248.25390625 C98.49766682 234.32161063 89.49012951 220.10722996 80.6875 205.75 C80.10645508 204.81124023 79.52541016 203.87248047 78.92675781 202.90527344 C78.37600586 202.00583008 77.82525391 201.10638672 77.2578125 200.1796875 C76.5155542 198.9728833 76.5155542 198.9728833 75.75830078 197.74169922 C74.6875 195.75 74.6875 195.75 74.6875 193.75 C74.0275 194.08 73.3675 194.41 72.6875 194.75 C72.12740972 197.67996026 72.12740972 197.67996026 71.84960938 201.29492188 C71.75157768 202.32219643 71.75157768 202.32219643 71.65156555 203.370224 C71.43596313 205.65233608 71.23370435 207.93543701 71.03125 210.21875 C70.88283762 211.81335522 70.73353212 213.40787755 70.58337402 215.00231934 C70.18800874 219.22341708 69.80361685 223.44544223 69.42181396 227.66778564 C68.88761741 233.55480142 68.33905712 239.44049689 67.79162598 245.32629395 C67.50044903 248.45704805 67.21345389 251.58813742 66.93005371 254.71960449 C66.60173256 258.33351637 66.25426515 261.94522133 65.89749146 265.556427 C65.75257834 267.07019101 65.61567923 268.58473619 65.48532104 270.099823 C65.28435137 272.43488922 65.06105113 274.7669547 64.83398438 277.09960938 C64.7507983 278.16386013 64.7507983 278.16386013 64.6659317 279.2496109 C64.32232962 282.56073917 63.87855475 284.50803512 61.79553223 287.14611816 C58.21271103 289.87208305 55.11595041 290.8083041 50.625 290.625 C45.72471359 289.16534022 43.42817638 286.98446064 40.8125 282.625 C37.6885411 274.22448443 41.6166343 263.65399083 43.41171265 255.2361145 C44.21283329 251.4774808 44.99650167 247.71520516 45.78125 243.953125 C45.94159225 243.18613785 46.10193451 242.4191507 46.26713562 241.62892151 C47.88273613 233.87194585 49.38750532 226.09488388 50.875 218.3125 C53.02342423 207.09728576 55.27059448 195.91041669 57.6875 184.75 C54.0486109 188.21621774 51.13225915 191.72894265 48.25 195.875 C47.37246638 197.12466293 46.49347833 198.37330539 45.61328125 199.62109375 C44.90872803 200.62052002 44.90872803 200.62052002 44.18994141 201.64013672 C40.9048933 206.25329658 37.52245918 210.7956574 34.15380859 215.34790039 C31.08333092 219.49790124 28.02508606 223.65552693 24.99609375 227.8359375 C18.91120203 236.21315551 12.81268883 244.22500098 5.6875 251.75 C4.47218273 253.11883103 3.26356308 254.49364489 2.0625 255.875 C1.505625 256.50921875 0.94875 257.1434375 0.375 257.796875 C-0.80912986 259.16739567 -1.97429468 260.55442284 -3.125 261.953125 C-8.96311521 268.94879754 -8.96311521 268.94879754 -13.3125 269.75 C-17.30072805 269.4508829 -20.00148378 267.92581066 -23.3125 265.75 C-23.33588581 257.56496492 -21.19121994 253.1375746 -15.9375 247 C-15.30263672 246.22269531 -14.66777344 245.44539062 -14.01367188 244.64453125 C-12.72708548 243.06959433 -11.43256725 241.501101 -10.12988281 239.93945312 C-7.62744714 236.9246972 -5.21870749 233.8416203 -2.8125 230.75 C-1.92886408 229.62592564 -1.04473956 228.50223522 -0.16015625 227.37890625 C7.30310299 217.87948961 14.71300381 208.33767969 22.0625 198.75 C25.60351399 194.13507194 29.21126698 189.58125686 32.859375 185.05078125 C35.54373741 181.67238497 38.12114042 178.21830479 40.6875 174.75 C33.84002411 178.40367086 27.35103145 182.47832921 20.875 186.75 C19.79694092 187.45116943 18.71888184 188.15233887 17.6081543 188.87475586 C10.87456102 193.26359848 4.21700136 197.74892869 -2.39076233 202.3253479 C-6.27220638 205.00625404 -10.17246656 207.65907451 -14.07455444 210.30981445 C-16.01098495 211.63544548 -17.938948 212.97353864 -19.8578186 214.32446289 C-38.43473309 227.38878225 -38.43473309 227.38878225 -50.38989258 226.61303711 C-53.75673591 225.61881848 -55.14043328 224.47099096 -57.3125 221.75 C-58.98139086 217.73938482 -58.9011218 214.78581913 -57.3125 210.75 C-53.1700653 206.3413165 -47.75744073 203.28561173 -42.62890625 200.16259766 C-40.55790049 198.89965084 -38.52524664 197.59629609 -36.5 196.26171875 C-22.72071266 187.27371111 -8.12580074 179.49050727 6.3478241 171.69261169 C8.85674324 170.33916874 11.36045884 168.97625465 13.86386108 167.61264038 C15.07373485 166.95740092 16.28631507 166.3071329 17.50161743 165.66201782 C19.19492434 164.76309459 20.87895832 163.8467691 22.5625 162.9296875 C24.01269531 162.15214111 24.01269531 162.15214111 25.4921875 161.35888672 C28.03188542 159.497609 28.11996895 158.72137453 28.6875 155.75 C28.07332718 155.74413376 27.45915436 155.73826752 26.82637024 155.73222351 C-0.08249201 155.46474348 -26.96082756 155.13928098 -53.8125 153.25 C-55.21778458 153.15143204 -55.21778458 153.15143204 -56.65145874 153.0508728 C-62.20830045 152.65463642 -67.76362144 152.24636116 -73.3125 151.75 C-74.12553085 151.68117615 -74.93856171 151.61235229 -75.77622986 151.54144287 C-76.58282547 151.46492493 -77.38942108 151.38840698 -78.22045898 151.30957031 C-78.95167465 151.24263977 -79.68289032 151.17570923 -80.43626404 151.10675049 C-82.3125 150.75 -82.3125 150.75 -84.50390625 149.078125 C-84.95636719 148.39234375 -85.40882813 147.7065625 -85.875 147 C-86.35066406 146.32453125 -86.82632812 145.6490625 -87.31640625 144.953125 C-88.49961386 142.33614816 -88.6299784 140.59329918 -88.3125 137.75 C-86.5 135.4375 -86.5 135.4375 -83.3125 133.75 C-73.13942426 132.6701003 -62.29783314 134.37360948 -52.125 135.125 C-48.25796293 135.40575191 -44.39073226 135.68375972 -40.5234375 135.9609375 C-39.56410812 136.02996277 -38.60477875 136.09898804 -37.61637878 136.17010498 C-31.84253479 136.58184679 -26.06812811 136.95883256 -20.2890625 137.2890625 C-19.60323593 137.32837891 -18.91740936 137.36769531 -18.21080017 137.40820312 C-17.54077469 137.44655273 -16.87074921 137.48490234 -16.18041992 137.52441406 C-1.14597113 138.38731428 13.75351831 139.81339479 28.6875 141.75 C27.56904804 138.39464411 27.07562668 138.05524529 24.24780273 136.19726562 C23.15416664 135.4700531 23.15416664 135.4700531 22.03843689 134.72814941 C21.24071365 134.20942261 20.44299042 133.6906958 19.62109375 133.15625 C18.79480972 132.60948608 17.9685257 132.06272217 17.11720276 131.49938965 C14.45809412 129.74193593 11.79187381 127.99564268 9.125 126.25 C5.66361152 123.97140563 2.20492004 121.68873117 -1.25390625 119.40625 C-2.10669159 118.84448563 -2.95947693 118.28272125 -3.83810425 117.70393372 C-16.08711473 109.62196374 -28.11135919 101.22045473 -40.10766602 92.76953125 C-44.76582025 89.49882648 -49.46345897 86.32916477 -54.25 83.25 C-59.10759001 80.03218967 -63.12646263 77.12564483 -65.125 71.4375 C-65.186875 70.550625 -65.24875 69.66375 -65.3125 68.75 C-65.40917969 68.06808594 -65.50585938 67.38617188 -65.60546875 66.68359375 C-66.01116194 62.15973201 -65.55299358 59.25169959 -62.625 55.6875 C-58.35220144 52.02633188 -54.20564273 51.63110613 -48.70703125 51.9453125 C-42.36385408 53.44898856 -38.13534727 57.55594637 -33.3125 61.75 C-31.34370157 63.28423188 -29.36409683 64.80467756 -27.375 66.3125 C-26.28968325 67.14755271 -25.20508727 67.9835428 -24.12109375 68.8203125 C-11.98575218 78.16330571 0.17817316 87.46277317 12.56640625 96.46875 C15.8080623 98.83812063 19.00483677 101.25855523 22.171875 103.7265625 C23.83512926 104.9485587 23.83512926 104.9485587 26.6875 105.75 C16.59333544 85.31413006 5.79860452 65.35832604 -5.86328125 45.76953125 C-6.44948242 44.78428467 -7.03568359 43.79903809 -7.63964844 42.78393555 C-8.76742994 40.89345768 -9.89936583 39.00544979 -11.03613281 37.12036133 C-20.93371414 20.56094641 -20.93371414 20.56094641 -19.3125 11.75 C-14.07758146 3.98519517 -9.57455211 -0.60240271 0 0 Z " fill="#D77656" transform="translate(542.3125,371.25)"/>
<path d="M0 0 C0 10.89 0 21.78 0 33 C-2.124375 34.175625 -4.24875 35.35125 -6.4375 36.5625 C-19.60953144 43.92466928 -32.46833317 51.83423893 -45.375 59.6484375 C-51.71993413 63.48373521 -58.10392088 67.2335944 -64.5625 70.875 C-65.21806885 71.2447998 -65.8736377 71.61459961 -66.54907227 71.99560547 C-68.35977549 73.00900124 -70.17798709 74.00711403 -72 75 C-72.97839844 75.53882813 -73.95679688 76.07765625 -74.96484375 76.6328125 C-82.38935155 79.97718538 -89.34294766 80.36448684 -97.375 80.375 C-98.35210937 80.39949219 -99.32921875 80.42398438 -100.3359375 80.44921875 C-107.39032628 80.47736126 -112.65911288 79.01583943 -119 76 C-120.0725 75.54238281 -121.145 75.08476562 -122.25 74.61328125 C-134.1283646 68.99467981 -141.82788321 60.87493057 -149 50 C-149.40992188 49.40703125 -149.81984375 48.8140625 -150.2421875 48.203125 C-158.35167814 35.50454275 -157.48143259 21.44853261 -157 7 C-152.75824486 8.27986684 -149.21317169 9.88540487 -145.4375 12.1953125 C-144.40101318 12.82445557 -143.36452637 13.45359863 -142.29663086 14.10180664 C-140.66479858 15.10328735 -140.66479858 15.10328735 -139 16.125 C-136.73206227 17.50394221 -134.46158418 18.87865042 -132.19140625 20.25390625 C-131.11004395 20.9102002 -130.02868164 21.56649414 -128.91455078 22.24267578 C-124.58938589 24.85052776 -120.21167137 27.34915468 -115.8046875 29.81640625 C-112.51903183 31.67468691 -109.29674243 33.63076032 -106.0703125 35.58984375 C-105.00047119 36.23236084 -103.93062988 36.87487793 -102.82836914 37.53686523 C-100.68992985 38.82229473 -98.55855959 40.119576 -96.43530273 41.42993164 C-89.2237421 45.93281075 -89.2237421 45.93281075 -81 46 C-77.68635932 44.55073653 -74.64774727 42.75560682 -71.5625 40.875 C-70.65072998 40.33657471 -69.73895996 39.79814941 -68.79956055 39.2434082 C-66.85306536 38.09321401 -64.91019597 36.93686521 -62.97070312 35.77490234 C-59.08853908 33.45543057 -55.18060897 31.18166917 -51.27124023 28.90844727 C-48.27832166 27.16762021 -45.28943581 25.42001047 -42.30078125 23.671875 C-37.86907118 21.08419928 -33.42843974 18.51269384 -28.98046875 15.953125 C-28.39582352 15.61658401 -27.81117828 15.28004303 -27.20881653 14.93330383 C-24.3830222 13.30716484 -21.55612184 11.68298954 -18.7277832 10.0612793 C-14.22343778 7.47151991 -9.75067944 4.86908402 -5.375 2.06640625 C-2 0 -2 0 0 0 Z " fill="#F8F8F8" transform="translate(417,209)"/>
<path d="M0 0 C3.40557143 1.58668669 6.74695064 3.27102747 10.07193756 5.02006912 C11.40385704 5.69701246 12.75185525 6.34289982 14.11122894 6.96287155 C26.44992322 12.61031465 26.44992322 12.61031465 28.87953186 17.92334747 C30.28611313 23.47822234 29.93924212 29.11214847 29.703125 34.7890625 C29.68338175 36.61968255 29.67021726 38.45038409 29.66326904 40.28109741 C29.63279926 44.11143174 29.55098679 47.93573402 29.42675781 51.76416016 C29.26912817 56.62575814 29.19642156 61.48343872 29.15752029 66.34729958 C29.11722425 71.03673095 29.03809505 75.72525741 28.953125 80.4140625 C28.93954201 81.28640156 28.92595901 82.15874062 28.91196442 83.05751419 C28.51840009 104.0390981 24.42701161 123.59608272 9 139 C-5.4414129 150.90490833 -22.19385763 156.74940859 -41 155 C-51.76483631 152.9134238 -62.96945579 148.7536289 -71 141 C-71 140.34 -71 139.68 -71 139 C-69.19360352 137.72583008 -69.19360352 137.72583008 -66.62890625 136.26953125 C-65.67443604 135.72135742 -64.71996582 135.17318359 -63.73657227 134.60839844 C-62.16540649 133.71942871 -62.16540649 133.71942871 -60.5625 132.8125 C-58.35332303 131.54443738 -56.14501666 130.27485704 -53.9375 129.00390625 C-53.36653091 128.67607147 -52.79556183 128.34823669 -52.20729065 128.01046753 C-46.11074146 124.50404281 -40.08507244 120.88174865 -34.0625 117.25 C-31.98974307 116.00364056 -29.91682984 114.75754102 -27.84375 113.51171875 C-26.86019531 112.92052246 -25.87664062 112.32932617 -24.86328125 111.72021484 C-20.60110194 109.1595638 -16.33696656 106.60259537 -12.0625 104.0625 C-11.01557983 103.43359863 -11.01557983 103.43359863 -9.94750977 102.79199219 C-5.23015109 100 -5.23015109 100 -3 100 C-0.58644055 95.27302333 -0.69400964 90.89190095 -0.68115234 85.71166992 C-0.67110672 84.78435059 -0.6610611 83.85703125 -0.65071106 82.90161133 C-0.61988548 79.84456995 -0.60284554 76.78761614 -0.5859375 73.73046875 C-0.56722537 71.60768379 -0.54765192 69.48490626 -0.5272522 67.36213684 C-0.4759299 61.78089786 -0.43630458 56.19963476 -0.39910889 50.61828613 C-0.35906995 44.92059361 -0.30797707 39.22300141 -0.2578125 33.52539062 C-0.16105199 22.35033089 -0.0766475 11.17521451 0 0 Z " fill="#F8F8F8" transform="translate(431,160)"/>
<path d="M0 0 C0.93183105 0.00563965 1.86366211 0.0112793 2.82373047 0.01708984 C18.04011332 0.28460154 30.20703882 5.50169777 41.8125 15.3125 C42.46863281 15.86164063 43.12476563 16.41078125 43.80078125 16.9765625 C53.02866372 25.39812515 61.23692699 39.36747266 61.96679688 51.97851562 C62.14040292 58.42734523 62.03621047 64.86619685 61.8125 71.3125 C58.00287936 69.888294 54.56846032 68.13341117 51.04296875 66.109375 C49.91826172 65.46540771 48.79355469 64.82144043 47.63476562 64.15795898 C46.4231011 63.45960448 45.21151435 62.76111501 44 62.0625 C42.74815317 61.34364624 41.49619869 60.62497992 40.24414062 59.90649414 C30.21999149 54.14798646 20.2270106 48.33586003 10.25 42.49609375 C9.37093994 41.98296631 8.49187988 41.46983887 7.58618164 40.94116211 C5.58518727 39.76620978 3.59030894 38.58081978 1.59936523 37.38891602 C0.53403564 36.75526123 -0.53129395 36.12160645 -1.62890625 35.46875 C-2.59771729 34.88802734 -3.56652832 34.30730469 -4.56469727 33.70898438 C-7.51864202 32.13618683 -9.72761917 31.21754864 -13.06640625 31.59375 C-17.05304117 32.94465392 -20.44741261 35.2914676 -23.94140625 37.58984375 C-29.32375907 41.10482249 -34.92213526 44.24606237 -40.5 47.4375 C-42.77245864 48.74292708 -45.04459015 50.04892379 -47.31640625 51.35546875 C-48.45609863 52.0107959 -49.59579102 52.66612305 -50.77001953 53.34130859 C-56.1713267 56.45676466 -61.55455368 59.60296122 -66.9375 62.75 C-80.67234131 70.76979972 -80.67234131 70.76979972 -86.5 74.125 C-87.54800781 74.72957031 -88.59601563 75.33414063 -89.67578125 75.95703125 C-92.1875 77.3125 -92.1875 77.3125 -95.1875 78.3125 C-95.41096359 73.86538354 -95.57370917 69.42128018 -95.68188477 64.97021484 C-95.72699166 63.45856802 -95.78830227 61.94731066 -95.86645508 60.43701172 C-96.49313798 48.0098488 -96.49313798 48.0098488 -93.54614258 44.17871094 C-91.17287217 42.56302567 -88.82176146 41.45124073 -86.1875 40.3125 C-84.32559763 39.2553449 -82.47297129 38.18172126 -80.62890625 37.09375 C-78.67126987 35.99642606 -76.71160565 34.90271251 -74.75 33.8125 C-68.38432254 30.26054478 -62.05871151 26.66853942 -55.82006836 22.89746094 C-50.63830564 19.77773511 -45.41410195 16.73129835 -40.1875 13.6875 C-39.07632813 13.03265625 -37.96515625 12.3778125 -36.8203125 11.703125 C-30.43846197 7.99414363 -24.16526194 4.73829887 -17.1875 2.3125 C-16.03636719 1.90644531 -14.88523437 1.50039063 -13.69921875 1.08203125 C-9.09257978 0.07256754 -4.70323336 -0.02961201 0 0 Z " fill="#F7F7F7" transform="translate(441.1875,56.6875)"/>
<path d="M0 0 C0.77150391 0.4326416 1.54300781 0.8652832 2.33789062 1.31103516 C2.94479736 1.61557617 3.5517041 1.92011719 4.17700195 2.23388672 C5.03974731 2.71293457 5.03974731 2.71293457 5.91992188 3.20166016 C6.59168457 3.57387695 7.26344727 3.94609375 7.95556641 4.32958984 C8.6798584 4.7359668 9.40415039 5.14234375 10.15039062 5.56103516 C10.92882324 5.99577148 11.70725586 6.43050781 12.50927734 6.87841797 C21.0921102 11.69608476 29.58697192 16.66400853 38.07226562 21.65087891 C42.31209058 24.13921112 46.57296809 26.58486706 50.85351562 29.00244141 C51.91876465 29.60926758 52.98401367 30.21609375 54.08154297 30.84130859 C56.09714318 31.98850036 58.11794387 33.1266272 60.14501953 34.25341797 C75.11908242 42.82415005 86.83928415 54.89977599 92.37695312 71.40869141 C96.80366571 88.10194868 95.09772528 105.68117023 86.58789062 120.74853516 C79.86976403 131.95739644 71.43623255 140.57199157 59.15771484 145.41137695 C58.25560272 145.76814011 57.3534906 146.12490326 56.42404175 146.49247742 C55.73561188 146.76260147 55.04718201 147.03272552 54.33789062 147.31103516 C54.33868622 146.29483597 54.33948181 145.27863678 54.34030151 144.23164368 C54.34390454 134.65275256 54.3161113 125.07439798 54.25761223 115.4956789 C54.2285452 110.57112815 54.21052456 105.64705393 54.21777344 100.72241211 C54.22436293 95.96934443 54.20190362 91.21721869 54.15933609 86.46434593 C54.14819804 84.6515151 54.14751106 82.83858882 54.15746689 81.02575111 C54.16963241 78.48479259 54.14457657 75.94671239 54.11083984 73.40600586 C54.12917122 72.28282959 54.12917122 72.28282959 54.14787292 71.13696289 C54.07970685 68.28616231 53.91375947 66.00150634 52.0452137 63.76110554 C48.94090232 61.12475732 45.44325639 59.03785326 41.90820312 57.03369141 C40.87824219 56.44523437 39.84828125 55.85677734 38.78710938 55.25048828 C37.69011719 54.63109375 36.593125 54.01169922 35.46289062 53.37353516 C34.29973269 52.71082091 33.13697897 52.04739676 31.97460938 51.38330078 C30.18568896 50.36125808 28.3965792 49.33957152 26.60626221 48.31997681 C20.824974 45.02658729 15.07943713 41.67317171 9.33789062 38.31103516 C-3.29804029 30.92431684 -15.97745993 23.61366318 -28.66210938 16.31103516 C-28.66210938 15.65103516 -28.66210938 14.99103516 -28.66210938 14.31103516 C-25.06452604 12.11464791 -21.45357159 9.94282 -17.82836914 7.79248047 C-16.59753631 7.05783878 -15.37058069 6.31665987 -14.14770508 5.56884766 C-12.38759596 4.49405914 -10.61481398 3.44366579 -8.83789062 2.39697266 C-7.77481689 1.75808105 -6.71174316 1.11918945 -5.61645508 0.4609375 C-2.66210938 -0.68896484 -2.66210938 -0.68896484 0 0 Z " fill="#F9F9F9" transform="translate(425.662109375,107.68896484375)"/>
<path d="M0 0 C0.01213028 1.47125336 0.01213028 1.47125336 0.02450562 2.972229 C0.10196909 12.21283725 0.18970893 21.45329829 0.28752708 30.69371414 C0.33748642 35.44437994 0.38381654 40.19502355 0.421875 44.94580078 C0.45873232 49.53001959 0.50509358 54.11405253 0.55806351 58.69811249 C0.57660506 60.4475758 0.59171392 62.19707896 0.60334396 63.94660187 C0.6202105 66.39591023 0.64924631 68.84479313 0.68115234 71.29394531 C0.68331253 72.01827255 0.68547272 72.74259979 0.68769836 73.48887634 C0.74838718 77.13242285 0.90466428 79.94972622 3 83 C5.07224416 84.59863365 5.07224416 84.59863365 7.6015625 85.9609375 C8.55385742 86.50733887 9.50615234 87.05374023 10.48730469 87.61669922 C11.52274414 88.19693848 12.55818359 88.77717773 13.625 89.375 C15.83091198 90.63509668 18.03663616 91.89552218 20.2421875 93.15625 C21.37108398 93.79691406 22.49998047 94.43757813 23.66308594 95.09765625 C28.71795082 97.97938783 33.73205274 100.92962803 38.75 103.875 C45.33655903 107.73285745 51.94598345 111.54570223 58.59375 115.296875 C59.88056152 116.02485344 61.16734552 116.75288053 62.45410156 117.48095703 C64.93636864 118.88515342 67.42330679 120.28056371 69.91308594 121.67138672 C71.04004883 122.30834473 72.16701172 122.94530273 73.328125 123.6015625 C74.82714355 124.44195068 74.82714355 124.44195068 76.35644531 125.29931641 C78.95051893 126.96816724 80.91700773 128.73714104 83 131 C77.43804038 134.9397214 71.64983874 138.47046977 65.75 141.875 C64.72229492 142.48299438 64.72229492 142.48299438 63.67382812 143.10327148 C57.13009268 146.82601854 57.13009268 146.82601854 53 146 C50.14453125 144.55859375 50.14453125 144.55859375 46.8125 142.4375 C45.47172697 141.60147456 44.12913341 140.76836476 42.78515625 139.9375 C42.03250488 139.47085938 41.27985352 139.00421875 40.50439453 138.5234375 C35.64225625 135.56577101 30.68779298 132.76630199 25.75 129.9375 C22.92888932 128.31075531 20.10869075 126.68244649 17.28910828 125.05305481 C14.31047084 123.33224786 11.32999054 121.61480137 8.34570312 119.90380859 C5.30711975 118.16059606 2.27620305 116.40463769 -0.75036621 114.64065552 C-2.44245133 113.65840678 -4.14152897 112.68823446 -5.84082031 111.71850586 C-22.22394831 102.1315928 -33.03807993 89.45325605 -38.55566406 71.1574707 C-41.27055688 57.97532352 -40.65335885 41.81238041 -34 30 C-33.60039062 29.1646875 -33.20078125 28.329375 -32.7890625 27.46875 C-27.36443624 17.0797688 -12.79470434 0 0 0 Z " fill="#FAFAFA" transform="translate(283,90)"/>
<path d="M0 0 C1.64162109 0.00362549 1.64162109 0.00362549 3.31640625 0.00732422 C16.08388266 0.2949308 28.02618134 4.06949274 37.875 12.5625 C38.37 13.5525 38.37 13.5525 38.875 14.5625 C27.51506249 21.20591042 16.14914965 27.83799788 4.74584961 34.40673828 C1.47500834 36.29089347 -1.79388033 38.17840027 -5.0625 40.06640625 C-8.8477123 42.25242587 -12.63908651 44.42685829 -16.4375 46.58984375 C-17.97933181 47.47627532 -19.52101098 48.36297246 -21.0625 49.25 C-21.74820068 49.63575195 -22.43390137 50.02150391 -23.14038086 50.41894531 C-26.62940864 52.43950274 -29.18277925 54.00917416 -31.125 57.5625 C-31.5807414 60.58783109 -31.56244394 63.59047974 -31.55737305 66.64550781 C-31.5675647 67.56292755 -31.57775635 68.48034729 -31.58825684 69.42556763 C-31.61843264 72.45564851 -31.62765986 75.48541348 -31.63671875 78.515625 C-31.65356202 80.61742202 -31.67171178 82.71920895 -31.69111633 84.82098389 C-31.73866058 90.35128627 -31.76844142 95.88154773 -31.79455566 101.4119873 C-31.82433879 107.05599043 -31.87087685 112.69985249 -31.91601562 118.34375 C-32.00209914 129.41659294 -32.06942205 140.48946487 -32.125 151.5625 C-35.83397259 150.16832632 -39.20338312 148.48431521 -42.64453125 146.5234375 C-43.66611328 145.94335938 -44.68769531 145.36328125 -45.74023438 144.765625 C-46.79533203 144.16234375 -47.85042969 143.5590625 -48.9375 142.9375 C-50.54915039 142.02097656 -50.54915039 142.02097656 -52.19335938 141.0859375 C-54.83886076 139.58094115 -57.4826625 138.07304209 -60.125 136.5625 C-60.1947924 125.94793521 -60.24795891 115.33342584 -60.28043652 104.71867752 C-60.29603134 99.78876842 -60.31715547 94.85901738 -60.35131836 89.92919922 C-60.38413384 85.16349504 -60.40189941 80.39794201 -60.40963173 75.63213348 C-60.41513568 73.82223891 -60.42588252 72.01235175 -60.44219017 70.20252228 C-60.5283961 60.23045006 -60.32177609 51.13497319 -57.125 41.5625 C-56.67479744 40.21155243 -56.67479744 40.21155243 -56.21549988 38.83331299 C-50.81250328 23.43227634 -38.52798307 11.45274838 -24.05419922 4.39672852 C-16.11000433 0.96148251 -8.6141763 -0.01991564 0 0 Z " fill="#F8F8F8" transform="translate(364.125,31.4375)"/>
<path d="M0 0 C1.93729657 0.94011313 3.83945338 1.95441254 5.7109375 3.01953125 C6.79117188 3.62990234 7.87140625 4.24027344 8.984375 4.86914062 C10.10328125 5.51044922 11.2221875 6.15175781 12.375 6.8125 C13.48617187 7.44220703 14.59734375 8.07191406 15.7421875 8.72070312 C18.8321581 10.47352573 21.91699509 12.23496094 25 14 C26.29111671 14.73798227 27.58229556 15.47585582 28.87353516 16.21362305 C29.90526855 16.80312744 30.93700195 17.39263184 32 18 C32.42318532 23.65498141 32.72979433 29.30064354 32.93383789 34.96777344 C33.01889252 36.88965292 33.13461127 38.8104456 33.2824707 40.72851562 C34.23716946 53.4402139 34.23716946 53.4402139 32 59 C28.03973332 63.53530753 22.50997649 65.82439891 17.0553894 68.10852051 C14.46515914 69.23197534 12.15479698 70.65256263 9.796875 72.19921875 C9.10722656 72.62267578 8.41757812 73.04613281 7.70703125 73.48242188 C6.34913285 74.31857288 4.99798028 75.16573973 3.65234375 76.02148438 C2.97816406 76.43076172 2.30398438 76.84003906 1.609375 77.26171875 C1.03155273 77.62225342 0.45373047 77.98278809 -0.14160156 78.35424805 C-2.77652118 79.26982377 -4.35260304 78.80961387 -7 78 C-9.26708984 76.74145508 -9.26708984 76.74145508 -11.5859375 75.20703125 C-15.25566843 72.90102408 -18.66680604 71.33687742 -22.7890625 70.01171875 C-29.42528167 67.55050499 -35.07467444 65.13164246 -39 59 C-42.54676058 46.13483986 -40.28493954 31.09290491 -39 18 C-38.34370605 17.64736084 -37.68741211 17.29472168 -37.01123047 16.93139648 C-31.98205719 14.21106691 -26.99757411 11.43647552 -22.0703125 8.53515625 C-21.090625 7.96345703 -20.1109375 7.39175781 -19.1015625 6.80273438 C-17.08778071 5.62538557 -15.0800912 4.43756416 -13.078125 3.24023438 C-12.10617187 2.67755859 -11.13421875 2.11488281 -10.1328125 1.53515625 C-9.26543457 1.023479 -8.39805664 0.51180176 -7.50439453 -0.01538086 C-4.41634262 -1.22946873 -3.12670583 -1.04444255 0 0 Z " fill="#F9F9F9" transform="translate(385,133)"/>
<path d="M0 0 C0.90520071 0.00184359 1.81040142 0.00368717 2.74303246 0.00558662 C3.78072273 0.0028373 4.81841301 0.00008797 5.88754845 -0.00274467 C7.60197388 0.00804115 7.60197388 0.00804115 9.35103416 0.01904488 C11.15100601 0.0186068 11.15100601 0.0186068 12.98734093 0.01815987 C16.28266962 0.01931654 19.57774939 0.02936419 22.873034 0.04330778 C26.31502395 0.05578909 29.75701702 0.05698358 33.19902611 0.0593586 C39.7190712 0.06558103 46.23904942 0.08200213 52.75906503 0.10205758 C60.18096804 0.12439287 67.60287421 0.13540403 75.02480245 0.14544845 C90.29422964 0.16636773 105.56359009 0.20155848 120.83296776 0.24609566 C121.21515543 1.90224223 121.54691878 3.5706659 121.83296776 5.24609566 C120.83296776 6.24609566 120.83296776 6.24609566 118.77336597 6.36914349 C117.85986913 6.36822169 116.94637228 6.3672999 116.00519371 6.36635017 C114.96046394 6.36772484 113.91573418 6.3690995 112.83934593 6.37051582 C111.68344963 6.36692055 110.52755333 6.36332527 109.33662987 6.35962105 C108.12704109 6.35976707 106.91745232 6.3599131 105.67120934 6.36006355 C102.34490425 6.35948459 99.01866057 6.35445539 95.69236636 6.3474896 C92.21966846 6.34125544 88.74696983 6.34065221 85.2742672 6.33946419 C78.69400583 6.33635105 72.113761 6.32813791 65.53350693 6.3181147 C58.04390664 6.306953 50.55430558 6.30144297 43.06469905 6.29641926 C27.65411237 6.28595528 12.24354219 6.26835619 -3.16703224 6.24609566 C-3.79203224 4.37109566 -3.79203224 4.37109566 -4.16703224 2.24609566 C-2.16703224 0.24609566 -2.16703224 0.24609566 0 0 Z " fill="#0E0E0E" transform="translate(327.1670322418213,618.7539043426514)"/>
<path d="M0 0 C2.475 0.495 2.475 0.495 5 1 C4.64283739 7.25544806 1.48111573 11.57228343 -1.8125 16.6875 C-2.39926514 17.61667236 -2.98603027 18.54584473 -3.59057617 19.50317383 C-5.38486825 22.34118079 -7.19164971 25.17093643 -9 28 C-10.94111074 31.06022051 -12.87659698 34.12398336 -14.8125 37.1875 C-15.29170898 37.94369629 -15.77091797 38.69989258 -16.26464844 39.47900391 C-20.58440639 46.3071444 -24.82807925 53.18119362 -29.0625 60.0625 C-29.7426416 61.16343994 -30.4227832 62.26437988 -31.12353516 63.39868164 C-34.23906279 68.45286831 -37.32062935 73.51798139 -40.2890625 78.66015625 C-40.78398193 79.50634521 -41.27890137 80.35253418 -41.78881836 81.22436523 C-42.69591495 82.78126536 -43.58835005 84.34683697 -44.46313477 85.92211914 C-45.66796875 87.9765625 -45.66796875 87.9765625 -48 91 C-50.80078125 91.4609375 -50.80078125 91.4609375 -53 91 C-52.85112732 83.50319717 -48.81723213 78.22200977 -44.875 72.0625 C-44.14663152 70.90502284 -43.41943677 69.74680634 -42.69335938 68.58789062 C-41.20002658 66.20832992 -39.70018592 63.83308465 -38.19433594 61.46142578 C-35.54917894 57.29402303 -32.93543621 53.10719354 -30.32226562 48.91967773 C-29.106399 46.97158704 -27.88894763 45.02448456 -26.66992188 43.07836914 C-21.18714355 34.32372693 -15.7699212 25.52953152 -10.36523438 16.7265625 C-6.93299467 11.13641208 -3.48625745 5.55664022 0 0 Z " fill="#101010" transform="translate(192,264)"/>
<path d="M0 0 C2.77144341 0.24577773 3.78059068 0.74420004 5.60888672 2.87573242 C6.12725098 3.69404541 6.64561523 4.5123584 7.1796875 5.35546875 C7.77128662 6.27634277 8.36288574 7.1972168 8.97241211 8.14599609 C9.60026611 9.14969238 10.22812012 10.15338867 10.875 11.1875 C11.53701416 12.22471191 12.19902832 13.26192383 12.88110352 14.33056641 C14.93127963 17.54715056 16.96585064 20.77326418 19 24 C20.17698464 25.84854888 21.35529984 27.69625149 22.53515625 29.54296875 C24.81922813 33.12028122 27.09774274 36.70102118 29.37109375 40.28515625 C33.40097218 46.63597712 37.44828573 52.97559834 41.5 59.3125 C42.15863037 60.3442334 42.81726074 61.3759668 43.49584961 62.43896484 C44.12628174 63.42461426 44.75671387 64.41026367 45.40625 65.42578125 C46.00824219 66.37018066 46.61023438 67.31458008 47.23046875 68.28759766 C48.38902091 70.06346886 49.5783649 71.81971619 50.80078125 73.55224609 C51.62642578 74.72327881 51.62642578 74.72327881 52.46875 75.91796875 C52.95794922 76.58981201 53.44714844 77.26165527 53.95117188 77.95385742 C55.227892 80.44459097 55.19460228 82.23862967 55 85 C53.02 85.495 53.02 85.495 51 86 C47.48000435 81.82206124 44.6252956 77.37756541 41.75 72.75 C40.6804436 71.04249491 39.61008942 69.33548935 38.5390625 67.62890625 C37.96833008 66.71898926 37.39759766 65.80907227 36.80957031 64.87158203 C33.60896832 59.79259111 30.36564436 54.7409994 27.125 49.6875 C21.29132954 40.58680633 15.47587125 31.47490334 9.69189453 22.3425293 C9.16192871 21.50761963 8.63196289 20.67270996 8.0859375 19.8125 C7.57901367 19.01070313 7.07208984 18.20890625 6.54980469 17.3828125 C5.48906241 15.7519296 4.39391134 14.14305702 3.27050781 12.5546875 C2.71975586 11.77351563 2.16900391 10.99234375 1.6015625 10.1875 C1.10221191 9.50042969 0.60286133 8.81335938 0.08837891 8.10546875 C-1.22911598 5.55677519 -1.27708632 3.83217076 -1 1 C-0.67 0.67 -0.34 0.34 0 0 Z " fill="#111111" transform="translate(562,262)"/>
<path d="M0 0 C0.33 0.66 0.66 1.32 1 2 C-1.35828498 6.71656996 -4.80088031 10.8298534 -8 15 C-8.80630859 16.07121094 -8.80630859 16.07121094 -9.62890625 17.1640625 C-18.35772424 28.62696502 -28.22172788 40.14628511 -40.0234375 48.515625 C-42.22585144 50.16961175 -44.17915503 51.99080726 -46.1875 53.875 C-50.71090987 57.968725 -55.63788959 61.02152716 -60.875 64.125 C-63.50413836 65.70248302 -65.99747934 67.35851483 -68.5 69.125 C-75.08621735 73.58467116 -82.51338269 76.53498466 -89.8125 79.625 C-92.29448201 80.6956589 -94.66162822 81.83047369 -97.0625 83.0625 C-100.30565791 84.70594996 -103.51443343 85.93917539 -107 87 C-107.91007812 87.30679688 -108.82015625 87.61359375 -109.7578125 87.9296875 C-114.19722938 89.39522994 -118.68479949 90.68870853 -123.171875 92 C-126.09091935 92.80362994 -126.09091935 92.80362994 -128 95 C-128.24212873 96.98128508 -128.24212873 96.98128508 -128.125 99.125 C-128.08375 100.40375 -128.0425 101.6825 -128 103 C-124.12107741 104.02836552 -120.20002728 104.65874926 -116.2421875 105.3046875 C-114 106 -114 106 -112 109 C-118.25064749 108.3350375 -125.14133443 107.42553442 -130.0625 103.25 C-131.43456785 99.95703716 -131.44081411 97.52651286 -131 94 C-127.59799453 88.99475057 -121.81816116 88.09383978 -116.3125 86.5 C-109.27934808 84.42277779 -102.64682597 82.09779853 -96 79 C-94.88496094 78.5359375 -93.76992187 78.071875 -92.62109375 77.59375 C-54.08750879 60.63398445 -24.24391539 34.03873508 0 0 Z " fill="#FABC22" transform="translate(173,416)"/>
<path d="M0 0 C4.19565808 0.51525626 4.93080978 1.26330181 7.5625 4.4375 C8.6081543 6.77734375 8.6081543 6.77734375 9.38671875 9.375 C9.68835938 10.34252197 9.99 11.31004395 10.30078125 12.30688477 C10.61402344 13.33998779 10.92726562 14.37309082 11.25 15.4375 C16.08972647 30.63382862 22.26929586 45.04538092 30.26367188 58.85961914 C31.10268627 60.34682747 31.8421312 61.88933898 32.5625 63.4375 C32.2325 64.4275 31.9025 65.4175 31.5625 66.4375 C28.5625 61.6875 28.5625 61.6875 28.5625 59.4375 C27.9025 59.4375 27.2425 59.4375 26.5625 59.4375 C26.16417969 58.56867188 25.76585937 57.69984375 25.35546875 56.8046875 C24.82566406 55.65226562 24.29585937 54.49984375 23.75 53.3125 C23.22792969 52.17554688 22.70585937 51.03859375 22.16796875 49.8671875 C21.14163306 47.67467477 20.08807049 45.49457134 19 43.33203125 C17.67766278 40.66939028 16.48979902 38.0049631 15.375 35.25 C15.03082031 34.41082031 14.68664062 33.57164062 14.33203125 32.70703125 C13.5625 30.4375 13.5625 30.4375 13.5625 27.4375 C12.9025 27.4375 12.2425 27.4375 11.5625 27.4375 C8.66719709 19.57882068 7.08744999 11.64627337 5.5625 3.4375 C1.66908063 2.48134435 1.66908063 2.48134435 -2.1875 3.4375 C-5.29852766 6.20285792 -4.96253098 8.36633697 -5.4375 12.4375 C-6.42677278 14.16074936 -7.41900352 15.88321994 -8.46875 17.5703125 C-9.5363861 19.62809498 -9.95394812 21.41220041 -10.375 23.6875 C-11.27052942 28.37303786 -13.0671852 32.37596503 -15.12109375 36.6640625 C-16.08720189 38.69948321 -16.99145723 40.76456238 -17.859375 42.84375 C-21.97397367 52.21362816 -27.58525325 61.0581467 -33.4375 69.4375 C-33.7675 68.7775 -34.0975 68.1175 -34.4375 67.4375 C-33.6081543 65.66357422 -33.6081543 65.66357422 -32.26171875 63.4921875 C-31.52139404 62.26604736 -31.52139404 62.26604736 -30.76611328 61.01513672 C-30.2245459 60.1232666 -29.68297852 59.23139648 -29.125 58.3125 C-20.04376326 42.87734164 -13.19602085 26.47035795 -8.32470703 9.23583984 C-5.87327835 0.74750815 -5.87327835 0.74750815 0 0 Z " fill="#F25556" transform="translate(208.4375,346.5625)"/>
<path d="M0 0 C3.56896152 2.98627393 7.01831343 5.96343983 10.25 9.3125 C24.8844888 24.10887474 43.32176174 36.0515712 61.66015625 45.67578125 C63.93272317 46.96192513 65.95070469 48.38612078 68 50 C67.01 50.495 67.01 50.495 66 51 C63.375 50.0625 63.375 50.0625 61 49 C61 48.34 61 47.68 61 47 C60.195625 46.773125 59.39125 46.54625 58.5625 46.3125 C51.33521182 43.64981488 44.93068052 39.40186053 38.4375 35.3125 C37.80521484 34.9198999 37.17292969 34.5272998 36.52148438 34.12280273 C34.97802432 33.13649101 33.48363014 32.07420732 32 31 C32 30.34 32 29.68 32 29 C31.4328125 28.74089844 30.865625 28.48179687 30.28125 28.21484375 C22.72354955 24.19010943 16.36856727 17.64664659 10.19921875 11.76977539 C7.9594789 9.66355264 5.84944582 7.91109335 3.1953125 6.34375 C1 5 1 5 0.1875 2.3125 C0.0946875 1.1678125 0.0946875 1.1678125 0 0 Z " fill="#398EFC" transform="translate(265,444)"/>
<path d="M0 0 C0.495 0.99 0.495 0.99 1 2 C-1.35828498 6.71656996 -4.80088031 10.8298534 -8 15 C-8.53753906 15.71414063 -9.07507813 16.42828125 -9.62890625 17.1640625 C-19.0205888 29.49745536 -29.56555969 42.01721663 -43 50 C-41.44094666 46.00956587 -38.64498433 43.62974153 -35.5 40.875 C-34.40618233 39.89084317 -33.31375556 38.90513847 -32.22265625 37.91796875 C-31.67754395 37.42603027 -31.13243164 36.9340918 -30.57080078 36.42724609 C-18.67338288 25.61712718 -9.28915842 13.04208489 0 0 Z " fill="#C66C6B" transform="translate(173,416)"/>
<path d="M0 0 C-1.50480389 3.86949571 -3.70262114 5.52166713 -7.0625 7.875 C-8.06023437 8.57496094 -9.05796875 9.27492188 -10.0859375 9.99609375 C-11.04757813 10.65738281 -12.00921875 11.31867188 -13 12 C-13.71414062 12.50660156 -14.42828125 13.01320313 -15.1640625 13.53515625 C-20.01660354 16.89821075 -25.08813026 19.90505014 -30.1875 22.875 C-30.86514404 23.28097412 -31.54278809 23.68694824 -32.2409668 24.10522461 C-36.33260262 26.44351741 -39.15194316 27.49762325 -44 27 C-40.38906297 24.0219076 -36.40011801 22.09799042 -32.25 20 C-22.29215975 14.85583589 -12.83971626 8.79921433 -4.171875 1.67578125 C-2 0 -2 0 0 0 Z " fill="#E6AC37" transform="translate(130,465)"/>
<path d="M0 0 C1.55031216 2.97564797 2.80700159 5.98461904 3.99609375 9.12109375 C8.57730558 21.00168412 13.43826309 32.4237302 19.68334961 43.53686523 C20.13202393 44.34712158 20.58069824 45.15737793 21.04296875 45.9921875 C21.44539795 46.69714355 21.84782715 47.40209961 22.26245117 48.12841797 C23 50 23 50 22 53 C19 48.25 19 48.25 19 46 C18.34 46 17.68 46 17 46 C16.60167969 45.13117188 16.20335937 44.26234375 15.79296875 43.3671875 C14.99826172 41.63855469 14.99826172 41.63855469 14.1875 39.875 C13.66542969 38.73804688 13.14335937 37.60109375 12.60546875 36.4296875 C11.57913306 34.23717477 10.52557049 32.05707134 9.4375 29.89453125 C8.11516278 27.23189028 6.92729902 24.5674631 5.8125 21.8125 C5.29623047 20.55373047 5.29623047 20.55373047 4.76953125 19.26953125 C4 17 4 17 4 14 C3.34 14 2.68 14 2 14 C1.46877637 12.23225581 0.95035927 10.46065917 0.4375 8.6875 C0.14746094 7.70136719 -0.14257812 6.71523438 -0.44140625 5.69921875 C-1 3 -1 3 0 0 Z " fill="#F35B5C" transform="translate(218,360)"/>
<path d="M0 0 C0 25.74 0 51.48 0 78 C-0.33 78 -0.66 78 -1 78 C-1.33 53.25 -1.66 28.5 -2 3 C-3.65 3 -5.3 3 -7 3 C-4.74624683 0.74624683 -3.20799182 0 0 0 Z " fill="#E2E2E2" transform="translate(283,90)"/>
<path d="M0 0 C3.66167907 0.60918811 6.69040474 1.65292351 10.0625 3.1875 C18.17867802 6.67166653 26.64530325 8.99469069 35.12744141 11.41503906 C37 12 37 12 39 13 C38.67 13.99 38.34 14.98 38 16 C37.030625 15.54625 36.06125 15.0925 35.0625 14.625 C32.26480673 13.41473028 29.61445853 12.64568084 26.625 12.0625 C22.53287384 11.23020315 19.05195382 9.79331423 15.28515625 8.01953125 C11.62299653 6.38564461 7.82430818 5.19340113 4 4 C4 3.34 4 2.68 4 2 C2.68 1.67 1.36 1.34 0 1 C0 0.67 0 0.34 0 0 Z " fill="#2D88FB" transform="translate(333,494)"/>
<path d="M0 0 C0 0.66 0 1.32 0 2 C-0.54301758 2.21092285 -1.08603516 2.4218457 -1.64550781 2.63916016 C-11.28191507 6.39707352 -20.7894575 10.10756535 -29.8828125 15.06640625 C-30.93082031 15.52853516 -30.93082031 15.52853516 -32 16 C-32.66 15.67 -33.32 15.34 -34 15 C-28.54076204 11.3704249 -23.04645824 8.51464852 -17 6 C-15.96617187 5.56300781 -14.93234375 5.12601563 -13.8671875 4.67578125 C-2.74713467 0 -2.74713467 0 0 0 Z " fill="#3A8CFC" transform="translate(354,524)"/>
<path d="M0 0 C0.66 0 1.32 0 2 0 C0.48276747 3.96609908 -1.88694345 5.65673024 -5.3125 8.0625 C-6.25738281 8.73410156 -7.20226562 9.40570313 -8.17578125 10.09765625 C-15.45379877 15 -15.45379877 15 -18 15 C-18 14.34 -18 13.68 -18 13 C-16.45532227 11.68725586 -16.45532227 11.68725586 -14.31640625 10.21484375 C-13.55392578 9.68439453 -12.79144531 9.15394531 -12.00585938 8.60742188 C-10.79639648 7.78081055 -10.79639648 7.78081055 -9.5625 6.9375 C-7.98001359 5.84310578 -6.39795928 4.7480864 -4.81640625 3.65234375 C-4.10943604 3.16757568 -3.40246582 2.68280762 -2.67407227 2.18334961 C-1.04913275 1.10555219 -1.04913275 1.10555219 0 0 Z " fill="#D39642" transform="translate(128,465)"/>
<path d="M0 0 C0 0.33 0 0.66 0 1 C-4.66959014 1.91789135 -9.19404016 2.15192598 -13.9375 2.125 C-14.95360352 2.13080078 -14.95360352 2.13080078 -15.99023438 2.13671875 C-20.43703889 2.1281918 -24.6270079 1.71837941 -29 1 C-29 0.67 -29 0.34 -29 0 C-19.26515211 -1.39375575 -9.75756546 -0.6977357 0 0 Z " fill="#494948" transform="translate(334,309)"/>
<path d="M0 0 C3.1664319 3.85523365 5.40682623 8.18290864 7.75 12.5625 C8.17410156 13.33013672 8.59820312 14.09777344 9.03515625 14.88867188 C9.62876953 15.99758789 9.62876953 15.99758789 10.234375 17.12890625 C10.59756836 17.79994385 10.96076172 18.47098145 11.33496094 19.16235352 C12 21 12 21 11 24 C8 19.25 8 19.25 8 17 C7.34 17 6.68 17 6 17 C4.99063464 14.921188 3.99282154 12.8367638 3 10.75 C2.443125 9.58984375 1.88625 8.4296875 1.3125 7.234375 C0 4 0 4 0 0 Z " fill="#AD618D" transform="translate(229,389)"/>
<path d="M0 0 C4.36377068 3.95466718 7.63398019 8.4859285 11.03515625 13.28125 C12.94548482 15.92456746 14.94235856 18.47033836 17 21 C16.67 21.66 16.34 22.32 16 23 C1 6.640625 1 6.640625 1 2 C0.34 1.67 -0.32 1.34 -1 1 C-0.67 0.67 -0.34 0.34 0 0 Z " fill="#9271AE" transform="translate(242,414)"/>
<path d="M0 0 C0.66 0.33 1.32 0.66 2 1 C1.41992188 1.6290625 0.83984375 2.258125 0.2421875 2.90625 C-4.47701509 8.07712544 -8.93754411 13.29663055 -13 19 C-13.33 18.34 -13.66 17.68 -14 17 C-12.6875 14.375 -12.6875 14.375 -11 12 C-10.34 12 -9.68 12 -9 12 C-9 11.01 -9 10.02 -9 9 C-8.01 8.34 -7.02 7.68 -6 7 C-4.80767387 4.94996045 -4.80767387 4.94996045 -4 3 C-3.34 3 -2.68 3 -2 3 C-2 2.34 -2 1.68 -2 1 C-1.34 0.67 -0.68 0.34 0 0 Z " fill="#3191F4" transform="translate(263,584)"/>
<path d="M0 0 C4.42761914 1.39153744 6.9556255 3.52071486 10 7 C10 7.66 10 8.32 10 9 C11.32 9.66 12.64 10.32 14 11 C14 11.66 14 12.32 14 13 C14.66 13 15.32 13 16 13 C16.33 14.32 16.66 15.64 17 17 C10.98173262 12.02838782 5.33662648 6.70170757 0 1 C0 0.67 0 0.34 0 0 Z " fill="#65B752" transform="translate(138,569)"/>
<path d="M0 0 C-0.33 0.66 -0.66 1.32 -1 2 C-0.01 2.66 0.98 3.32 2 4 C-3.28 3.67 -8.56 3.34 -14 3 C-13 1 -13 1 -11.07421875 0.33203125 C-10.28660156 0.16058594 -9.49898437 -0.01085937 -8.6875 -0.1875 C-7.90761719 -0.36667969 -7.12773438 -0.54585937 -6.32421875 -0.73046875 C-3.90795241 -1.01067443 -2.29757048 -0.74132137 0 0 Z " fill="#F7E3DC" transform="translate(662,523)"/>
<path d="M0 0 C0.33 0.66 0.66 1.32 1 2 C-2.48047537 8.96095075 -7.98258313 15.09715663 -13 21 C-13 17.42256995 -12.24153874 16.59670156 -10.15625 13.76953125 C-9.56972656 12.96708984 -8.98320312 12.16464844 -8.37890625 11.33789062 C-7.75886719 10.50451172 -7.13882813 9.67113281 -6.5 8.8125 C-5.87996094 7.96751953 -5.25992188 7.12253906 -4.62109375 6.25195312 C-3.08699881 4.16322386 -1.5464712 2.07957349 0 0 Z " fill="#CE566B" transform="translate(173,416)"/>
<path d="M0 0 C0.6875 1.625 0.6875 1.625 1 4 C-1.27586207 9.27586207 -1.27586207 9.27586207 -3 11 C-4.51928038 11.07179964 -6.04167482 11.08392007 -7.5625 11.0625 C-8.38878906 11.05347656 -9.21507812 11.04445313 -10.06640625 11.03515625 C-10.70449219 11.02355469 -11.34257812 11.01195312 -12 11 C-12.33 10.01 -12.66 9.02 -13 8 C-7.25 8.875 -7.25 8.875 -5 10 C-5 9.34 -5 8.68 -5 8 C-4.34 8 -3.68 8 -3 8 C-2.690625 7.05125 -2.38125 6.1025 -2.0625 5.125 C-1 2 -1 2 0 0 Z " fill="#14C15B" transform="translate(216,669)"/>
<path d="M0 0 C0.66 0 1.32 0 2 0 C2 0.66 2 1.32 2 2 C5.87892259 3.02836552 9.79997272 3.65874926 13.7578125 4.3046875 C16 5 16 5 18 8 C12.56385803 7.42168702 6.8817991 6.57512417 2 4 C0.73828125 1.89453125 0.73828125 1.89453125 0 0 Z " fill="#FBC235" transform="translate(43,517)"/>
<path d="M0 0 C1.98 0.66 3.96 1.32 6 2 C5.35546875 2.30550781 4.7109375 2.61101562 4.046875 2.92578125 C0.82475451 6.19094533 1.32522795 9.76614829 1.25 14.1875 C1.22035156 15.03248047 1.19070313 15.87746094 1.16015625 16.74804688 C1.0895301 18.83151822 1.04249205 20.91576506 1 23 C0.67 23 0.34 23 0 23 C0 15.41 0 7.82 0 0 Z " fill="#D0D0D0" transform="translate(260,216)"/>
<path d="M0 0 C4.91935902 4.11619836 9.52647956 8.40410362 14 13 C13.67 13.66 13.34 14.32 13 15 C12.46890625 14.44570313 11.9378125 13.89140625 11.390625 13.3203125 C10.68421875 12.59585937 9.9778125 11.87140625 9.25 11.125 C8.55390625 10.40570313 7.8578125 9.68640625 7.140625 8.9453125 C5.12728448 6.93587902 5.12728448 6.93587902 2.78125 5.90625 C2.1934375 5.6071875 1.605625 5.308125 1 5 C0.25 2.375 0.25 2.375 0 0 Z " fill="#3883F6" transform="translate(265,444)"/>
<path d="M0 0 C0.66 0.33 1.32 0.66 2 1 C1.113125 1.721875 0.22625 2.44375 -0.6875 3.1875 C-3.62912698 5.63770224 -6.32699874 8.2566566 -9 11 C-10.33333333 12.33333333 -11.66666667 13.66666667 -13 15 C-13.66 14.67 -14.32 14.34 -15 14 C-13.06555623 12.03856399 -11.12763179 10.08079606 -9.1875 8.125 C-8.64029297 7.56941406 -8.09308594 7.01382813 -7.52929688 6.44140625 C-6.99755859 5.90644531 -6.46582031 5.37148438 -5.91796875 4.8203125 C-5.18743286 4.08192139 -5.18743286 4.08192139 -4.44213867 3.32861328 C-3 2 -3 2 0 0 Z " fill="#DCDCDD" transform="translate(331,41)"/>
<path d="M0 0 C6.31631828 0.40316925 10.64993984 2.71232131 16 6 C16 6.66 16 7.32 16 8 C10.31497465 6.35433477 5.23318364 3.70967216 0 1 C0 0.67 0 0.34 0 0 Z " fill="#EABB34" transform="translate(82,533)"/>
<path d="M0 0 C-0.99 0 -1.98 0 -3 0 C-3.28875 0.639375 -3.5775 1.27875 -3.875 1.9375 C-5 4 -5 4 -7 5 C-7.33 5.99 -7.66 6.98 -8 8 C-9 11 -9 11 -11 12 C-10.60350587 10.20376144 -10.18206548 8.41301565 -9.75 6.625 C-9.51796875 5.62726563 -9.2859375 4.62953125 -9.046875 3.6015625 C-8 1 -8 1 -6.03125 -0.375 C-3.62485425 -1.11542946 -2.34262191 -0.83665068 0 0 Z " fill="#BFBFC0" transform="translate(483,278)"/>
<path d="M0 0 C1.35814777 4.0744433 -0.05254238 6.81468116 -1.4375 10.6875 C-1.68048828 11.38939453 -1.92347656 12.09128906 -2.17382812 12.81445312 C-2.7744944 14.54578532 -3.38619719 16.27328137 -4 18 C-4.66 17.34 -5.32 16.68 -6 16 C-4.56176509 10.36691325 -2.45855991 5.26322777 0 0 Z " fill="#13BB68" transform="translate(222,651)"/>
<path d="M0 0 C0 6.93 0 13.86 0 21 C-0.33 21 -0.66 21 -1 21 C-1.33 15.06 -1.66 9.12 -2 3 C-3.65 3 -5.3 3 -7 3 C-4.74624683 0.74624683 -3.20799182 0 0 0 Z " fill="#DCDCDC" transform="translate(283,90)"/>
<path d="M0 0 C-0.639375 0.103125 -1.27875 0.20625 -1.9375 0.3125 C-2.618125 0.539375 -3.29875 0.76625 -4 1 C-4.33 1.99 -4.66 2.98 -5 4 C-6.77734375 4.73046875 -6.77734375 4.73046875 -8.9375 5.1875 C-9.64777344 5.34605469 -10.35804687 5.50460937 -11.08984375 5.66796875 C-13 6 -13 6 -15 6 C-15 5.34 -15 4.68 -15 4 C-12.87875034 3.13656176 -10.75286928 2.28449352 -8.625 1.4375 C-6.84996094 0.72400391 -6.84996094 0.72400391 -5.0390625 -0.00390625 C-2 -1 -2 -1 0 0 Z " fill="#F9C136" transform="translate(74,498)"/>
<path d="M0 0 C-0.33 7.59 -0.66 15.18 -1 23 C-1.33 23 -1.66 23 -2 23 C-2 16.07 -2 9.14 -2 2 C-2.66 1.67 -3.32 1.34 -4 1 C-2 0 -2 0 0 0 Z " fill="#EBEBEB" transform="translate(416,210)"/>
<path d="M0 0 C0.99 0 1.98 0 3 0 C2.5 2.3125 2.5 2.3125 1 5 C-2.2815417 6.91543734 -5.45830685 8.29340181 -9.2578125 7.5703125 C-9.83273437 7.38210937 -10.40765625 7.19390625 -11 7 C-10.37351562 6.91363281 -9.74703125 6.82726562 -9.1015625 6.73828125 C-6.63217125 6.31373291 -4.35643158 5.85727584 -2 5 C-0.32386813 2.52985528 -0.32386813 2.52985528 0 0 Z " fill="#AEAFAE" transform="translate(286,62)"/>
<path d="M0 0 C0.66 0.99 1.32 1.98 2 3 C1.3203125 5.26171875 1.3203125 5.26171875 0.125 7.6875 C-0.45894531 8.89986328 -0.45894531 8.89986328 -1.0546875 10.13671875 C-1.52261719 11.05904297 -1.52261719 11.05904297 -2 12 C-2.66 11.67 -3.32 11.34 -4 11 C-3.21681311 7.08406554 -1.60820142 3.63593365 0 0 Z " fill="#212121" transform="translate(293,52)"/>
<path d="M0 0 C2 4 2 4 2 6 C2.66 6 3.32 6 4 6 C3.34 7.32 2.68 8.64 2 10 C1.01 10 0.02 10 -1 10 C-0.67 6.7 -0.34 3.4 0 0 Z " fill="#F8EBE6" transform="translate(625,462)"/>
<path d="M0 0 C0 3 0 3 -1.75 5.04296875 C-2.4925 5.75066406 -3.235 6.45835937 -4 7.1875 C-4.7425 7.90292969 -5.485 8.61835937 -6.25 9.35546875 C-6.8275 9.89816406 -7.405 10.44085937 -8 11 C-8.33 10.34 -8.66 9.68 -9 9 C-6 6 -3 3 0 0 Z " fill="#2A83FC" transform="translate(274,572)"/>
<path d="M0 0 C0.66 0 1.32 0 2 0 C1.67 2.64 1.34 5.28 1 8 C0.34 7.01 -0.32 6.02 -1 5 C-1.99 5.66 -2.98 6.32 -4 7 C-2.92598892 4.08482708 -2.22189824 2.22189824 0 0 Z " fill="#F6E2DA" transform="translate(598,556)"/>
<path d="M0 0 C-0.66 1.32 -1.32 2.64 -2 4 C-2.66 4 -3.32 4 -4 4 C-4.33 5.65 -4.66 7.3 -5 9 C-5.66 9 -6.32 9 -7 9 C-7.3125 6.75 -7.3125 6.75 -7 4 C-2.89189189 0 -2.89189189 0 0 0 Z " fill="#DA7D5F" transform="translate(461,505)"/>
<path d="M0 0 C-1.36983503 3.16115776 -1.9890638 3.9927092 -5 6 C-5.99 6 -6.98 6 -8 6 C-6.72879117 2.18637351 -4.19078006 0 0 0 Z " fill="#DFA53B" transform="translate(110,479)"/>
<path d="M0 0 C0.33 0.99 0.66 1.98 1 3 C-1.97 5.31 -4.94 7.62 -8 10 C-8 7 -8 7 -6.25 5.17578125 C-5.5075 4.56089844 -4.765 3.94601562 -4 3.3125 C-3.2575 2.68988281 -2.515 2.06726563 -1.75 1.42578125 C-1.1725 0.95527344 -0.595 0.48476563 0 0 Z " fill="#C87D58" transform="translate(139,456)"/>
<path d="M0 0 C7.75 0.875 7.75 0.875 10 2 C9.67 2.99 9.34 3.98 9 5 C7.88625 4.505 6.7725 4.01 5.625 3.5 C2.34584251 1.8725494 2.34584251 1.8725494 0 2 C0 1.34 0 0.68 0 0 Z " fill="#2885FC" transform="translate(362,505)"/>
<path d="M0 0 C5.94 1.485 5.94 1.485 12 3 C8 5 8 5 4.3125 4.3125 C3.219375 3.879375 2.12625 3.44625 1 3 C0.67 2.01 0.34 1.02 0 0 Z " fill="#3A90FB" transform="translate(352,501)"/>
<path d="M0 0 C0.66 0 1.32 0 2 0 C5.34821429 6.96428571 5.34821429 6.96428571 4 11 C3.32591692 9.73308493 2.66099503 8.46129251 2 7.1875 C1.62875 6.47980469 1.2575 5.77210938 0.875 5.04296875 C0 3 0 3 0 0 Z " fill="#DB5568" transform="translate(224,380)"/>
<path d="M0 0 C1.485 0.99 1.485 0.99 3 2 C4.65549531 2.38499891 6.3222433 2.72793135 8 3 C8 3.66 8 4.32 8 5 C8.66 5.33 9.32 5.66 10 6 C5.545 5.01 5.545 5.01 1 4 C0.67 2.68 0.34 1.36 0 0 Z " fill="#FCC338" transform="translate(62,523)"/>
<path d="M0 0 C5.41538462 -0.36923077 5.41538462 -0.36923077 8.375 1.5 C8.91125 1.995 9.4475 2.49 10 3 C9.01 3.33 8.02 3.66 7 4 C6.67 3.67 6.34 3.34 6 3 C3.67182036 2.63239269 1.3381615 2.29758419 -1 2 C-0.67 1.34 -0.34 0.68 0 0 Z " fill="#DC8466" transform="translate(732,484)"/>
<path d="M0 0 C2.475 0.495 2.475 0.495 5 1 C5 2.32 5 3.64 5 5 C3.35 4.67 1.7 4.34 0 4 C0 2.68 0 1.36 0 0 Z " fill="#171717" transform="translate(192,264)"/>
<path d="M0 0 C3.19199167 2.41556126 5.74716687 4.68003538 8 8 C7.67 8.66 7.34 9.32 7 10 C5.82739389 8.71372289 4.6620717 7.42080217 3.5 6.125 C2.8503125 5.40570313 2.200625 4.68640625 1.53125 3.9453125 C0 2 0 2 0 0 Z " fill="#7578CC" transform="translate(251,427)"/>
<path d="M0 0 C0.66 0.33 1.32 0.66 2 1 C0.02 5.455 0.02 5.455 -2 10 C-3.19156292 5.23374833 -2.3415946 4.12120649 0 0 Z " fill="#F84549" transform="translate(193,378)"/>
<path d="M0 0 C2.64465038 3.1254959 3.84414715 6.08788267 5 10 C4.34 10 3.68 10 3 10 C0.96564469 6.27034861 0 4.33094958 0 0 Z " fill="#C86380" transform="translate(229,389)"/>
<path d="M0 0 C0.99 0.33 1.98 0.66 3 1 C3 2.32 3 3.64 3 5 C1.68 5.33 0.36 5.66 -1 6 C-1.042721 4.33388095 -1.04063832 2.66617115 -1 1 C-0.67 0.67 -0.34 0.34 0 0 Z " fill="#202020" transform="translate(562,262)"/>
<path d="M0 0 C0.66 0.33 1.32 0.66 2 1 C2 1.66 2 2.32 2 3 C-0.70879335 4.35439668 -3.00933268 4.06501451 -6 4 C-4.03617993 2.49440461 -2.21736634 1.10868317 0 0 Z " fill="#EFBC4A" transform="translate(92,488)"/>
<path d="M0 0 C-1.36983503 3.16115776 -1.9890638 3.9927092 -5 6 C-5.66 5.34 -6.32 4.68 -7 4 C-2.25 0 -2.25 0 0 0 Z " fill="#CE8E4F" transform="translate(130,465)"/>
<path d="M0 0 C2 3 2 3 2 6 C0.02 5.34 -1.96 4.68 -4 4 C-3.01 3.67 -2.02 3.34 -1 3 C-0.67 2.01 -0.34 1.02 0 0 Z " fill="#E3E3E3" transform="translate(500,121)"/>
<path d="M0 0 C0.99 0.33 1.98 0.66 3 1 C1.35 2.65 -0.3 4.3 -2 6 C-2.33 5.01 -2.66 4.02 -3 3 C-2.34 3 -1.68 3 -1 3 C-0.67 2.01 -0.34 1.02 0 0 Z " fill="#F2F2F2" transform="translate(247,83)"/>
</svg>
