<?xml version="1.0" encoding="UTF-8"?>
<svg version="1.1" xmlns="http://www.w3.org/2000/svg" width="512" height="512">
<path d="M0 0 C13.74226114 9.46025224 21.43862722 22.61474223 25.1875 38.75 C25.71893772 43.88264289 25.7369709 48.98625544 25.70507812 54.14038086 C25.71051341 55.63681209 25.71764388 57.13323797 25.72631836 58.62965393 C25.74438944 62.65462536 25.73755176 66.6791818 25.72480202 70.7041595 C25.71458749 74.94166376 25.7240911 79.17913539 25.73034668 83.41664124 C25.73759951 90.53034766 25.72809868 97.64388733 25.70898438 104.75756836 C25.68722854 112.94822598 25.69426711 121.13848502 25.71629 129.32913297 C25.73452184 136.39625646 25.73696427 143.4632609 25.72653532 150.53040034 C25.72034183 154.73598503 25.71934892 158.94138324 25.73268127 163.14695549 C25.74435306 167.10431864 25.73601092 171.06117494 25.71310425 175.01848412 C25.70787655 176.45906997 25.70922713 177.89969951 25.71815491 179.34026718 C25.78558499 191.33961139 24.16960887 202.95585788 17.6875 213.3125 C16.83671875 214.70662109 16.83671875 214.70662109 15.96875 216.12890625 C7.65947293 228.35593457 -4.23890976 236.02195091 -18.609375 239.24609375 C-33.11842895 241.52861565 -46.60443078 238.94838079 -58.8125 230.75 C-72.34628629 220.39129554 -80.41643574 206.61738989 -82.8125 189.75 C-83.09493372 184.91204725 -83.09693012 180.07959294 -83.0871582 175.23510742 C-83.09151425 173.79661293 -83.09670035 172.35812076 -83.10264587 170.91963196 C-83.11595239 167.03928322 -83.11662383 163.15903238 -83.11408257 159.2786653 C-83.11300698 156.02608638 -83.11791128 152.77352679 -83.122688 149.52095205 C-83.13375473 141.83971807 -83.13423686 134.158533 -83.12817383 126.47729492 C-83.12213853 118.58382993 -83.13444025 110.69054339 -83.1557439 102.79710883 C-83.17342573 95.99250258 -83.17935085 89.18795279 -83.17610615 82.38332444 C-83.17430332 78.33144509 -83.17682842 74.27969301 -83.19082069 70.2278347 C-83.20350189 66.41342323 -83.20135906 62.59928749 -83.18840981 58.78487968 C-83.18606652 57.39546867 -83.18869666 56.00603761 -83.19703293 54.61664963 C-83.30313823 35.53696394 -78.32890187 19.61690824 -64.8125 5.75 C-46.76192723 -9.92939737 -20.46951453 -12.22018832 0 0 Z " fill="#2EB67B" transform="translate(347.8125,7.25)"/>
<path d="M0 0 C1.43849449 -0.00435605 2.87698667 -0.00954215 4.31547546 -0.01548767 C8.1958242 -0.02879419 12.07607504 -0.02946563 15.95644212 -0.02692437 C19.20902104 -0.02584878 22.46158063 -0.03075308 25.71415538 -0.03552979 C33.39538935 -0.04659652 41.07657442 -0.04707865 48.7578125 -0.04101562 C56.65127749 -0.03498033 64.54456403 -0.04728205 72.43799859 -0.06858569 C79.24260484 -0.08626753 86.04715463 -0.09219265 92.85178298 -0.08894795 C96.90366233 -0.08714512 100.95541442 -0.08967022 105.00727272 -0.10366249 C108.82168419 -0.11634368 112.63581994 -0.11420086 116.45022774 -0.1012516 C117.83963875 -0.09890832 119.22906981 -0.10153845 120.61845779 -0.10987473 C138.89719486 -0.21152582 155.12210132 4.27220539 168.48510742 17.2746582 C180.30152731 30.75243765 183.30028982 44.49327822 182.65991211 61.80883789 C181.7719271 74.33488335 174.93296724 85.87133729 165.89916992 94.36450195 C152.45906031 104.99915179 138.07603827 108.89731354 121.09472656 108.79223633 C119.59829533 108.79767162 118.10186946 108.80480209 116.60545349 108.81347656 C112.58048207 108.83154764 108.55592562 108.82470996 104.53094792 108.81196022 C100.29344366 108.80174569 96.05597203 108.8112493 91.81846619 108.81750488 C84.70475976 108.82475771 77.5912201 108.81525688 70.47753906 108.79614258 C62.28688144 108.77438674 54.0966224 108.78142531 45.90597445 108.8034482 C38.83885096 108.82168004 31.77184652 108.82412247 24.70470709 108.81369352 C20.4991224 108.80750004 16.29372418 108.80650712 12.08815193 108.81983948 C8.13078878 108.83151126 4.17393248 108.82316912 0.21662331 108.80026245 C-1.22396255 108.79503475 -2.66459208 108.79638533 -4.10515976 108.80531311 C-16.10450397 108.87274319 -27.72075045 107.25676707 -38.07739258 100.7746582 C-39.47151367 99.92387695 -39.47151367 99.92387695 -40.89379883 99.0559082 C-53.12082715 90.74663113 -60.78684349 78.84824845 -64.01098633 64.4777832 C-66.29350823 49.96872925 -63.71327337 36.48272742 -55.51489258 24.2746582 C-41.26469694 5.65658651 -22.61470869 -0.04561661 0 0 Z " fill="#ECB22C" transform="translate(329.514892578125,264.725341796875)"/>
<path d="M0 0 C13.53378629 10.35870446 21.60393574 24.13261011 24 41 C24.28243372 45.83795275 24.28443012 50.67040706 24.2746582 55.51489258 C24.27901425 56.95338707 24.28420035 58.39187924 24.29014587 59.83036804 C24.30345239 63.71071678 24.30412383 67.59096762 24.30158257 71.4713347 C24.30050698 74.72391362 24.30541128 77.97647321 24.310188 81.22904795 C24.32125473 88.91028193 24.32173686 96.591467 24.31567383 104.27270508 C24.30963853 112.16617007 24.32194025 120.05945661 24.3432439 127.95289117 C24.36092573 134.75749742 24.36685085 141.56204721 24.36360615 148.36667556 C24.36180332 152.41855491 24.36432842 156.47030699 24.37832069 160.5221653 C24.39100189 164.33657677 24.38885906 168.15071251 24.37590981 171.96512032 C24.37356652 173.35453133 24.37619666 174.74396239 24.38453293 176.13335037 C24.48618402 194.41208744 20.00245281 210.6369939 7 224 C-6.47777945 235.81641988 -20.21862002 238.8151824 -37.53417969 238.17480469 C-50.06022515 237.28681968 -61.59667909 230.44785982 -70.08984375 221.4140625 C-80.72449359 207.97395289 -84.62265534 193.59093085 -84.51757812 176.60961914 C-84.52301341 175.11318791 -84.53014388 173.61676203 -84.53881836 172.12034607 C-84.55688944 168.09537464 -84.55005176 164.0708182 -84.53730202 160.0458405 C-84.52708749 155.80833624 -84.5365911 151.57086461 -84.54284668 147.33335876 C-84.55009951 140.21965234 -84.54059868 133.10611267 -84.52148438 125.99243164 C-84.49972854 117.80177402 -84.50676711 109.61151498 -84.52879 101.42086703 C-84.54702184 94.35374354 -84.54946427 87.2867391 -84.53903532 80.21959966 C-84.53284183 76.01401497 -84.53184892 71.80861676 -84.54518127 67.60304451 C-84.55685306 63.64568136 -84.54851092 59.68882506 -84.52560425 55.73151588 C-84.52037655 54.29093003 -84.52172713 52.85030049 -84.53065491 51.40973282 C-84.59808499 39.41038861 -82.98210887 27.79414212 -76.5 17.4375 C-75.9328125 16.50808594 -75.365625 15.57867187 -74.78125 14.62109375 C-66.47197293 2.39406543 -54.57359024 -5.27195091 -40.203125 -8.49609375 C-25.69407105 -10.77861565 -12.20806922 -8.19838079 0 0 Z " fill="#E01D59" transform="translate(223,274)"/>
<path d="M0 0 C1.49643124 -0.00543529 2.99285711 -0.01256576 4.48927307 -0.02124023 C8.5142445 -0.03931132 12.53880094 -0.03247363 16.56377864 -0.01972389 C20.8012829 -0.00950937 25.03875453 -0.01901298 29.27626038 -0.02526855 C36.3899668 -0.03252138 43.50350647 -0.02302056 50.6171875 -0.00390625 C58.80784513 0.01784959 66.99810416 0.01081101 75.18875211 -0.01121187 C82.2558756 -0.02944371 89.32288004 -0.03188615 96.39001948 -0.0214572 C100.59560417 -0.01526371 104.80100238 -0.01427079 109.00657463 -0.02760315 C112.96393778 -0.03927493 116.92079408 -0.03093279 120.87810326 -0.00802612 C122.31868911 -0.00279842 123.75931865 -0.00414901 125.19988632 -0.01307678 C137.19923053 -0.08050686 148.81547702 1.53546926 159.17211914 8.01757812 C160.1015332 8.58476562 161.03094727 9.15195313 161.98852539 9.73632812 C174.21555371 18.0456052 181.88157005 29.94398788 185.10571289 44.31445312 C187.38823479 58.82350707 184.80799994 72.30950891 176.60961914 84.51757812 C166.25091468 98.05136442 152.47700903 106.12151387 135.60961914 108.51757812 C130.77166639 108.80001184 125.93921208 108.80200824 121.09472656 108.79223633 C119.65623207 108.79659238 118.2177399 108.80177848 116.7792511 108.807724 C112.89890236 108.82103052 109.01865152 108.82170195 105.13828444 108.8191607 C101.88570552 108.81808511 98.63314593 108.8229894 95.38057119 108.82776612 C87.69933721 108.83883285 80.01815214 108.83931498 72.33691406 108.83325195 C64.44344907 108.82721666 56.55016253 108.83951837 48.65672797 108.86082202 C41.85212172 108.87850386 35.04757193 108.88442898 28.24294358 108.88118428 C24.19106423 108.87938144 20.13931215 108.88190655 16.08745384 108.89589882 C12.27304237 108.90858001 8.45890663 108.90643719 4.64449883 108.89348793 C3.25508781 108.89114465 1.86565675 108.89377478 0.47626877 108.90211105 C-17.8024683 109.00376215 -34.02737476 104.52003094 -47.39038086 91.51757812 C-59.20680074 78.03979868 -62.20556326 64.29895811 -61.56518555 46.98339844 C-60.67720054 34.45735298 -53.83824068 22.92089904 -44.80444336 14.42773438 C-31.36433375 3.79308453 -16.98131171 -0.10507722 0 0 Z " fill="#35C5F1" transform="translate(61.390380859375,138.482421875)"/>
<path d="M0 0 C0.91571777 0.00829834 1.83143555 0.01659668 2.77490234 0.02514648 C17.37513782 0.38699744 28.70077478 5.98257782 39.6875 15.4375 C51.54265439 29.2909664 55.02354084 43.02336374 54.8828125 60.87890625 C54.87907457 62.25609632 54.87623129 63.63328909 54.87423706 65.01048279 C54.86666194 68.60584065 54.84706741 72.20103261 54.8248291 75.79632568 C54.80423747 79.47682451 54.79520709 83.15735059 54.78515625 86.83789062 C54.76381461 94.03783541 54.7297543 101.23764431 54.6875 108.4375 C46.94139028 108.50746438 39.19535663 108.56054429 31.44900894 108.59293652 C27.85081961 108.60849475 24.25284879 108.62954913 20.65478516 108.66381836 C17.1728785 108.69676816 13.69118004 108.7144267 10.20912933 108.72213173 C8.25517399 108.73025243 6.30130069 108.75361272 4.34747314 108.77738953 C-12.00971023 108.78042668 -26.13535937 104.26486221 -38.0625 92.77734375 C-50.49958274 79.84364139 -53.83857328 66.16050449 -53.5859375 48.72265625 C-53.14147548 36.22711267 -47.13223964 24.3774501 -38.75 15.1875 C-28.02427611 5.21153545 -14.56038954 -0.17188785 0 0 Z " fill="#35C5F1" transform="translate(192.3125,-0.4375)"/>
<path d="M0 0 C1.37719007 0.00373793 2.75438284 0.00658121 4.13157654 0.00857544 C7.7269344 0.01615056 11.32212636 0.03574509 14.91741943 0.0579834 C18.59791826 0.07857503 22.27844434 0.08760541 25.95898438 0.09765625 C33.15892916 0.11899789 40.35873806 0.1530582 47.55859375 0.1953125 C47.62855813 7.94142222 47.68163804 15.68745587 47.71403027 23.43380356 C47.7295885 27.03199289 47.75064288 30.62996371 47.78491211 34.22802734 C47.81786191 37.709934 47.83552045 41.19163246 47.84322548 44.67368317 C47.85134618 46.62763851 47.87470647 48.58151181 47.89848328 50.53533936 C47.90152043 66.89252273 43.38595596 81.01817187 31.8984375 92.9453125 C19.26211293 105.09643596 5.77417519 108.7282439 -11.3125 108.46875 C-24.86600343 107.96759538 -38.30743647 101.57173616 -47.5625 91.62109375 C-56.11345201 80.58129916 -61.0445922 68.91784771 -60.87890625 54.8828125 C-60.86645874 53.50923584 -60.86645874 53.50923584 -60.85375977 52.10791016 C-60.49190881 37.50767468 -54.89632843 26.18203772 -45.44140625 15.1953125 C-31.58793985 3.34015811 -17.85554251 -0.14072834 0 0 Z " fill="#E01D59" transform="translate(60.44140625,264.8046875)"/>
<path d="M0 0 C11.40134281 7.95633275 18.77582255 20.36822517 21.71484375 33.89453125 C22.11659901 37.3458693 22.19333496 40.73472071 22.15234375 44.20703125 C22.14404541 45.12274902 22.13574707 46.0384668 22.12719727 46.98193359 C21.76534631 61.58216907 16.16976593 72.90780603 6.71484375 83.89453125 C-7.13862265 95.74968564 -20.87101999 99.23057209 -38.7265625 99.08984375 C-40.10375257 99.08610582 -41.48094534 99.08326254 -42.85813904 99.08126831 C-46.4534969 99.07369319 -50.04868886 99.05409866 -53.64398193 99.03186035 C-57.32448076 99.01126872 -61.00500684 99.00223834 -64.68554688 98.9921875 C-71.88549166 98.97084586 -79.08530056 98.93678555 -86.28515625 98.89453125 C-86.35512063 91.14842153 -86.40820054 83.40238788 -86.44059277 75.65604019 C-86.456151 72.05785086 -86.47720538 68.45988004 -86.51147461 64.86181641 C-86.54442441 61.37990975 -86.56208295 57.89821129 -86.56978798 54.41616058 C-86.57790868 52.46220524 -86.60126897 50.50833194 -86.62504578 48.55450439 C-86.62808293 32.19732102 -82.11251846 18.07167188 -70.625 6.14453125 C-50.98332452 -12.74295636 -22.86853788 -14.27405452 0 0 Z " fill="#2EB67B" transform="translate(490.28515625,148.10546875)"/>
<path d="M0 0 C7.74610972 -0.06996438 15.49214337 -0.12304429 23.23849106 -0.15543652 C26.83668039 -0.17099475 30.43465121 -0.19204913 34.03271484 -0.22631836 C37.5146215 -0.25926816 40.99631996 -0.2769267 44.47837067 -0.28463173 C46.43232601 -0.29275243 48.38619931 -0.31611272 50.34002686 -0.33988953 C66.69721023 -0.34292668 80.82285937 4.17263779 92.75 15.66015625 C104.90052697 28.29586051 108.52636824 41.77897171 108.27734375 58.86328125 C107.7624704 72.85195481 101.07623993 84.54757613 91.68359375 94.60546875 C81.28137587 103.88721484 68.5604406 108.6012724 54.6875 108.4375 C53.77178223 108.42920166 52.85606445 108.42090332 51.91259766 108.41235352 C37.31236218 108.05050256 25.98672522 102.45492218 15 93 C3.14484561 79.1465336 -0.33604084 65.41413626 -0.1953125 47.55859375 C-0.19157457 46.18140368 -0.18873129 44.80421091 -0.18673706 43.42701721 C-0.17916194 39.83165935 -0.15956741 36.23646739 -0.1373291 32.64117432 C-0.11673747 28.96067549 -0.10770709 25.28014941 -0.09765625 21.59960938 C-0.07631461 14.39966459 -0.0422543 7.19985569 0 0 Z " fill="#ECB22C" transform="translate(265,404)"/>
</svg>
