<?xml version="1.0" encoding="UTF-8"?>
<svg version="1.1" xmlns="http://www.w3.org/2000/svg" width="554" height="554">
<path d="M0 0 C182.82 0 365.64 0 554 0 C554 182.82 554 365.64 554 554 C371.18 554 188.36 554 0 554 C0 371.18 0 188.36 0 0 Z " fill="#FEFEFE" transform="translate(0,0)"/>
<path d="M0 0 C1.51510195 2.27265292 2.66526004 4.29450266 3.8203125 6.734375 C5.84807208 10.83474783 8.23989518 14.51887814 10.875 18.25 C11.34550781 18.92546875 11.81601563 19.6009375 12.30078125 20.296875 C13.86182758 22.53505051 15.43060173 24.76767437 17 27 C18.14879175 28.64037697 19.29721998 30.28100857 20.4453125 31.921875 C22.23120996 34.47372074 24.01765432 37.02517137 25.80615234 39.57519531 C29.84376601 45.33439186 33.84175467 51.11911958 37.81640625 56.921875 C41.50967116 62.3056431 45.25056705 67.65523597 49 73 C53.64153138 79.61643782 58.2491718 86.25398376 62.81640625 92.921875 C66.50967144 98.3056435 70.25060234 103.65521087 74 109 C78.59258072 115.54748884 83.1553112 122.11349472 87.67578125 128.7109375 C91.75612929 134.65996667 95.87675233 140.58064794 100 146.5 C104.56176578 153.04889054 109.11352838 159.60385461 113.625 166.1875 C117.86818505 172.37348486 122.14411988 178.53624711 126.4375 184.6875 C127.32526123 185.96306763 127.32526123 185.96306763 128.23095703 187.2644043 C136.14017009 198.5747831 145.20016996 208.26254603 159 212 C174.4618874 214.56431793 187.11697864 213.56282844 200.75 205.3125 C213.24599548 196.35397383 219.41460716 184.83567881 222 170 C222.36919838 165.61610352 222.38884328 161.27024257 222.35302734 156.87280273 C222.35626762 155.01155258 222.35626762 155.01155258 222.35957336 153.11270142 C222.36264043 150.44224104 222.36053105 147.77239718 222.34955978 145.10201836 C222.33300697 140.86756962 222.34175262 136.63338983 222.35440063 132.39894104 C222.38432545 121.12712936 222.38308004 109.85537029 222.36414778 98.58353907 C222.35177041 91.15744361 222.35379217 83.73165882 222.38253558 76.3055988 C222.39764969 72.10794667 222.39046858 67.91114616 222.36582541 63.71354854 C222.35327771 60.4749039 222.3733773 57.23642006 222.38818359 53.99780273 C222.36817543 52.28378517 222.36817543 52.28378517 222.34776306 50.53514099 C222.4666069 38.78167652 226.45754941 29.59966344 234.609375 21.19140625 C244.54682083 12.08208091 253.96223415 9.36527264 267.2578125 9.78125 C277.96612915 10.40720588 287.68944554 15.06990702 295 23 C297.96019806 26.79965722 300.69952836 30.73134306 303.421875 34.70361328 C305.20598062 37.29972984 307.00818657 39.88273217 308.8125 42.46484375 C315.22193367 51.64287659 321.59402608 60.84604681 327.92211914 70.08032227 C331.53832791 75.34888614 335.20375765 80.58218203 338.875 85.8125 C343.5038442 92.40708699 348.08805718 99.02936254 352.625 105.6875 C356.69730149 111.66343987 360.81510675 117.60235458 365 123.5 C369.74154356 130.18211613 374.38576663 136.92568547 378.99951172 143.6965332 C383.57837241 150.40679156 388.22878503 157.06502801 392.89868164 163.7121582 C396.10649807 168.28187236 399.28826983 172.86720066 402.43383789 177.47998047 C417.52418164 200.0147983 417.52418164 200.0147983 441.125 212.3125 C451.52976316 214.26222139 463.18967113 214.15538792 473 210 C473.66902344 209.74476563 474.33804687 209.48953125 475.02734375 209.2265625 C488.26794922 203.51081598 495.73622455 191.66679696 501.01953125 178.89453125 C502.6350118 174.12532372 503.12419521 169.49573924 503.13803101 164.47966003 C503.14621101 162.87128014 503.14621101 162.87128014 503.15455627 161.23040771 C503.1555986 160.06922424 503.15664093 158.90804077 503.15771484 157.71166992 C503.16279556 156.47679337 503.16787628 155.24191681 503.17311096 153.96961975 C503.18379891 151.29160842 503.19280435 148.61364828 503.19923019 145.93562889 C503.2099589 141.6942118 503.23021646 137.45287308 503.25234985 133.21150208 C503.3141111 121.15332637 503.36824802 109.09515623 503.40136719 97.03686523 C503.41975576 90.37083107 503.44874188 83.70492939 503.4893719 77.0389927 C503.51036578 73.51704732 503.52588834 69.99526829 503.52817917 66.47325706 C503.5307402 62.54087085 503.55627308 58.60881018 503.58349609 54.67651367 C503.58048996 53.52140289 503.57748383 52.36629211 503.5743866 51.17617798 C503.70382396 38.5659938 507.71750932 29.46319187 516.3125 20.25 C520.07627038 16.65313739 524.31056958 14.21215181 529 12 C529.74894531 11.63390625 530.49789062 11.2678125 531.26953125 10.890625 C535.4971091 9.51167257 539.79819059 9.60584594 544.20507812 9.52148438 C548.86784977 9.34197861 550.07012368 8.94740724 554 6 C554 112.92 554 219.84 554 330 C371.18 330 188.36 330 0 330 C0 221.1 0 112.2 0 0 Z " fill="#FEFEFE" transform="translate(0,224)"/>
<path d="M0 0 C5.43400329 1.23034037 7.29300342 5.29097598 10.3125 9.75 C11.08737568 10.86799654 11.86348697 11.98513738 12.640625 13.1015625 C14.47547394 15.74849417 16.29577734 18.40487321 18.109375 21.06640625 C21.70635122 26.33826704 25.35224705 31.57569688 29 36.8125 C29.67353516 37.77994141 30.34707031 38.74738281 31.04101562 39.74414062 C32.42758627 41.73561745 33.81430666 43.72699002 35.20117188 45.71826172 C38.71889668 50.76949977 42.2345941 55.82214793 45.75 60.875 C46.42764404 61.84896729 47.10528809 62.82293457 47.8034668 63.82641602 C51.82773125 69.61170058 55.8437722 75.40251055 59.8515625 81.19921875 C62.58491421 85.14752514 65.3307253 89.08715406 68.07470703 93.02807617 C73.81937996 101.27865854 79.5514839 109.53682289 85.234375 117.83007812 C88.85079142 123.09863717 92.51622119 128.33206823 96.1875 133.5625 C101.48198144 141.10620917 106.7120236 148.69128352 111.9074707 156.3034668 C115.05784982 160.91861933 118.21476151 165.52748074 121.44140625 170.08984375 C123.02648583 172.34337025 124.59178809 174.60840695 126.15234375 176.87890625 C127.20557136 178.39854689 128.25895795 179.91807734 129.3125 181.4375 C129.79920166 182.15115723 130.28590332 182.86481445 130.78735352 183.60009766 C138.5688386 194.76771721 147.73783994 202.04763712 161.3125 204.75 C173.68891062 206.17955376 184.67574085 201.79576766 194.28125 194.19140625 C202.38301586 186.78255457 206.8052029 176.75719478 207.49375343 165.88908958 C207.56201829 162.58618773 207.56815981 159.28868115 207.55200195 155.98510742 C207.55401611 154.73510452 207.55603027 153.48510162 207.55810547 152.19721985 C207.561639 149.49463605 207.5617372 146.79229907 207.55632973 144.08974266 C207.54866561 139.80523392 207.55943655 135.52088977 207.5735321 131.23640442 C207.61111667 119.05855632 207.62948313 106.8807845 207.61791992 94.70288086 C207.61167944 87.96424694 207.6234029 81.22588121 207.65436524 74.48731309 C207.6728889 70.23952754 207.66982835 65.99250953 207.65019763 61.74473798 C207.64162351 58.46409559 207.66581162 55.18365689 207.68481445 51.90307617 C207.67304672 50.74476288 207.66127899 49.58644958 207.64915466 48.39303589 C207.80410785 34.67741335 213.91435164 23.48442783 223.2890625 13.68359375 C234.94535402 2.9328707 247.17387637 0.39730167 262.62890625 0.53515625 C267.60009613 0.8250984 271.73105213 1.84812164 276.3125 3.75 C277.13105469 4.07871094 277.94960938 4.40742187 278.79296875 4.74609375 C292.94819474 11.08851284 300.83683721 23.39298222 309.3125 35.75 C310.09947266 36.89202881 310.09947266 36.89202881 310.90234375 38.05712891 C313.57226632 41.93467544 316.22771039 45.82181709 318.875 49.71484375 C322.58896199 55.16837901 326.3536377 60.5860567 330.125 66 C330.79635986 66.96381592 331.46771973 67.92763184 332.15942383 68.9206543 C333.52747946 70.88408409 334.89572574 72.84738106 336.26416016 74.81054688 C339.61668346 79.62155767 342.96441643 84.43589895 346.3125 89.25 C350.36959769 95.08307427 354.42747288 100.91560194 358.48828125 106.74609375 C364.71341459 115.6859469 370.93128062 124.6299628 377.09106445 133.61499023 C381.82457193 140.51183452 386.61053709 147.37211238 391.39257812 154.23535156 C395.83474404 160.61433576 400.24519448 167.01391677 404.63256836 173.43066406 C407.90659529 178.20227032 411.29073062 182.87885763 414.75390625 187.515625 C416.3125 189.75 416.3125 189.75 417.27734375 191.921875 C418.61358202 194.28172221 419.84783762 194.68672507 422.3125 195.75 C423.85786973 196.72331181 425.39927485 197.7029357 426.9375 198.6875 C436.88844471 204.65514866 446.50129154 206.29769061 457.8125 203.625 C467.77098842 200.61494841 476.79679085 194.87465168 482.0390625 185.7421875 C484.98613957 179.94580369 487.43024109 175.1187283 487.45726013 168.55245972 C487.46415863 167.47591629 487.47105713 166.39937286 487.47816467 165.29020691 C487.48077805 164.10888687 487.48339142 162.92756683 487.48608398 161.71044922 C487.492771 160.46625717 487.49945801 159.22206512 487.50634766 157.94017029 C487.52041634 155.2326412 487.53274095 152.52516597 487.54229546 149.81762314 C487.55776446 145.53024015 487.58171622 141.24293061 487.60719299 136.95559692 C487.67834301 124.76341402 487.73805312 112.57118845 487.78930664 100.37890625 C487.81768582 93.64590014 487.85311137 86.91296657 487.89596039 80.18003666 C487.92261824 75.92498559 487.94059404 71.67001654 487.95199764 67.41489863 C487.96333523 64.13185653 487.98743966 60.8489027 488.00952148 57.56591797 C488.01011063 56.39674332 488.01069977 55.22756866 488.01130676 54.02296448 C488.14771194 38.67526141 492.87515227 25.1990154 503.73828125 14.00390625 C514.58260004 4.50895641 525.75208952 0.60326004 539.9375 0.375 C540.63721924 0.36082031 541.33693848 0.34664063 542.05786133 0.33203125 C544.0390625 0.3515625 544.0390625 0.3515625 547.3125 0.75 C549.42272017 3.91533026 549.56496338 4.67930141 549.57992554 8.2978363 C549.58845551 9.23015076 549.59698547 10.16246521 549.60577393 11.12303162 C549.60486755 12.14389359 549.60396118 13.16475555 549.60302734 14.21655273 C549.61310318 15.8315416 549.61310318 15.8315416 549.62338257 17.47915649 C549.64242063 21.04734885 549.64628959 24.61535373 549.6484375 28.18359375 C549.65486092 30.65837177 549.66158893 33.13314902 549.66860962 35.60792542 C549.68059661 40.7989376 549.68428893 45.98988315 549.68310547 51.1809082 C549.6829021 57.84052437 549.71021686 64.49956564 549.74464989 71.15910244 C549.76685938 76.27112296 549.77094485 81.38303999 549.76988602 86.49510384 C549.77225046 88.95076021 549.78112106 91.40641908 549.79655075 93.86202812 C549.81609162 97.29300877 549.81041912 100.72305788 549.79833984 104.15405273 C549.80957886 105.17289047 549.82081787 106.19172821 549.83239746 107.24143982 C549.77103278 114.08187071 549.77103278 114.08187071 547.50552368 117.38294983 C544.32276238 119.36696597 541.25972976 119.25464044 537.625 119.25 C526.36178577 119.61116292 518.44474249 123.71787576 510.3984375 131.6328125 C503.64357151 138.9625607 500.20945802 146.11134142 500.16773987 156.15008545 C500.16084137 157.22096405 500.15394287 158.29184265 500.14683533 159.39517212 C500.14422195 160.55995087 500.14160858 161.72472961 500.13891602 162.92480469 C500.132229 164.15953522 500.12554199 165.39426575 500.11865234 166.66641235 C500.10460788 169.34716852 500.0922788 172.02787115 500.08270454 174.70864105 C500.06720111 178.95417811 500.04325078 183.19964179 500.01780701 187.44512939 C499.94674377 199.51610668 499.88691214 211.58712586 499.83569336 223.65820312 C499.80731405 230.32896446 499.77189224 236.99965257 499.72903961 243.67033696 C499.70239328 247.88357482 499.68441094 252.09672996 499.67300236 256.31003523 C499.66166466 259.55927827 499.6375612 262.80843212 499.61547852 266.05761719 C499.61488937 267.21429901 499.61430023 268.37098083 499.61369324 269.56271362 C499.4789224 284.56976082 494.93785232 298.42972254 484.375 309.4375 C480.05661291 313.38498268 475.62491966 316.32627036 470.3125 318.75 C469.67183594 319.05550781 469.03117187 319.36101562 468.37109375 319.67578125 C456.6865874 325.00068587 441.19256155 324.10367241 429.3125 319.75 C414.58394961 313.59298303 406.54494735 300.97986677 397.98486328 288.23779297 C396.05260242 285.36337864 394.09294166 282.50879373 392.12719727 279.65722656 C391.24706028 278.38041502 390.36865503 277.10240811 389.49194336 275.82324219 C385.84423158 270.50181203 382.14434554 265.21785329 378.4375 259.9375 C373.80861123 253.34294471 369.22444238 246.72063681 364.6875 240.0625 C360.61519851 234.08656013 356.49739325 228.14764542 352.3125 222.25 C347.57095644 215.56788387 342.92673337 208.82431453 338.31298828 202.0534668 C333.73023086 195.33749783 329.07430632 188.67471809 324.40283203 182.02026367 C320.84496109 176.94883701 317.31343602 171.86087442 313.8125 166.75 C309.58601232 160.58775257 305.33515779 154.44283508 301.0625 148.3125 C300.49595703 147.49587891 299.92941406 146.67925781 299.34570312 145.83789062 C291.9727705 134.67824842 291.9727705 134.67824842 282.1875 125.8125 C281.38054687 125.26722656 280.57359375 124.72195312 279.7421875 124.16015625 C270.20255479 118.62348839 257.77127884 118.16012631 247.10546875 120.43359375 C236.89443158 123.87535593 228.0588171 130.78368088 222.91621494 140.34640789 C219.51562951 148.00113432 218.60764343 154.39228154 218.71655273 162.71606445 C218.71046494 164.56986725 218.71046494 164.56986725 218.70425415 166.46112061 C218.69876465 169.12495655 218.70206267 171.78696044 218.72091484 174.4505558 C218.75033002 178.67742316 218.74212634 182.90374162 218.72901917 187.13066101 C218.70845579 195.34738627 218.72388303 203.56383853 218.74449158 211.7805481 C218.76970973 222.22757058 218.78227728 232.67443756 218.75453526 243.12146538 C218.74628645 246.627995 218.74666267 250.13407314 218.76778984 253.64055824 C218.89697852 275.37259959 218.52539379 292.63460239 203.25 309.5 C194.46363583 317.90894303 182.10644568 323.15471066 170 323 C169.245979 322.99395752 168.49195801 322.98791504 167.71508789 322.98168945 C162.36557612 322.88642022 157.42386399 322.41538294 152.3125 320.75 C151.30703125 320.45802734 151.30703125 320.45802734 150.28125 320.16015625 C144.817122 318.38431465 140.72815933 315.35479973 136.3125 311.75 C135.508125 311.15058594 134.70375 310.55117188 133.875 309.93359375 C130.99415073 307.47872372 128.75403204 304.76345502 126.5 301.75 C126.06187988 301.17169434 125.62375977 300.59338867 125.17236328 299.99755859 C121.86192592 295.5848481 118.78061495 291.04682286 115.76171875 286.4296875 C112.43751324 281.38736964 108.95568749 276.45259173 105.5 271.5 C100.918006 264.92985099 96.34038265 258.35758 91.8125 251.75 C84.7005563 241.37875256 77.50002822 231.06892695 70.3125 220.75 C54.69543118 198.32902474 54.69543118 198.32902474 47.39331055 187.67407227 C43.13910559 181.47667677 38.82033866 175.32493924 34.50341797 169.17114258 C30.46994297 163.41668146 26.47339929 157.63850985 22.50488281 151.83911133 C19.34222677 147.2254565 16.1352152 142.64447048 12.91503906 138.07080078 C-5.00610835 112.59669746 -5.00610835 112.59669746 -4.94628906 98.4777832 C-4.9497937 97.45760101 -4.95329834 96.43741882 -4.95690918 95.38632202 C-4.96569045 92.02440529 -4.9598913 88.66270001 -4.953125 85.30078125 C-4.95447237 82.96241719 -4.9564135 80.62405341 -4.95892334 78.28569031 C-4.96186945 73.39087246 -4.9575922 68.4961277 -4.94824219 63.60131836 C-4.93682908 57.31962702 -4.94342219 51.03810623 -4.95538712 44.75642109 C-4.96260336 39.93097135 -4.96031919 35.10556226 -4.95513153 30.28011131 C-4.95379537 27.9631975 -4.95544159 25.64628003 -4.96009064 23.3293705 C-4.965154 20.09749136 -4.95744899 16.86589147 -4.94628906 13.6340332 C-4.95033752 12.67241776 -4.95438599 11.71080231 -4.95855713 10.720047 C-4.95291748 9.84110779 -4.94727783 8.96216858 -4.94146729 8.05659485 C-4.94071323 7.29284703 -4.93995918 6.52909922 -4.93918228 5.74220753 C-4.49644545 2.23769525 -3.34169781 0.93256683 0 0 Z " fill="#000000" transform="translate(4.6875,115.25)"/>
</svg>
