<svg xmlns="http://www.w3.org/2000/svg" viewBox="0 0 512 512" width="512" height="512"><path fill="#ffffff" fill-rule="evenodd" d="M 0 245 L 1 266 L 8 289 L 19 309 L 38 330 L 55 342 L 72 350 L 97 356 L 155 356 L 157 418 L 165 445 L 177 466 L 188 479 L 197 487 L 215 499 L 242 509 L 253 511 L 267 511 L 267 262 L 260 250 L 253 246 L 248 245 Z M 122 122 L 123 142 L 130 166 L 136 178 L 149 196 L 160 207 L 177 219 L 200 229 L 212 232 L 233 234 L 277 234 L 278 285 L 280 300 L 287 322 L 299 343 L 310 356 L 319 364 L 337 376 L 356 384 L 368 387 L 389 389 L 389 138 L 385 130 L 379 125 L 369 122 Z M 244 0 L 244 11 L 247 28 L 254 47 L 266 67 L 282 84 L 299 96 L 311 102 L 329 108 L 350 111 L 399 111 L 400 160 L 402 176 L 410 201 L 421 220 L 432 233 L 457 252 L 472 259 L 485 263 L 511 266 L 511 15 L 509 10 L 504 4 L 496 0 Z "/></svg>