<svg xmlns="http://www.w3.org/2000/svg" viewBox="0 0 16 16" fill="currentColor">
  <path d="M8.996 4.497c.104-.076.1-.168.186-.158s.022.102-.098.207c-.12.104-.308.243-.46.323-.291.152-.631.336-.993.336s-.647-.167-.853-.33c-.102-.082-.186-.162-.248-.221-.11-.086-.096-.207-.052-.204.075.01.087.109.134.153.064.06.144.137.241.214.195.154.454.304.778.304s.702-.19.932-.32c.13-.073.297-.204.433-.304M7.34 3.781c.055-.02.123-.031.174-.003.011.006.024.021.02.034-.012.038-.074.032-.11.05-.032.017-.057.052-.093.054-.034 0-.086-.012-.09-.046-.007-.044.058-.072.1-.089m.581-.003c.05-.028.119-.018.173.003.041.017.106.045.1.09-.004.033-.057.046-.09.045-.036-.002-.062-.037-.093-.053-.036-.019-.098-.013-.11-.051-.004-.013.008-.028.02-.034"/>
  <path fill-rule="evenodd" d="M8.446.019c2.521.003 2.38 2.66 2.364 4.093-.01.939.509 1.574 1.04 2.244.474.56 1.095 1.38 1.45 2.32.29.765.402 1.613.115 2.465a.8.8 0 0 1 .254.152l.001.002c.207.175.271.447.329.698.058.252.112.488.224.615.344.382.494.667.48.922-.015.254-.203.43-.435.57-.465.28-1.164.491-1.586 1.002-.443.527-.99.83-1.505.871a1.25 1.25 0 0 1-1.256-.716v-.001a1 1 0 0 1-.078-.21c-.67.038-1.252-.165-1.718-.128-.687.038-1.116.204-1.506.206-.151.331-.445.547-.808.63-.5.114-1.126 0-1.743-.324-.577-.306-1.31-.278-1.85-.39-.27-.057-.51-.157-.626-.384-.116-.226-.095-.538.07-.988.051-.16.012-.398-.026-.648a2.5 2.5 0 0 1-.037-.369c0-.133.022-.265.087-.386v-.002c.14-.266.368-.377.577-.451s.397-.125.53-.258c.143-.15.27-.374.443-.56q.036-.037.073-.07c-.081-.538.007-1.105.192-1.662.393-1.18"/>
</svg>
