<?xml version="1.0" encoding="UTF-8"?>
<svg version="1.1" xmlns="http://www.w3.org/2000/svg" width="512" height="512">
<path d="M0 0 C3.7274928 0.00477729 7.45493625 -0.0078181 11.18241262 -0.01801741 C18.46481703 -0.03512317 25.74713484 -0.03606251 33.0295541 -0.03080451 C38.95578283 -0.02674565 44.88198617 -0.02822662 50.80821371 -0.03355277 C52.07851716 -0.0346754 52.07851716 -0.0346754 53.3744833 -0.03582071 C55.09550014 -0.03735236 56.81651697 -0.03889071 58.53753379 -0.04043568 C74.6400425 -0.05413133 90.7425025 -0.04874405 106.84501007 -0.03725047 C121.53541123 -0.02732427 136.22568633 -0.04025339 150.91606805 -0.06418466 C166.04529024 -0.08864274 181.17445389 -0.09816691 196.30369544 -0.09153193 C204.77949725 -0.08805417 213.25520225 -0.09017551 221.73098898 -0.10778296 C228.94717179 -0.12258933 236.16318961 -0.12303149 243.37936947 -0.10571205 C247.05184487 -0.09726781 250.72402663 -0.09488832 254.39648581 -0.1103636 C276.11305091 -0.19518987 295.47269854 1.25185149 315.39689016 10.40683305 C316.91282766 11.06618852 316.91282766 11.06618852 318.45939016 11.7388643 C345.27819592 24.11403132 365.38593216 47.92741649 375.89689016 75.1919893 C382.34006237 93.42846779 382.8452333 110.82695276 382.80372322 130.00994289 C382.79894593 133.73743568 382.81154131 137.46487914 382.82174063 141.19235551 C382.83884639 148.47475992 382.83978573 155.75707773 382.83452772 163.03949699 C382.83046887 168.96572572 382.83194983 174.89192906 382.83727598 180.8181566 C382.8380244 181.66502557 382.83877283 182.51189453 382.83954393 183.38442619 C382.84107558 185.10544303 382.84261393 186.82645986 382.8441589 188.54747668 C382.85785454 204.64998539 382.85246727 220.75244538 382.84097368 236.85495296 C382.83104748 251.54535412 382.8439766 266.23562921 382.86790787 280.92601094 C382.89236595 296.05523313 382.90189013 311.18439678 382.89525515 326.31363833 C382.89177739 334.78944014 382.89389873 343.26514514 382.91150618 351.74093187 C382.92631254 358.95711467 382.92675471 366.1731325 382.90943526 373.38931236 C382.90099103 377.06178775 382.89861154 380.73396952 382.91408682 384.40642869 C382.99891309 406.1229938 381.55187173 425.48264143 372.39689016 445.40683305 C371.95731985 446.41745805 371.51774954 447.42808305 371.06485891 448.46933305 C358.6896919 475.28813881 334.87630672 495.39587505 307.61173391 505.90683305 C289.37525543 512.35000526 271.97677046 512.85517619 252.79378033 512.81366611 C249.06628753 512.80888882 245.33884408 512.8214842 241.6113677 512.83168352 C234.3289633 512.84878928 227.04664549 512.84972862 219.76422623 512.84447061 C213.8379975 512.84041175 207.91179415 512.84189272 201.98556662 512.84721887 C201.13869765 512.84796729 200.29182869 512.84871572 199.41929702 512.84948682 C197.69828019 512.85101847 195.97726336 512.85255681 194.25624654 512.85410178 C178.15373782 512.86779743 162.05127783 512.86241016 145.94877025 512.85091657 C131.2583691 512.84099037 116.568094 512.85391949 101.87771228 512.87785076 C86.74849008 512.90230884 71.61932643 512.91183302 56.49008489 512.90519804 C48.01428307 512.90172028 39.53857808 512.90384162 31.06279135 512.92144907 C23.84660854 512.93625543 16.63059072 512.9366976 9.41441086 512.91937815 C5.74193546 512.91093392 2.0697537 512.90855443 -1.60270548 512.92402971 C-23.31927058 513.00885598 -42.67891822 511.56181462 -62.60310984 502.40683305 C-63.61373484 501.96726274 -64.62435984 501.52769243 -65.66560984 501.0748018 C-92.48441559 488.69963479 -112.59215184 464.88624961 -123.10310984 437.6216768 C-129.54628204 419.38519832 -130.05145297 401.98671335 -130.00994289 382.80372322 C-130.0051656 379.07623042 -130.01776099 375.34878697 -130.0279603 371.62131059 C-130.04506606 364.33890619 -130.0460054 357.05658838 -130.0407474 349.77416912 C-130.03668854 343.84794039 -130.03816951 337.92173704 -130.04349566 331.99550951 C-130.04424408 331.14864054 -130.0449925 330.30177157 -130.0457636 329.42923991 C-130.04729525 327.70822308 -130.0488336 325.98720625 -130.05037857 324.26618943 C-130.06407422 308.16368071 -130.05868694 292.06122072 -130.04719336 275.95871314 C-130.03726716 261.26831198 -130.05019628 246.57803689 -130.07412755 231.88765517 C-130.09858563 216.75843297 -130.1081098 201.62926932 -130.10147482 186.50002778 C-130.09799706 178.02422596 -130.1001184 169.54852097 -130.11772585 161.07273424 C-130.13253221 153.85655143 -130.13297438 146.64053361 -130.11565494 139.42435375 C-130.1072107 135.75187835 -130.10483121 132.07969659 -130.12030649 128.40723741 C-130.20513276 106.69067231 -128.7580914 87.33102467 -119.60310984 67.40683305 C-119.16353952 66.39620805 -118.72396921 65.38558305 -118.27107859 64.34433305 C-105.89591157 37.5255273 -82.0825264 17.41779105 -54.81795359 6.90683305 C-36.5814751 0.46366084 -19.18299013 -0.04151008 0 0 Z " fill="#111322" transform="translate(129.60310983657837,-0.40683305263519287)"/>
<path d="M0 0 C1.9151158 1.81476039 3.80146519 3.65461249 5.6875 5.5 C6.4403125 6.20253906 7.193125 6.90507812 7.96875 7.62890625 C26.49221216 25.26181735 36.20598722 52.85535816 37.09848022 78.0297699 C37.19756831 82.54147067 37.20995513 87.04990785 37.1875 91.5625 C37.18573761 92.50888336 37.18397522 93.45526672 37.18215942 94.43032837 C37.0430696 127.93752679 27.80823424 155.42735594 4.4375 180.125 C-8.59178812 192.77107376 -25.85868723 201.86453667 -43.3125 206.5 C-44.0245459 206.69609863 -44.7365918 206.89219727 -45.47021484 207.09423828 C-78.42260674 215.80038978 -116.15200356 211.91000297 -145.984375 195.5234375 C-153.32461364 191.19855511 -159.92970923 186.13005454 -166.3125 180.5 C-166.93511719 179.96117187 -167.55773437 179.42234375 -168.19921875 178.8671875 C-180.83109937 167.14810012 -191.19663909 149.12881306 -195.3125 132.5 C-195.58320313 131.41307861 -195.58320313 131.41307861 -195.859375 130.30419922 C-204.34418048 94.59492073 -201.52258031 54.22407549 -182.3125 22.5 C-168.42841494 0.38611611 -144.58956048 -16.97550988 -119.07617188 -23.03076172 C-79.06444116 -31.98569363 -31.63924539 -29.14206738 0 0 Z " fill="#FDFDFD" transform="translate(337.3125,245.5)"/>
<path d="M0 0 C13.30045734 11.54567436 20.69340237 26.22548818 22.10546875 43.82421875 C22.26733049 48.09593 22.2905164 52.36226967 22.29296875 56.63671875 C22.30521484 57.74853516 22.31746094 58.86035156 22.33007812 60.00585938 C22.35772282 75.7541215 18.78931925 90.14357564 9.10546875 102.82421875 C8.49832031 103.63890625 7.89117187 104.45359375 7.265625 105.29296875 C-1.61706674 115.70162019 -14.54991085 121.72128032 -27.89453125 123.82421875 C-31.67010731 124.11316765 -35.42151272 124.15863293 -39.20703125 124.13671875 C-40.2237793 124.1310791 -41.24052734 124.12543945 -42.28808594 124.11962891 C-59.34084427 123.84370315 -71.97451759 118.09062597 -83.89453125 105.82421875 C-100.46715705 87.41019009 -100.88930373 64.33706352 -99.69140625 40.83984375 C-98.29601234 27.67460551 -92.53540582 14.08740958 -82.89453125 4.82421875 C-80.65625 3.56640625 -80.65625 3.56640625 -78.89453125 2.82421875 C-78.89453125 2.16421875 -78.89453125 1.50421875 -78.89453125 0.82421875 C-55.85367139 -16.34493812 -23.30676462 -17.51938987 0 0 Z " fill="#121423" transform="translate(294.89453125,281.17578125)"/>
<path d="M0 0 C7.30040039 6.84244169 10.62109919 13.9173008 10.9921875 23.859375 C10.80544523 34.36362797 7.11492554 41.71971788 -0.2578125 49.171875 C-7.86172201 55.45208653 -16.5862276 57.08179649 -26.2578125 56.171875 C-34.90192559 54.71127217 -41.70069134 50.78013689 -47.08203125 43.80859375 C-52.9715877 34.63913904 -54.39634616 25.87852062 -52.2578125 15.171875 C-48.89830171 5.38608008 -42.56408109 -1.22563651 -33.43359375 -5.890625 C-22.28519764 -10.69424271 -9.10982427 -7.37612069 0 0 Z " fill="#674AF3" transform="translate(327.2578125,63.828125)"/>
<path d="M0 0 C7.25723872 6.7082594 10.51932401 14.55733008 11.0546875 24.33203125 C10.89440618 33.98096653 6.43164925 42.43582455 -0.2578125 49.20703125 C-7.8958138 55.46743713 -16.56613092 57.11884348 -26.2578125 56.20703125 C-34.90192559 54.74642842 -41.70069134 50.81529314 -47.08203125 43.84375 C-52.97573717 34.66783497 -54.38641601 25.92006863 -52.2578125 15.20703125 C-49.5374388 7.08108741 -44.40106004 0.21452346 -36.953125 -4.140625 C-24.34692318 -10.0617198 -10.93848856 -8.68644679 0 0 Z " fill="#674AF3" transform="translate(218.2578125,63.79296875)"/>
</svg>
