<?xml version="1.0" encoding="UTF-8"?>
<svg version="1.1" xmlns="http://www.w3.org/2000/svg" width="2664" height="1452">
<path d="M0 0 C879.12 0 1758.24 0 2664 0 C2664 479.16 2664 958.32 2664 1452 C1784.88 1452 905.76 1452 0 1452 C0 972.84 0 493.68 0 0 Z " fill="#111322" transform="translate(0,0)"/>
<path d="M0 0 C9.06749951 7.98679523 17.6949322 16.40722406 24.33300781 26.57177734 C24.33300781 27.23177734 24.33300781 27.89177734 24.33300781 28.57177734 C29.28300781 28.57177734 34.23300781 28.57177734 39.33300781 28.57177734 C39.33300781 12.73177734 39.33300781 -3.10822266 39.33300781 -19.42822266 C63.99992555 -19.46833147 63.99992555 -19.46833147 74.47558594 -19.47705078 C81.63713314 -19.48303976 88.79866762 -19.4901415 95.96020508 -19.50366211 C101.73084211 -19.51448919 107.5014655 -19.52049911 113.27211189 -19.5230999 C115.47903725 -19.52495447 117.68596181 -19.5285757 119.89288139 -19.53395271 C122.97246823 -19.54116076 126.05199795 -19.5422137 129.1315918 -19.54174805 C130.05371964 -19.54534332 130.97584747 -19.5489386 131.92591858 -19.55264282 C138.21895565 -19.54227482 138.21895565 -19.54227482 139.33300781 -18.42822266 C139.43364016 -15.96745889 139.46847569 -13.53467578 139.46164227 -11.07331562 C139.4633953 -10.29028239 139.46514834 -9.50724916 139.4669545 -8.70048764 C139.47165425 -6.04260229 139.46913883 -3.38477069 139.46672058 -0.72688293 C139.46858661 1.18458311 139.47088648 3.09604877 139.4735859 5.00751382 C139.47973711 10.28732025 139.4795664 15.56711093 139.47839153 20.84692013 C139.47818833 26.53176885 139.48369888 32.2166124 139.4884491 37.90145874 C139.49677687 49.05476974 139.49950499 60.20807546 139.50006147 71.3613893 C139.5005361 80.4339284 139.5025882 89.50646574 139.5057621 98.57900429 C139.51314202 120.11325563 139.51928618 141.64750524 139.51876354 163.18175793 C139.51874796 163.87123284 139.51873238 164.56070776 139.51871633 165.27107586 C139.51863323 168.76565838 139.51853419 172.26024089 139.51843163 175.75482341 C139.51840171 176.79587462 139.51840171 176.79587462 139.51837119 177.85795718 C139.51833075 179.26147175 139.51828895 180.66498632 139.51824579 182.06850088 C139.51763429 203.86004569 139.52511429 225.65157489 139.53881836 247.44311523 C139.55421118 271.93011573 139.56276981 296.41710497 139.56185514 320.90411073 C139.56152373 333.86600949 139.56424542 346.82789067 139.57503319 359.78978539 C139.58416932 370.83838229 139.58628838 381.88695368 139.57952376 392.93555274 C139.57627281 398.56651894 139.57614973 404.19743628 139.58487701 409.82839775 C139.59280765 414.99900361 139.59124446 420.1695224 139.58259288 425.34012631 C139.58107207 427.19579224 139.58281943 429.05146488 139.58845296 430.90712287 C139.61625869 440.7289329 139.31384434 450.45795049 138.47380543 460.24712086 C138.40047967 461.1377679 138.3271539 462.02841494 138.25160615 462.94605128 C137.27442704 473.27059182 134.29682272 483.01090899 130.33300781 492.57177734 C129.67300781 492.57177734 129.01300781 492.57177734 128.33300781 492.57177734 C128.23246094 493.29751953 128.13191406 494.02326172 128.02832031 494.77099609 C126.78508165 499.7788732 123.42053923 503.52133372 120.33300781 507.57177734 C119.80578125 508.26787109 119.27855469 508.96396484 118.73535156 509.68115234 C105.43064619 526.02599923 84.86372198 534.52996227 64.46045959 537.36541641 C59.97774367 537.80023588 55.4747148 537.70442664 50.97523499 537.69203186 C49.83811001 537.69288629 48.70098503 537.69374071 47.52940172 537.69462103 C43.72311697 537.69626676 39.91687639 537.69076925 36.1105957 537.68530273 C33.38053357 537.68446353 30.6504723 537.68513501 27.92041016 537.68574524 C22.04481106 537.68626892 16.16922309 537.68313835 10.29362679 537.6775074 C1.79856024 537.66937136 -6.69650093 537.66677502 -15.19157095 537.66551941 C-28.97512912 537.6633322 -42.75868137 537.65668108 -56.54223633 537.6472168 C-69.92960582 537.63803413 -83.3169737 537.63095747 -96.7043457 537.62670898 C-97.94268377 537.6263149 -97.94268377 537.6263149 -99.20603877 537.62591285 C-103.34773205 537.62460779 -107.48942535 537.62334409 -111.63111866 537.62210095 C-145.97641509 537.61173864 -180.32170049 537.59330587 -214.66699219 537.57177734 C-214.66699219 508.53177734 -214.66699219 479.49177734 -214.66699219 449.57177734 C-207.55974609 449.55719482 -200.4525 449.5426123 -193.12988281 449.52758789 C-170.38004802 449.47881293 -147.63026877 449.41539895 -124.88049904 449.34279106 C-121.34578877 449.33152312 -117.81107811 449.32038464 -114.27636719 449.30932617 C-113.22083728 449.30602065 -113.22083728 449.30602065 -112.14398354 449.30264834 C-100.75537993 449.26729208 -89.36677639 449.24241852 -77.97813827 449.22143032 C-66.28920749 449.19965495 -54.60034783 449.16658805 -42.91147757 449.12307578 C-36.34732985 449.09912933 -29.78326084 449.0804098 -23.21907043 449.07416344 C-17.04015308 449.06811914 -10.86143713 449.04814251 -4.6825943 449.01750183 C-2.41548816 449.00871119 -0.14835571 449.00500114 2.11876678 449.00676918 C5.21657685 449.0084222 8.31377319 448.9917195 11.41149902 448.97050476 C12.30646009 448.97535234 13.20142116 448.98019991 14.12350225 448.98519439 C20.09829129 448.91777174 26.12189316 448.32671394 30.86016989 444.26156729 C36.65285011 437.80508975 36.63444515 430.89266371 36.65185547 422.70117188 C36.66190109 421.61764938 36.67194672 420.53412689 36.68229675 419.41777039 C36.71311589 415.84671545 36.73016063 412.27573546 36.74707031 408.70458984 C36.76578295 406.22451127 36.78535643 403.74443905 36.80575562 401.26437378 C36.85707253 394.74442291 36.89670079 388.22445141 36.93389893 381.70440674 C36.97288664 375.04816094 37.02503258 368.39200903 37.07519531 361.73583984 C37.17194947 348.68121372 37.25673136 335.62653835 37.33300781 322.57177734 C35.09019411 322.60490939 32.84789817 322.67442378 30.60644531 322.75927734 C29.35782715 322.79408203 28.10920898 322.82888672 26.82275391 322.86474609 C22.53571848 323.73331015 21.42640351 325.0479207 18.95800781 328.57177734 C17.74289459 330.56766544 16.53444769 332.56762873 15.33300781 334.57177734 C10.57861692 340.54765206 5.24676266 345.75662517 -0.66699219 350.57177734 C-1.25738281 351.06162109 -1.84777344 351.55146484 -2.45605469 352.05615234 C-23.80971077 368.95734396 -51.11760979 376.87082755 -77.91699219 378.69677734 C-79.1192041 378.78024414 -80.32141602 378.86371094 -81.56005859 378.94970703 C-117.12658847 381.31405375 -152.18391115 375.86118734 -183.66699219 358.57177734 C-184.27623535 358.24564453 -184.88547852 357.91951172 -185.51318359 357.58349609 C-198.42708309 350.66299698 -209.61360778 342.09640032 -220.17578125 331.99121094 C-221.63460734 330.6026034 -223.11546099 329.23725476 -224.59667969 327.87255859 C-238.55678706 314.75915099 -249.15033782 298.6352202 -257.66699219 281.57177734 C-258.02486816 280.85731445 -258.38274414 280.14285156 -258.75146484 279.40673828 C-267.99188345 260.61944776 -273.70610539 240.2674428 -276.66699219 219.57177734 C-276.84431885 218.35385498 -277.02164551 217.13593262 -277.2043457 215.88110352 C-278.88824169 203.30471461 -279.00605967 190.76192135 -278.98266602 178.08862305 C-278.97951861 174.53907141 -279.00301099 170.99036662 -279.02832031 167.44091797 C-279.08416301 147.64515319 -277.84950222 127.80467893 -272.85449219 108.57177734 C-272.59514893 107.54036621 -272.33580566 106.50895508 -272.06860352 105.44628906 C-264.91788854 77.72079097 -252.39852508 51.35364837 -233.01269531 30.05712891 C-231.66236611 28.5666712 -230.34289115 27.05305622 -229.02636719 25.53271484 C-217.62486318 12.5197871 -204.49201011 2.4190221 -189.66699219 -6.42822266 C-189.04743652 -6.79931152 -188.42788086 -7.17040039 -187.78955078 -7.55273438 C-132.97473617 -39.8343887 -49.75089673 -42.62488955 0 0 Z " fill="#FDFDFD" transform="translate(614.6669921875,614.42822265625)"/>
<path d="M0 0 C33.66 0 67.32 0 102 0 C102 184.8 102 369.6 102 560 C69 560 36 560 2 560 C2 544.16 2 528.32 2 512 C-10.80882985 511.59863661 -10.80882985 511.59863661 -15.0546875 515.40625 C-15.65539063 516.4271875 -16.25609375 517.448125 -16.875 518.5 C-17.57625 519.58925781 -18.2775 520.67851563 -19 521.80078125 C-19.66 522.85652344 -20.32 523.91226563 -21 525 C-26.49773063 532.0384253 -32.94263705 537.57398728 -40 543 C-40.57169922 543.44666016 -41.14339844 543.89332031 -41.73242188 544.35351562 C-61.76701959 559.9455653 -83.01344383 566.85708625 -108 570 C-109.23427734 570.17200928 -110.46855469 570.34401855 -111.74023438 570.52124023 C-115.96477515 571.04589937 -120.13702013 571.17738596 -124.390625 571.203125 C-125.16893173 571.21013931 -125.94723846 571.21715363 -126.74913025 571.22438049 C-129.24947961 571.24180014 -131.74959218 571.24823344 -134.25 571.25 C-135.10381256 571.25067474 -135.95762512 571.25134949 -136.83731079 571.25204468 C-149.45262767 571.23618568 -161.65949103 570.85205326 -174 568 C-174.7930957 567.82307617 -175.58619141 567.64615234 -176.40332031 567.46386719 C-220.8392643 557.33058181 -259.54300804 530.19108791 -284.05078125 491.828125 C-305.72967038 456.87279503 -316.04181024 417.54067686 -316.203125 376.4921875 C-316.20882507 375.32785187 -316.21452515 374.16351624 -316.22039795 372.96389771 C-316.22978748 370.50833018 -316.23635765 368.05275039 -316.24023438 365.59716797 C-316.24984775 361.93302898 -316.28089246 358.26947446 -316.3125 354.60546875 C-316.57593086 295.98556027 -299.71642107 242.17152746 -258.6015625 199.5390625 C-253.17831715 194.09237795 -247.23080373 189.47752479 -241 185 C-240.15695312 184.37665771 -240.15695312 184.37665771 -239.296875 183.74072266 C-209.12022784 161.54946693 -172.35306129 151.78586391 -135.3125 151.75 C-134.58789581 151.74899292 -133.86329163 151.74798584 -133.11672974 151.74694824 C-99.1206021 151.77872688 -62.15594568 158.65457188 -36 182 C-35.18402344 182.67417969 -34.36804687 183.34835937 -33.52734375 184.04296875 C-25.66597691 190.7135876 -18.63106565 198.7378687 -14 208 C-9.38 208.33 -4.76 208.66 0 209 C0 140.03 0 71.06 0 0 Z " fill="#FDFDFD" transform="translate(1620,432)"/>
<path d="M0 0 C4.05872433 3.60775496 8.0464973 7.27743904 12 11 C12.71027344 11.65613281 13.42054688 12.31226563 14.15234375 12.98828125 C47.69178892 45.01879433 65.40538915 94.26830911 67.10786438 139.89050293 C67.16333818 142.92991442 67.19077378 145.96791931 67.203125 149.0078125 C67.20882507 150.13154266 67.21452515 151.25527283 67.22039795 152.41305542 C67.22979263 154.78463823 67.23635974 157.15623378 67.24023438 159.52783203 C67.24984249 163.06697997 67.28087964 166.60552148 67.3125 170.14453125 C67.4847626 207.11824724 61.65896593 249.69408086 40 281 C39.34 281 38.68 281 38 281 C37.91878906 282.00353516 37.91878906 282.00353516 37.8359375 283.02734375 C36.65204812 287.2373429 34.27645578 290.13252993 31.625 293.5625 C31.08625244 294.26850342 30.54750488 294.97450684 29.99243164 295.7019043 C25.00323544 302.15434493 19.66281231 308.13171554 14 314 C12.74509766 315.34964844 12.74509766 315.34964844 11.46484375 316.7265625 C-23.67228738 353.50660625 -78.06828944 371.92085507 -128.07226562 373.23306274 C-188.33786151 374.47429552 -247.13527044 360.73912973 -291.8125 318.1171875 C-311.57760732 298.91714103 -326.73091549 276.02804844 -336 250 C-336.42667969 248.86175781 -336.85335937 247.72351563 -337.29296875 246.55078125 C-357.57995734 189.80963469 -355.20783121 115.84215268 -329.6875 61.1875 C-312.19779277 25.03613333 -283.56902507 -3.5803263 -248 -22 C-247.35160156 -22.3398291 -246.70320312 -22.6796582 -246.03515625 -23.02978516 C-172.46470737 -61.1079556 -63.61484363 -55.62407208 0 0 Z " fill="#FEFEFE" transform="translate(1179,630)"/>
<path d="M0 0 C0.88558594 0.32097656 1.77117188 0.64195312 2.68359375 0.97265625 C23.42244894 8.99781658 42.02943384 21.63115061 58 37 C58.75144287 37.712771 58.75144287 37.712771 59.51806641 38.43994141 C72.2722555 50.58150058 82.08494614 63.84366053 91 79 C91.35835937 79.60537598 91.71671875 80.21075195 92.0859375 80.83447266 C118.5588121 126.15434209 118 175.67084007 118 227 C22.96 227 -72.08 227 -170 227 C-165.86654858 255.93415997 -158.01988384 279.57567923 -134.38427734 297.63574219 C-108.91389879 316.48226709 -79.08343559 321.21171433 -48.03027344 317.17504883 C-22.91802647 313.28887889 -5.07653868 301.28849556 10 281 C12.85030211 276.77833779 15.42394433 272.39243195 18 268 C18.99381868 266.39199654 19.99280664 264.78716004 21 263.1875 C21.66 262.135625 22.32 261.08375 23 260 C28.19589765 261.52675666 32.69812639 263.81812785 37.4375 266.375 C39.13383168 267.27917679 40.83045948 268.18279819 42.52734375 269.0859375 C43.4179248 269.5612793 44.30850586 270.03662109 45.22607422 270.52636719 C49.96916036 273.04610561 54.7356288 275.52081857 59.5 278 C61.44934304 279.01668882 63.39856263 280.03361435 65.34765625 281.05078125 C68.10227948 282.48828145 70.85702581 283.92553372 73.61279297 285.36083984 C84.52320073 291.04648547 95.31593235 296.89902896 106 303 C97.757049 319.73897505 85.82603583 334.7874386 73.28125 348.4921875 C71.75935095 350.16523406 70.2591319 351.85825917 68.78125 353.5703125 C40.49611218 386.13805922 -4.85687213 403.46237742 -47.00097656 406.77294922 C-102.44057518 410.25005254 -160.82691238 401.90400676 -204.21484375 364.265625 C-206.84841853 361.88131861 -209.42489824 359.44698724 -212 357 C-213.41071844 355.78472745 -214.82693719 354.57579395 -216.25 353.375 C-220.23788055 349.88762267 -223.65478614 346.10236102 -227 342 C-228.12535156 340.63101563 -228.12535156 340.63101563 -229.2734375 339.234375 C-246.12194775 318.0807249 -257.87664013 294.03854867 -265 268 C-265.24089355 267.1229541 -265.48178711 266.2459082 -265.72998047 265.34228516 C-282.02013195 204.3305242 -275.90819328 131.8421924 -244.59765625 76.69921875 C-220.25131039 35.38781526 -179.09673433 6.61294096 -133.08007812 -5.46972656 C-90.11645955 -16.13720053 -41.70835143 -15.78651888 0 0 Z " fill="#FEFEFE" transform="translate(2071,596)"/>
<path d="M0 0 C33.33 0 66.66 0 101 0 C101 184.8 101 369.6 101 560 C67.67 560 34.34 560 0 560 C0 375.2 0 190.4 0 0 Z " fill="#FEFEFE" transform="translate(2263,432)"/>
<path d="M0 0 C22.30933834 21.0399592 31.11189577 50.86286661 32.06219482 80.73428345 C32.15657434 84.97806211 32.18467761 89.22009716 32.18359375 93.46484375 C32.18466125 94.35904022 32.18572876 95.25323669 32.18682861 96.17453003 C32.12747833 130.76765408 23.67434727 162.10651481 -1.29467773 187.06762695 C-21.88839052 206.81075041 -49.55699669 215.04169352 -77.62890625 214.90234375 C-78.8106543 214.8974292 -79.99240234 214.89251465 -81.20996094 214.88745117 C-89.92619858 214.77061956 -97.84923849 214.03914763 -106.25390625 211.58984375 C-107.46433594 211.24953125 -108.67476562 210.90921875 -109.921875 210.55859375 C-124.60283806 206.05541752 -137.37405896 199.31304184 -149.25390625 189.58984375 C-150.23230469 188.83960938 -150.23230469 188.83960938 -151.23046875 188.07421875 C-169.27122658 173.74046595 -179.05357612 150.70818451 -183.25390625 128.58984375 C-183.4341333 127.64343018 -183.61436035 126.6970166 -183.80004883 125.72192383 C-185.44517508 115.86645963 -185.52729344 106.16247438 -185.4597168 96.19360352 C-185.44136827 93.39655464 -185.43920856 90.59983749 -185.43945312 87.80273438 C-185.41189802 73.03451145 -184.19136489 59.85185996 -180.25390625 45.58984375 C-180.03992187 44.78933594 -179.8259375 43.98882813 -179.60546875 43.1640625 C-171.63446778 16.50779301 -153.09888897 -4.00820185 -129.01171875 -17.18359375 C-86.45247983 -38.09174853 -35.52600327 -30.6193574 0 0 Z " fill="#111322" transform="translate(1590.25390625,700.41015625)"/>
<path d="M0 0 C1.22356201 0.00491455 2.44712402 0.0098291 3.70776367 0.01489258 C31.17250556 0.36879628 54.50057226 9.57335193 75.25 27.3125 C75.93578125 27.89515625 76.6215625 28.4778125 77.328125 29.078125 C92.84643147 43.43618426 101.15736675 64.01795896 105.25 84.3125 C105.43618896 85.21274902 105.62237793 86.11299805 105.81420898 87.04052734 C107.5370177 96.5469996 107.58827242 105.99242154 107.56567383 115.62109375 C107.56252889 118.41186191 107.58599894 121.20155065 107.61132812 123.9921875 C107.71292441 152.70684882 101.7374595 180.62655255 83.25 203.3125 C82.57453125 204.15167969 81.8990625 204.99085938 81.203125 205.85546875 C64.89812207 225.04657622 41.0586415 236.40919109 16.25 239.3125 C10.85099153 239.62877596 5.46969463 239.70269737 0.0625 239.6875 C-0.66710938 239.68695618 -1.39671875 239.68641235 -2.1484375 239.68585205 C-13.20353558 239.64797137 -23.21368481 238.90918979 -33.75 235.3125 C-35.27453738 234.82488818 -36.79928668 234.33793858 -38.32421875 233.8515625 C-45.11071069 231.61162296 -50.82749747 229.42653939 -56.75 225.3125 C-57.74 224.9825 -58.73 224.6525 -59.75 224.3125 C-59.75 223.6525 -59.75 222.9925 -59.75 222.3125 C-60.3378125 222.03148437 -60.925625 221.75046875 -61.53125 221.4609375 C-80.34491874 211.72287657 -93.7685808 190.98813098 -100.40234375 171.38476562 C-105.74118956 154.1294764 -107.00142245 136.56852062 -107.0625 118.625 C-107.06545074 117.85914581 -107.06840149 117.09329163 -107.07144165 116.30422974 C-107.08864972 96.5686313 -105.20832486 76.16109679 -96 58.375 C-95.64929443 57.68970215 -95.29858887 57.0044043 -94.93725586 56.29833984 C-82.03831924 31.45529649 -61.64254775 13.19070778 -34.8125 4.5625 C-23.40223759 0.96304814 -11.92371952 -0.05715433 0 0 Z " fill="#111322" transform="translate(1037.75,673.6875)"/>
<path d="M0 0 C22.15672835 18.49386564 34.89916163 43.04741863 37.65893555 71.9597168 C39.04637776 92.68669246 39.92521896 115.15531997 33.875 135.1875 C33.63362305 135.99477539 33.39224609 136.80205078 33.14355469 137.63378906 C27.82860118 154.74192242 19.59980154 168.62560488 6.875 181.1875 C6.06160156 181.99960937 5.24820313 182.81171875 4.41015625 183.6484375 C-15.61028593 202.66299037 -42.02732447 210.35519966 -69.05859375 210.42773438 C-71.22435741 210.43738573 -73.38914762 210.46845823 -75.5546875 210.5 C-84.85148569 210.56956765 -93.07610601 209.47180936 -102.125 207.1875 C-103.85370272 206.8310757 -105.58278401 206.47647401 -107.3125 206.125 C-132.09665614 199.122376 -153.58459112 180.21588557 -166.125 158.1875 C-166.96998047 156.76050781 -166.96998047 156.76050781 -167.83203125 155.3046875 C-177.4148526 137.88578692 -179.49172808 117.11708625 -179.44067383 97.58789062 C-179.43753052 95.08678838 -179.46100386 92.58689323 -179.48632812 90.0859375 C-179.57526054 67.22820395 -174.69543076 46.88758901 -165.125 26.1875 C-164.465 26.1875 -163.805 26.1875 -163.125 26.1875 C-162.86847656 25.46046875 -162.61195313 24.7334375 -162.34765625 23.984375 C-154.15697535 5.24786534 -132.21528845 -8.11720211 -114.125 -15.8125 C-76.70640074 -30.43123591 -31.75420214 -24.34985766 0 0 Z " fill="#111322" transform="translate(616.125,694.8125)"/>
<path d="M0 0 C0.33 0 0.66 0 1 0 C1 79.53 1 159.06 1 241 C-78.2 241 -157.4 241 -239 241 C-239 240.67 -239 240.34 -239 240 C-237.87078125 239.86537354 -237.87078125 239.86537354 -236.71875 239.72802734 C-185.9029737 233.53793809 -139.57526688 216.62732314 -99 185 C-98.12214844 184.31679687 -97.24429688 183.63359375 -96.33984375 182.9296875 C-70.31253956 162.15384233 -49.44423273 136.90115151 -33 108 C-32.40251953 106.95295898 -32.40251953 106.95295898 -31.79296875 105.88476562 C-13.35637316 73.19638899 -3.45433588 37.22501429 0 0 Z " fill="#000000" transform="translate(2663,1211)"/>
<path d="M0 0 C0.33 0 0.66 0 1 0 C1.08975098 0.7528125 1.17950195 1.505625 1.27197266 2.28125 C7.46206191 53.0970263 24.37267686 99.42473312 56 140 C56.68320312 140.87785156 57.36640625 141.75570313 58.0703125 142.66015625 C78.84615767 168.68746044 104.09884849 189.55576727 133 206 C134.04704102 206.59748047 134.04704102 206.59748047 135.11523438 207.20703125 C167.80361101 225.64362684 203.77498571 235.54566412 241 239 C241 239.33 241 239.66 241 240 C161.47 240 81.94 240 0 240 C0 160.8 0 81.6 0 0 Z " fill="#000000" transform="translate(0,1212)"/>
<path d="M0 0 C79.53 0 159.06 0 241 0 C241 79.2 241 158.4 241 240 C240.67 240 240.34 240 240 240 C239.86537354 238.87078125 239.86537354 238.87078125 239.72802734 237.71875 C233.53793809 186.9029737 216.62732314 140.57526688 185 100 C184.31679687 99.12214844 183.63359375 98.24429688 182.9296875 97.33984375 C162.15384233 71.31253956 136.90115151 50.44423273 108 34 C107.30197266 33.60167969 106.60394531 33.20335937 105.88476562 32.79296875 C73.19638899 14.35637316 37.22501429 4.45433588 0 1 C0 0.67 0 0.34 0 0 Z " fill="#000000" transform="translate(2423,0)"/>
<path d="M0 0 C79.2 0 158.4 0 240 0 C240 0.33 240 0.66 240 1 C238.87078125 1.13462646 238.87078125 1.13462646 237.71875 1.27197266 C186.9029737 7.46206191 140.57526688 24.37267686 100 56 C99.12214844 56.68320312 98.24429688 57.36640625 97.33984375 58.0703125 C71.31253956 78.84615767 50.44423273 104.09884849 34 133 C33.60167969 133.69802734 33.20335937 134.39605469 32.79296875 135.11523438 C14.35637316 167.80361101 4.45433588 203.77498571 1 241 C0.67 241 0.34 241 0 241 C0 161.47 0 81.94 0 0 Z " fill="#000000" transform="translate(0,0)"/>
<path d="M0 0 C0.77085937 0.67546875 1.54171875 1.3509375 2.3359375 2.046875 C3.02429687 2.63984375 3.71265625 3.2328125 4.421875 3.84375 C19.40667694 17.70321109 24.7072869 35.33199554 27.3359375 55.046875 C-33.7140625 55.046875 -94.7640625 55.046875 -157.6640625 55.046875 C-155.10001446 31.97044268 -143.35865693 11.0624588 -125.2265625 -3.453125 C-89.96024101 -29.07320046 -33.52450244 -28.1309705 0 0 Z " fill="#111322" transform="translate(2059.6640625,692.953125)"/>
<path d="M0 0 C11.76663363 9.40826612 20.09285033 21.72976662 22.42382812 36.82666016 C23.53369626 55.14858167 20.35623489 69.72615222 8.17382812 84.01416016 C-2.18053881 95.00598395 -15.06885713 101.07106683 -30.20507812 102.06494141 C-46.73842298 102.37689131 -61.29213801 97.53732065 -73.51367188 86.01416016 C-85.00929332 73.82183439 -90.20332201 58.47155779 -89.81835938 41.85400391 C-88.68134243 27.64129207 -82.17437136 13.44567817 -71.57617188 3.82666016 C-51.31148855 -12.82415464 -21.84241481 -16.26001325 0 0 Z " fill="#674AF3" transform="translate(1159.576171875,309.17333984375)"/>
<path d="M0 0 C11.76663363 9.40826612 20.09285033 21.72976662 22.42382812 36.82666016 C23.53369626 55.14858167 20.35623489 69.72615222 8.17382812 84.01416016 C-2.18053881 95.00598395 -15.06885713 101.07106683 -30.20507812 102.06494141 C-46.73842298 102.37689131 -61.29213801 97.53732065 -73.51367188 86.01416016 C-85.00929332 73.82183439 -90.20332201 58.47155779 -89.81835938 41.85400391 C-88.68134243 27.64129207 -82.17437136 13.44567817 -71.57617188 3.82666016 C-51.31148855 -12.82415464 -21.84241481 -16.26001325 0 0 Z " fill="#674AF3" transform="translate(967.576171875,309.17333984375)"/>
</svg>
