<?xml version="1.0" encoding="UTF-8"?>
<svg version="1.1" xmlns="http://www.w3.org/2000/svg" width="2066" height="854">
<path d="M0 0 C0.84839447 0.00054382 1.69678894 0.00108765 2.57089233 0.00164795 C24.07129059 0.06464946 45.22293185 2.01556658 65.25 10.375 C67.05404297 11.12716797 67.05404297 11.12716797 68.89453125 11.89453125 C83.51131249 18.63695223 95.74765127 29.28529158 107.25 40.375 C107.99894531 41.07238281 108.74789063 41.76976562 109.51953125 42.48828125 C113.24887328 46.04648713 115.81552276 49.32865153 118.375 53.8125 C120.293125 56.0709375 120.293125 56.0709375 122.25 58.375 C129.18 58.87 129.18 58.87 136.25 59.375 C136.25 43.535 136.25 27.695 136.25 11.375 C169.25 11.375 202.25 11.375 236.25 11.375 C236.31623841 101.87960157 236.31623841 101.87960157 236.33468628 146.59495544 C236.33510045 147.59628716 236.33510045 147.59628716 236.33552299 148.6178478 C236.3415094 163.12709785 236.34704968 177.63634805 236.35213066 192.14559845 C236.35462524 199.2613723 236.35721836 206.37714612 236.35986328 213.49291992 C236.3601248 214.20100882 236.36038632 214.90909771 236.36065576 215.63864384 C236.36917194 238.57216191 236.38418969 261.5056701 236.40259444 284.43918218 C236.42148001 308.01476174 236.43377561 331.59033584 236.43782998 355.16592283 C236.44045566 370.35282298 236.44882927 385.53969615 236.46583293 400.72658741 C236.47641436 410.68543814 236.47959799 420.64427422 236.47700275 430.60313017 C236.47572328 436.34663864 236.47766859 442.09009755 236.48841095 447.83359718 C236.49818663 453.09886154 236.49860699 458.36404329 236.49179779 463.62931155 C236.49095695 465.52727952 236.49345725 467.42525276 236.49976636 469.32321043 C236.59023061 498.23448387 231.40937216 524.27228383 210.84375 545.90625 C188.6028608 566.99176833 162.69631045 568.84062538 133.73046875 568.71557617 C130.96952062 568.71305051 128.20858006 568.71507573 125.44763184 568.71690369 C119.5328663 568.71846704 113.61820102 568.70915691 107.70346069 568.69219017 C99.15204598 568.66767613 90.60067912 568.65998231 82.04923308 568.6562262 C68.1708155 568.64968103 54.2924512 568.62977273 40.4140625 568.60131836 C26.94271102 568.57372746 13.47137408 568.55251859 0 568.53979492 C-0.83215519 568.53900675 -1.66431037 568.53821858 -2.52168238 568.53740653 C-6.69689209 568.53349105 -10.8721019 568.52970001 -15.04731178 568.52597082 C-49.61492187 568.49493523 -84.18243326 568.43966496 -118.75 568.375 C-118.75 539.335 -118.75 510.295 -118.75 480.375 C-108.23330444 480.345271 -108.23330444 480.345271 -97.50415039 480.31494141 C-75.05644315 480.25009708 -52.6087746 480.17556204 -30.16111899 480.09494839 C-26.67276123 480.08242992 -23.18440317 480.06999708 -19.69604492 480.05761719 C-18.65436625 480.0539182 -18.65436625 480.0539182 -17.59164356 480.05014448 C-6.35568045 480.01044977 4.88029268 479.9776879 16.1162849 479.94750018 C27.65039605 479.91635674 39.18446061 479.87758827 50.71852499 479.83220994 C57.19494114 479.80697063 63.67132738 479.78518166 70.14777946 479.77165604 C76.24540429 479.75881254 82.34292638 479.73673317 88.44049454 479.70761681 C90.67654496 479.69855898 92.91261192 479.69285499 95.14867973 479.69078636 C98.20661201 479.68745119 101.26425524 479.67193955 104.3221283 479.6534729 C105.64269137 479.656375 105.64269137 479.656375 106.98993248 479.65933573 C115.1209102 479.58616147 122.87135355 478.84241125 129.25 473.375 C132.17196049 468.53865161 133.36350177 464.31392162 133.40821838 458.71795654 C133.4180072 457.78690094 133.42779602 456.85584534 133.43788147 455.89657593 C133.44363693 454.88237579 133.4493924 453.86817566 133.45532227 452.82324219 C133.46522186 451.74976532 133.47512146 450.67628845 133.48532104 449.57028198 C133.51691722 446.02083545 133.54168616 442.47137553 133.56640625 438.921875 C133.58697739 436.4613612 133.60797391 434.00085092 133.62937927 431.54034424 C133.68458335 425.06309867 133.73400004 418.58582129 133.78222656 412.10852051 C133.83245368 405.49940153 133.88813344 398.89032876 133.94335938 392.28125 C134.05092062 379.31253974 134.1525553 366.34379002 134.25 353.375 C132.00193819 353.41488193 129.75446929 353.48921097 127.5078125 353.578125 C125.63053467 353.63468262 125.63053467 353.63468262 123.71533203 353.69238281 C119.52867563 354.51708982 118.49711179 355.66644018 116.125 359.125 C115.51785156 360.11886719 114.91070312 361.11273437 114.28515625 362.13671875 C99.25908517 386.04576468 71.09441429 399.91666055 44.50390625 406.2734375 C20.21695705 411.61721238 -6.21435178 412.67628195 -30.75 408.375 C-31.47880371 408.25141113 -32.20760742 408.12782227 -32.95849609 408.00048828 C-51.9576168 404.67755536 -69.84720188 398.65742717 -86.75 389.375 C-87.35924316 389.04886719 -87.96848633 388.72273438 -88.59619141 388.38671875 C-100.33363106 382.09667903 -110.6776868 374.52343166 -120.44921875 365.484375 C-122.5213264 363.58464982 -124.64841131 361.79273619 -126.8125 360 C-131.77465209 355.66433204 -135.69901577 350.54675654 -139.75 345.375 C-140.5440625 344.40820312 -141.338125 343.44140625 -142.15625 342.4453125 C-175.21074214 301.33640297 -184.29819273 247.85240811 -182.75 196.375 C-182.73066406 195.54838867 -182.71132812 194.72177734 -182.69140625 193.87011719 C-181.31437216 138.72800222 -164.39561272 90.96496231 -126.75 50.375 C-126.21246094 49.78332031 -125.67492187 49.19164062 -125.12109375 48.58203125 C-103.99359881 26.28961178 -73.47837936 11.70640563 -44 4.5625 C-42.79694214 4.27016479 -42.79694214 4.27016479 -41.56958008 3.97192383 C-27.7486093 0.81987008 -14.11373984 -0.03421513 0 0 Z M-30.75 103.375 C-32.19052734 104.15617187 -32.19052734 104.15617187 -33.66015625 104.953125 C-54.88394835 117.33106561 -69.68980755 138.38393476 -76.15771484 161.84667969 C-76.71611805 164.01711375 -77.24011929 166.19269081 -77.75 168.375 C-77.91371094 169.0467627 -78.07742187 169.71852539 -78.24609375 170.41064453 C-83.35926347 192.37931483 -83.08370241 219.48897113 -77.75 241.375 C-77.58371094 242.08672363 -77.41742188 242.79844727 -77.24609375 243.53173828 C-70.83394377 270.17184658 -55.07793349 291.89041395 -31.75 306.375 C-13.49332909 317.18566697 6.33430048 321.79329783 27.5 321.6875 C28.6765918 321.68258545 29.85318359 321.6776709 31.06542969 321.67260742 C60.89652661 321.27363185 87.5960832 309.99499441 108.81103516 288.87109375 C133.22724295 263.48552853 136.92913554 229.24508183 136.33886719 195.56591797 C135.48383279 164.86454551 125.90942446 137.74672556 103.84765625 116.0078125 C68.56538413 82.89932966 10.36994959 80.06474173 -30.75 103.375 Z " fill="#111322" transform="translate(218.75,284.625)"/>
<path d="M0 0 C33.66 0 67.32 0 102 0 C102 184.8 102 369.6 102 560 C69 560 36 560 2 560 C2 544.16 2 528.32 2 512 C-10.78794797 511.60315635 -10.78794797 511.60315635 -14.984375 515.3359375 C-15.56703125 516.33882812 -16.1496875 517.34171875 -16.75 518.375 C-17.44867187 519.46167969 -18.14734375 520.54835938 -18.8671875 521.66796875 C-19.92292969 523.31732422 -19.92292969 523.31732422 -21 525 C-44.19445236 553.4797456 -76.21316409 567.08427307 -112 571 C-158.88843756 575.15544776 -207.66978602 565.50206001 -245 535.375 C-246.68000415 533.93205165 -248.34710256 532.47392128 -250 531 C-250.87140625 530.236875 -251.7428125 529.47375 -252.640625 528.6875 C-255.12272825 526.48779173 -257.56836476 524.25524719 -260 522 C-260.59167969 521.46246094 -261.18335938 520.92492187 -261.79296875 520.37109375 C-302.34029335 481.94263172 -315.34412151 424.67104451 -317 371 C-318.47084041 308.55613909 -305.13787547 248.34181762 -260.984375 202.0546875 C-236.47164998 176.80249003 -203.77495877 159.70577111 -169 154 C-167.4065979 153.7361853 -167.4065979 153.7361853 -165.78100586 153.46704102 C-155.63205386 151.94283447 -145.68305969 151.63972562 -135.4375 151.6875 C-134.1868425 151.69073273 -134.1868425 151.69073273 -132.91091919 151.69403076 C-96.5824314 151.84438371 -59.70373608 160.04516176 -32 185 C-31.22011719 185.69738281 -30.44023438 186.39476562 -29.63671875 187.11328125 C-24.18244724 192.26610771 -20.51836608 197.78895797 -17.01953125 204.375 C-12.89971386 208.48724814 -12.89971386 208.48724814 0 208 C0 139.36 0 70.72 0 0 Z M-187.0625 272.625 C-212.03304189 298.30003993 -215.71231962 334.83185844 -215.32830811 368.860672 C-215.15329834 379.42841731 -214.33217194 389.67109196 -212 400 C-211.86078125 400.65967773 -211.7215625 401.31935547 -211.578125 401.99902344 C-207.42989808 421.2901991 -198.61513447 437.77267423 -185 452 C-184.44828125 452.61488281 -183.8965625 453.22976563 -183.328125 453.86328125 C-170.8414979 467.30804063 -152.63199829 475.90608394 -135 480 C-134.09507812 480.21269531 -133.19015625 480.42539062 -132.2578125 480.64453125 C-102.88202285 487.00471001 -70.453484 482.22730467 -45 466 C-21.994171 450.54697951 -6.43112496 427.75449078 -1.06640625 400.48046875 C6.10858484 360.73126568 4.47033856 315.92501648 -18.64453125 281.5546875 C-34.53630832 259.97899017 -57.34740712 246.84962163 -83.5625 241.8125 C-122.53937118 236.12730591 -158.1424657 245.35626396 -187.0625 272.625 Z " fill="#111322" transform="translate(1321,133)"/>
<path d="M0 0 C0.87551514 0.00215515 1.75103027 0.0043103 2.65307617 0.00653076 C36.9818626 0.14173885 67.95332783 7.23759713 98.375 23.3125 C99.39078125 23.84359375 100.4065625 24.3746875 101.453125 24.921875 C120.49619222 35.43198314 138.38063285 50.88988482 151.375 68.3125 C152.16003906 69.34375 152.94507813 70.375 153.75390625 71.4375 C191.71779361 122.24299387 194.375 178.55399518 194.375 240.3125 C99.005 240.3125 3.635 240.3125 -94.625 240.3125 C-90.27849094 267.84039069 -82.22342065 291.86471654 -59.625 309.3125 C-33.12096554 328.52304095 -2.24373889 333.54627356 29.79760742 328.72265625 C54.01842382 324.6787074 71.89026369 312.01529868 86.02832031 292.31005859 C88.97437313 287.94011585 91.58569514 283.35484607 94.11572266 278.73388672 C97.07272925 273.41325692 97.07272925 273.41325692 100.375 272.3125 C102.70898438 273.23364258 102.70898438 273.23364258 105.46875 274.70703125 C106.4892041 275.24529541 107.5096582 275.78355957 108.56103516 276.33813477 C109.65464355 276.92780029 110.74825195 277.51746582 111.875 278.125 C113.00341309 278.72304443 114.13182617 279.32108887 115.29443359 279.93725586 C117.58876021 281.15395406 119.88093038 282.37472757 122.17089844 283.59960938 C125.69069655 285.4812692 129.22104289 287.34189549 132.75512695 289.1965332 C135.02219702 290.38665253 137.28651273 291.58190451 139.55078125 292.77734375 C143.08246765 294.63810887 146.623148 296.48078913 150.16796875 298.31640625 C160.69938606 303.77394478 171.15388754 309.28966077 181.375 315.3125 C158.31900438 359.67782491 119.48165469 396.07854466 71.375 411.3125 C15.13089714 428.37003901 -49.41255481 422.55740336 -101.4375 395.4375 C-143.66986462 372.55613458 -174.86678224 332.21938963 -188.50048828 286.36816406 C-192.28852238 272.87970604 -195.07462221 259.23887521 -196.625 245.3125 C-196.7192627 244.50369385 -196.81352539 243.6948877 -196.91064453 242.86157227 C-202.78598749 184.37615919 -195.1099094 119.6686506 -157.625 72.3125 C-156.92761719 71.40757812 -156.23023438 70.50265625 -155.51171875 69.5703125 C-148.85304763 61.06272881 -141.91514425 53.24766461 -133.625 46.3125 C-132.79871094 45.57515625 -131.97242188 44.8378125 -131.12109375 44.078125 C-95.0558553 12.57747167 -47.06849314 -0.2096667 0 0 Z M-73.6796875 117.92578125 C-84.37960223 129.85450896 -93.625 148.04644508 -93.625 164.3125 C-32.575 164.3125 28.475 164.3125 91.375 164.3125 C86.99955941 139.51833668 78.66273868 119.31067905 58 104.4375 C18.21163364 78.49060542 -40.83367699 83.0721791 -73.6796875 117.92578125 Z " fill="#101322" transform="translate(1696.625,284.6875)"/>
<path d="M0 0 C1.17900879 0.19287598 1.17900879 0.19287598 2.38183594 0.38964844 C32.24305171 5.31017582 61.40221939 17.42924493 86 35 C86.59006836 35.41652832 87.18013672 35.83305664 87.78808594 36.26220703 C125.93225893 63.5555756 151.9213273 106.96573873 160 153 C162.32299821 167.59725359 163.63080526 182.22913372 164 197 C164.02191406 197.7336377 164.04382813 198.46727539 164.06640625 199.22314453 C165.47784882 251.90523858 154.6357479 303.37724005 121 345 C120.50741699 345.61359375 120.01483398 346.2271875 119.50732422 346.859375 C88.88719547 384.68245716 43.48754894 406.28721618 -4 414 C-4.68626465 414.11182617 -5.3725293 414.22365234 -6.07958984 414.33886719 C-62.56219854 423.10507867 -125.9781802 413.01389765 -173.44140625 379.890625 C-181.36350229 374.03674029 -188.80328598 367.72353557 -196 361 C-196.86367188 360.20207031 -197.72734375 359.40414063 -198.6171875 358.58203125 C-210.91760654 346.79858634 -220.85587022 332.92247383 -229 318 C-229.51554443 317.05954834 -229.51554443 317.05954834 -230.04150391 316.10009766 C-259.88981401 260.89963303 -260.5507596 187.84624979 -243.30126953 128.60009766 C-229.49734122 83.31880194 -197.00856741 44.97809769 -155.65478516 22.44360352 C-135.01537342 11.49185183 -112.94273988 4.30252121 -90 0 C-88.69893311 -0.2477417 -88.69893311 -0.2477417 -87.37158203 -0.50048828 C-59.32837782 -5.55883159 -27.99113156 -5.05596064 0 0 Z M-126.4375 121.5625 C-144.99451354 143.56185934 -151.08505746 170.95129261 -152 199 C-152.04125 200.15113281 -152.0825 201.30226563 -152.125 202.48828125 C-152.70373617 235.00601995 -147.32255342 269.52269288 -124.08056641 293.92797852 C-122.73460928 295.29943257 -121.36772071 296.65024934 -120 298 C-119.27167969 298.72703125 -118.54335938 299.4540625 -117.79296875 300.203125 C-94.95820104 321.72457583 -65.51047907 326.83464206 -35.16210938 326.13623047 C-12.58614994 325.16360961 8.57066659 316.11567272 26 302 C26.65484375 301.49855469 27.3096875 300.99710938 27.984375 300.48046875 C49.70494662 283.19368354 58.20926029 255.51822811 61.59423828 229.13964844 C62.37580339 221.90462547 62.34759577 214.64386379 62.3125 207.375 C62.31067719 206.58829926 62.30885437 205.80159851 62.30697632 204.99105835 C62.18900706 174.66681062 56.68316426 145.96972003 37 122 C36.50242187 121.35546875 36.00484375 120.7109375 35.4921875 120.046875 C19.95167242 100.83598702 -5.00107097 90.00274866 -29.12890625 87.24609375 C-66.72135464 84.85626101 -100.16947754 93.37857571 -126.4375 121.5625 Z " fill="#111322" transform="translate(784,288)"/>
<path d="M0 0 C33.33 0 66.66 0 101 0 C101 185.13 101 370.26 101 561 C67.67 560.67 34.34 560.34 0 560 C0 375.2 0 190.4 0 0 Z " fill="#111321" transform="translate(1964,133)"/>
<path d="M0 0 C1.50292321 1.13589918 2.98136883 2.30470624 4.4375 3.5 C5.42492187 4.27472656 6.41234375 5.04945312 7.4296875 5.84765625 C18.13686247 14.84120863 23.86332168 28.91484108 25.4375 42.5 C26.75938201 57.98127203 21.55329214 72.16675542 12.1875 84.3125 C3.4000453 94.56206901 -9.5722404 102.19437136 -23.13134766 103.80517578 C-25.72033843 103.93584256 -28.2829576 103.96809665 -30.875 103.9375 C-31.79144287 103.92920166 -32.70788574 103.92090332 -33.65209961 103.91235352 C-48.42408384 103.54647184 -61.10441325 97.94856578 -71.875 87.8125 C-78.94133653 80.33717936 -84.06576433 71.50614836 -86.5625 61.5 C-86.83707031 60.40365234 -86.83707031 60.40365234 -87.1171875 59.28515625 C-89.61479996 43.66412393 -86.84043208 28.98996339 -78.5625 15.5 C-60.18151069 -8.73105936 -26.16224513 -17.73908906 0 0 Z " fill="#674AF4" transform="translate(858.5625,8.5)"/>
<path d="M0 0 C1.50292321 1.13589918 2.98136883 2.30470624 4.4375 3.5 C5.42492187 4.27472656 6.41234375 5.04945312 7.4296875 5.84765625 C18.13686247 14.84120863 23.86332168 28.91484108 25.4375 42.5 C26.75938201 57.98127203 21.55329214 72.16675542 12.1875 84.3125 C3.4000453 94.56206901 -9.5722404 102.19437136 -23.13134766 103.80517578 C-25.72033843 103.93584256 -28.2829576 103.96809665 -30.875 103.9375 C-31.79144287 103.92920166 -32.70788574 103.92090332 -33.65209961 103.91235352 C-48.42408384 103.54647184 -61.10441325 97.94856578 -71.875 87.8125 C-78.94133653 80.33717936 -84.06576433 71.50614836 -86.5625 61.5 C-86.83707031 60.40365234 -86.83707031 60.40365234 -87.1171875 59.28515625 C-89.61479996 43.66412393 -86.84043208 28.98996339 -78.5625 15.5 C-60.18151069 -8.73105936 -26.16224513 -17.73908906 0 0 Z " fill="#674AF4" transform="translate(666.5625,8.5)"/>
</svg>
