<?xml version="1.0" encoding="UTF-8"?>
<svg version="1.1" xmlns="http://www.w3.org/2000/svg" width="512" height="512">
<path d="M0 0 C0.98969788 -0.00250763 0.98969788 -0.00250763 1.99938965 -0.00506592 C13.81306416 -0.00685143 25.21525057 1.0254446 36.8125 3.25 C37.64273682 3.4039624 38.47297363 3.5579248 39.32836914 3.71655273 C44.5722875 4.7188391 49.66264455 5.94487944 54.75 7.5625 C55.43457275 7.7783374 56.11914551 7.9941748 56.82446289 8.21655273 C62.70898241 10.12193076 68.2476734 12.55508398 73.8125 15.25 C75.53875968 16.02732161 77.26776195 16.79859378 79 17.5625 C79.73605469 17.88863281 80.47210938 18.21476562 81.23046875 18.55078125 C81.75253906 18.78152344 82.27460938 19.01226562 82.8125 19.25 C82.8125 19.91 82.8125 20.57 82.8125 21.25 C83.493125 21.4975 84.17375 21.745 84.875 22 C89.47469034 23.95731504 93.65128537 26.47585692 97.8125 29.25 C97.8125 29.91 97.8125 30.57 97.8125 31.25 C98.39515625 31.51554687 98.9778125 31.78109375 99.578125 32.0546875 C107.54659942 36.3175427 115.78833334 44.7833154 120.8125 52.25 C120.8125 52.91 120.8125 53.57 120.8125 54.25 C121.4725 54.25 122.1325 54.25 122.8125 54.25 C122.8125 55.24 122.8125 56.23 122.8125 57.25 C123.8025 57.58 124.7925 57.91 125.8125 58.25 C127.19921875 59.9921875 127.19921875 59.9921875 128.5 62.125 C128.93699219 62.82367188 129.37398438 63.52234375 129.82421875 64.2421875 C130.8125 66.25 130.8125 66.25 130.8125 69.25 C131.4725 69.25 132.1325 69.25 132.8125 69.25 C143.98145477 90.30466793 148.92696616 111.33725941 149.015625 135.02734375 C149.02132507 136.23330704 149.02702515 137.43927032 149.03289795 138.68177795 C149.04230186 141.22575008 149.04886348 143.76973414 149.05273438 146.3137207 C149.06239265 150.14491888 149.09344217 153.97556902 149.125 157.80664062 C149.19854032 174.6387622 148.90468754 191.48942255 143.0625 207.5 C142.81226074 208.22106934 142.56202148 208.94213867 142.30419922 209.68505859 C139.6531251 217.10514034 136.32486028 224.20449625 132.8125 231.25 C132.1525 231.25 131.4925 231.25 130.8125 231.25 C130.4825 232.9 130.1525 234.55 129.8125 236.25 C129.1525 236.25 128.4925 236.25 127.8125 236.25 C127.73 236.78625 127.6475 237.3225 127.5625 237.875 C126.53668729 241.12340691 124.84686106 243.53751859 122.8125 246.25 C122.1525 246.25 121.4925 246.25 120.8125 246.25 C120.8125 247.24 120.8125 248.23 120.8125 249.25 C119.19411281 250.96358643 117.51578319 252.6207726 115.8125 254.25 C114.22987105 256.11123355 112.68008723 257.99433137 111.14453125 259.89453125 C110.70496094 260.34183594 110.26539063 260.78914063 109.8125 261.25 C109.1525 261.25 108.4925 261.25 107.8125 261.25 C107.8125 261.91 107.8125 262.57 107.8125 263.25 C104.65451259 266.12840704 101.20924583 268.66035267 97.8125 271.25 C97.11382812 271.79011719 96.41515625 272.33023437 95.6953125 272.88671875 C91.20451289 276.25 91.20451289 276.25 87.8125 276.25 C87.8125 276.91 87.8125 277.57 87.8125 278.25 C80.69482187 282.40657689 73.35606622 285.93540272 65.8125 289.25 C64.85085938 289.68441406 63.88921875 290.11882812 62.8984375 290.56640625 C44.14966416 298.45672115 24.64335486 300.07263674 4.50561523 299.90185547 C0.74946528 299.87499618 -3.00370411 299.90179382 -6.75976562 299.93359375 C-25.64274669 299.95922073 -43.68816516 297.71567689 -61.1875 290.25 C-62.35925781 289.76273437 -63.53101563 289.27546875 -64.73828125 288.7734375 C-70.31114888 286.43291954 -75.80043287 283.99650775 -81.1875 281.25 C-81.1875 280.59 -81.1875 279.93 -81.1875 279.25 C-81.99960938 279.10884766 -81.99960938 279.10884766 -82.828125 278.96484375 C-85.88521088 278.03860747 -88.24519005 276.5254644 -90.9375 274.8125 C-91.92234375 274.19503906 -92.9071875 273.57757813 -93.921875 272.94140625 C-94.66953125 272.38324219 -95.4171875 271.82507813 -96.1875 271.25 C-96.1875 270.59 -96.1875 269.93 -96.1875 269.25 C-97.1775 269.25 -98.1675 269.25 -99.1875 269.25 C-101.52734375 267.09375 -101.52734375 267.09375 -104.1875 264.25 C-105.09628906 263.3528125 -106.00507813 262.455625 -106.94140625 261.53125 C-107.86824219 260.6134375 -108.79507813 259.695625 -109.75 258.75 C-110.67941406 257.8321875 -111.60882813 256.914375 -112.56640625 255.96875 C-119.1875 249.1009687 -119.1875 249.1009687 -119.1875 246.25 C-119.8475 246.25 -120.5075 246.25 -121.1875 246.25 C-124.1875 241.86538462 -124.1875 241.86538462 -124.1875 239.25 C-124.8475 239.25 -125.5075 239.25 -126.1875 239.25 C-126.59742188 238.40695312 -127.00734375 237.56390625 -127.4296875 236.6953125 C-127.96851562 235.59960938 -128.50734375 234.50390625 -129.0625 233.375 C-129.86300781 231.73917969 -129.86300781 231.73917969 -130.6796875 230.0703125 C-132.03285937 227.21117453 -132.03285937 227.21117453 -134.1875 225.25 C-143.45731374 206.37328839 -147.3336551 186.02414285 -147.35546875 165.171875 C-147.35879715 164.04283752 -147.36212555 162.91380005 -147.36555481 161.75054932 C-147.37059085 159.37390547 -147.37296417 156.99725464 -147.37280273 154.62060547 C-147.37498526 151.02429292 -147.39316616 147.42828954 -147.41210938 143.83203125 C-147.4404925 132.47508712 -147.45812963 121.42033899 -145.1875 110.25 C-145.03079834 109.42516113 -144.87409668 108.60032227 -144.71264648 107.75048828 C-144.28840894 105.63317177 -143.81821557 103.53668215 -143.3125 101.4375 C-143.05533203 100.35843384 -143.05533203 100.35843384 -142.79296875 99.25756836 C-141.65742052 94.68273878 -140.26364594 90.47716137 -138.16796875 86.26171875 C-137.11043434 84.09187723 -136.31845354 81.89519013 -135.5 79.625 C-131.06166206 68.45083155 -124.02733554 58.28548613 -116.1875 49.25 C-115.47851562 48.40824219 -114.76953125 47.56648438 -114.0390625 46.69921875 C-109.57054346 41.53298358 -104.89636422 37.16170078 -99.44921875 33.0390625 C-97.12478658 31.27525633 -97.12478658 31.27525633 -95.03515625 29.0703125 C-93.05370811 27.11818812 -91.89984784 26.63747826 -89.1875 26.25 C-89.1875 25.59 -89.1875 24.93 -89.1875 24.25 C-88.47464844 23.86328125 -87.76179688 23.4765625 -87.02734375 23.078125 C-86.06957031 22.55734375 -85.11179688 22.0365625 -84.125 21.5 C-83.11308594 20.95085937 -82.10117188 20.40171875 -81.05859375 19.8359375 C-78.89828381 18.64262344 -76.79164904 17.41115467 -74.6875 16.125 C-70.02334196 13.62634391 -65.17515062 11.984835 -60.1875 10.25 C-58.83167625 9.73349571 -57.47732386 9.21309956 -56.125 8.6875 C-54.81427477 8.20349967 -53.50174089 7.72437097 -52.1875 7.25 C-51.19169922 6.88068359 -51.19169922 6.88068359 -50.17578125 6.50390625 C-41.87591402 3.70831397 -33.15478948 2.726331 -24.50610352 1.56445312 C-22.48677828 1.29058865 -20.4714383 0.98764921 -18.45703125 0.6796875 C-12.33484981 -0.06494346 -6.15821901 0.01471776 0 0 Z M-45.1875 79.25 C-45.950625 79.77464844 -46.71375 80.29929687 -47.5 80.83984375 C-48.056875 81.30519531 -48.61375 81.77054688 -49.1875 82.25 C-49.1875 82.91 -49.1875 83.57 -49.1875 84.25 C-50.05375 84.5903125 -50.05375 84.5903125 -50.9375 84.9375 C-53.77724845 86.59401993 -55.20249967 88.64468706 -57.1875 91.25 C-57.826875 91.848125 -58.46625 92.44625 -59.125 93.0625 C-74.70722432 109.58910155 -75.24172625 133.97297528 -75.1875 155.25 C-75.19007813 156.09401367 -75.19265625 156.93802734 -75.1953125 157.80761719 C-75.12478333 178.37568668 -69.04685556 197.71383625 -54.703125 212.8125 C-53.53736053 213.96454959 -52.36309991 215.10798866 -51.1875 216.25 C-50.5275 217.24 -49.8675 218.23 -49.1875 219.25 C-48.1975 219.25 -47.2075 219.25 -46.1875 219.25 C-46.1875 219.91 -46.1875 220.57 -46.1875 221.25 C-34.56317822 228.4681844 -22.1982135 234.95811014 -8.1875 235.25 C-7.54941406 235.26901367 -6.91132813 235.28802734 -6.25390625 235.30761719 C13.19323155 235.83626042 31.60268515 233.03625732 47.8125 221.25 C47.8125 220.59 47.8125 219.93 47.8125 219.25 C48.8025 219.25 49.7925 219.25 50.8125 219.25 C52.61586237 217.55202294 52.61586237 217.55202294 54.3125 215.375 C56.44290629 212.76805546 57.97252857 211.14331428 60.8125 209.25 C60.8125 208.26 60.8125 207.27 60.8125 206.25 C61.4725 206.25 62.1325 206.25 62.8125 206.25 C77.993498 179.17722024 81.65755826 147.39698887 73.23779297 117.18383789 C70.7812991 108.93060571 67.20686063 101.64569628 62.8125 94.25 C62.1525 94.25 61.4925 94.25 60.8125 94.25 C60.585625 93.71375 60.35875 93.1775 60.125 92.625 C56.06915026 85.28584333 49.80913261 80.68908736 42.8125 76.25 C42.1525 76.25 41.4925 76.25 40.8125 76.25 C40.8125 75.59 40.8125 74.93 40.8125 74.25 C12.26833743 62.52108214 -18.75415801 60.5118908 -45.1875 79.25 Z " fill="#101221" transform="translate(255.1875,207.75)"/>
<path d="M0 0 C8.48714264 5.62054137 16.56459767 12.70822457 19.3359375 22.81640625 C19.56667969 23.63238281 19.79742187 24.44835937 20.03515625 25.2890625 C22.46953087 35.07307768 22.19804282 44.31279808 18.4609375 53.75390625 C14.05513275 61.04627273 10.16003044 67.42029494 2.6484375 71.75390625 C1.6584375 71.75390625 0.6684375 71.75390625 -0.3515625 71.75390625 C-0.3515625 72.41390625 -0.3515625 73.07390625 -0.3515625 73.75390625 C-6.82714326 76.62939971 -12.24126063 77.24446978 -19.2890625 77.19140625 C-20.22685547 77.21138672 -21.16464844 77.23136719 -22.13085938 77.25195312 C-33.78082577 77.24385725 -41.56849214 71.86452657 -50.0390625 64.37890625 C-58.22560944 55.08606918 -60.95313076 45.46734409 -60.6328125 33.1484375 C-59.69966331 21.88584523 -54.72056892 13.74071004 -46.6640625 6.00390625 C-33.91898237 -4.72978218 -15.35752547 -7.72276711 0 0 Z " fill="#674AF4" transform="translate(201.3515625,8.24609375)"/>
<path d="M0 0 C11.97452302 8.85861083 17.98027881 17.24573342 20.58203125 31.91015625 C21.26219598 45.28672925 16.97866206 55.56922364 8.58203125 65.91015625 C5.4831958 68.76133887 2.9486327 70.91015625 -1.41796875 70.91015625 C-1.41796875 71.57015625 -1.41796875 72.23015625 -1.41796875 72.91015625 C-7.89354951 75.78564971 -13.30766688 76.40071978 -20.35546875 76.34765625 C-21.29326172 76.36763672 -22.23105469 76.38761719 -23.19726562 76.40820312 C-34.45599679 76.40037913 -42.50817418 71.4418104 -50.5546875 63.91015625 C-55.79660162 58.48414533 -58.40254378 53.14063567 -60.41796875 45.91015625 C-60.61003906 45.25789063 -60.80210937 44.605625 -61 43.93359375 C-62.9181831 34.6474363 -61.52023796 24.56822449 -56.9765625 16.28125 C-44.82104898 -2.19174619 -20.37821379 -12.33188045 0 0 Z " fill="#674AF4" transform="translate(339.41796875,9.08984375)"/>
</svg>
